<svg width="76" height="52" viewBox="0 0 76 52" fill="none" xmlns="http://www.w3.org/2000/svg">
<path d="M53.6778 22.7268V22.845L53.7927 22.8727C57.6174 23.7927 60.4686 27.2406 60.4683 31.3429V43.7273C60.4683 44.6269 59.739 45.3563 58.8393 45.3563H53.8277H53.6777V45.5063V49.8089C53.6777 50.7086 52.9483 51.4379 52.0487 51.4379C51.149 51.4379 50.4197 50.7086 50.4197 49.8089V45.5063V45.3563H50.2697H11.2515H11.1015V45.5063V49.8089C11.1015 50.7086 10.3722 51.4379 9.47256 51.4379C8.57289 51.4379 7.84357 50.7086 7.84357 49.8089V45.5063V45.3563H7.69357H2.68188C1.78222 45.3563 1.05289 44.6269 1.05289 43.7273V31.3429C1.05289 27.2406 3.90404 23.7927 7.72877 22.8727L7.84368 22.845V22.7268V6.12307C7.84368 2.82964 10.5231 0.15 13.8165 0.15H47.7047C50.9981 0.15 53.6778 2.82965 53.6778 6.12307V22.7268ZM50.2698 22.6298H50.4198V22.4798V6.12307C50.4198 4.62595 49.2019 3.4081 47.7048 3.4081H13.8165C12.3195 3.4081 11.1017 4.62595 11.1017 6.12307V22.4797V22.6297H11.2517H17.1307H17.2807V22.4797V19.6732C17.2807 15.106 20.9967 11.39 25.5639 11.39H35.9577C40.5249 11.39 44.2409 15.1059 44.2409 19.6732V22.4798V22.6298H44.3909H50.2698ZM40.833 22.6297H40.983V22.4797V19.6732C40.983 16.9022 38.7286 14.6478 35.9576 14.6479H25.5637C22.7926 14.6479 20.5385 16.9021 20.5385 19.6732V22.4797V22.6297H20.6885H40.833ZM4.31087 41.9483V42.0983H4.46087H57.0603H57.2104V41.9483V31.3429C57.2104 28.3348 54.7633 25.8878 51.7552 25.8878H9.766C6.75791 25.8878 4.31087 28.3348 4.31087 31.3429V41.9483Z" fill="#084654" stroke="white" stroke-width="0.3"/>
<line x1="3.25665" y1="39.0692" x2="57.7106" y2="39.0692" stroke="#084654" stroke-width="1.5"/>
<path d="M60.6071 15.1016L62.1902 12.2092H64.2652L61.7214 16.5396L64.3497 21H62.2901L60.6301 17.9939L58.9779 21H56.9029L59.5312 16.5396L56.9951 12.2092H59.0547L60.6071 15.1016Z" fill="#084654"/>
<path d="M75.9029 21H65.4922V18.6168L70.2877 13.2871C71.4695 11.8644 72.0604 10.7341 72.0604 9.89641C72.0604 9.21756 71.9203 8.7012 71.6403 8.34733C71.3602 7.99346 70.9537 7.81652 70.4209 7.81652C69.8949 7.81652 69.4679 8.05484 69.1401 8.53148C68.8122 9.0009 68.6482 9.58948 68.6482 10.2972H65.1848C65.1848 9.3295 65.4137 8.4376 65.8713 7.62153C66.329 6.79824 66.9643 6.1555 67.7772 5.6933C68.5901 5.2311 69.4987 5 70.5029 5C72.115 5 73.3549 5.39359 74.2224 6.18077C75.0968 6.96795 75.534 8.09817 75.534 9.57143C75.534 10.1925 75.4247 10.7991 75.2061 11.3913C74.9875 11.9763 74.646 12.5938 74.1814 13.2437C73.7238 13.8865 72.9826 14.7495 71.9579 15.8328L70.0315 18.1835H75.9029V21Z" fill="#084654"/>
</svg>
