<svg width="71" height="63" viewBox="0 0 71 63" fill="none" xmlns="http://www.w3.org/2000/svg">
<path d="M47.5722 56.1837C47.5722 57.7832 46.2635 59.0918 44.664 59.0918H6.85824C5.25876 59.0918 3.9501 57.7832 3.9501 56.1837V6.74535C3.9501 5.14588 5.25876 3.83722 6.85824 3.83722H44.664C46.2635 3.83722 47.5722 5.14588 47.5722 6.74535V24.1942H50.4803V6.74535C50.4803 3.5464 47.863 0.929077 44.664 0.929077H6.85824C3.65929 0.929077 1.04196 3.5464 1.04196 6.74535V56.1837C1.04196 59.3827 3.65929 62 6.85824 62H44.664C47.863 62 50.4803 59.3827 50.4803 56.1837V53.2756H47.5722V56.1837Z" fill="#084654" stroke="#084654"/>
<path d="M25.7611 53.2756C33.7585 53.2756 40.3018 46.7323 40.3018 38.7349C40.3018 30.7375 33.7585 24.1942 25.7611 24.1942C17.7637 24.1942 11.2204 30.7375 11.2204 38.7349C11.2204 46.7323 17.7637 53.2756 25.7611 53.2756ZM25.7611 27.1023C32.159 27.1023 37.3937 32.337 37.3937 38.7349C37.3937 45.1328 32.159 50.3674 25.7611 50.3674C19.3632 50.3674 14.1286 45.1328 14.1286 38.7349C14.1286 32.337 19.3632 27.1023 25.7611 27.1023Z" fill="#084654"/>
<path d="M62.1129 30.0105H59.2047V47.4594H62.1129V30.0105Z" fill="#084654"/>
<path d="M70.8373 21.2861H67.9291V56.1837H70.8373V21.2861Z" fill="#084654"/>
<path d="M53.3885 34.3727H50.4803V43.0971H53.3885V34.3727Z" fill="#084654"/>
<path d="M17.0367 14.0157C17.0367 12.4162 15.728 11.1075 14.1286 11.1075C12.5291 11.1075 11.2204 12.4162 11.2204 14.0157C11.2204 15.6151 12.5291 16.9238 14.1286 16.9238C15.728 16.9238 17.0367 15.6151 17.0367 14.0157ZM14.1286 14.0157V15.4697V14.0157Z" fill="#084654"/>
<path d="M37.3937 11.1075C35.7942 11.1075 34.4855 12.4162 34.4855 14.0157C34.4855 15.6151 35.7942 16.9238 37.3937 16.9238C38.9932 16.9238 40.3018 15.6151 40.3018 14.0157C40.3018 12.4162 38.9932 11.1075 37.3937 11.1075ZM37.3937 15.4697V14.0157V15.4697Z" fill="#084654"/>
<path d="M28.6693 14.0157C28.6693 12.4162 27.3606 11.1075 25.7612 11.1075C24.1617 11.1075 22.853 12.4162 22.853 14.0157C22.853 15.6151 24.1617 16.9238 25.7612 16.9238C27.3606 16.9238 28.6693 15.6151 28.6693 14.0157ZM25.7612 14.0157V15.4697V14.0157Z" fill="#084654"/>
<path d="M25.7611 47.4594C30.5596 47.4594 34.4856 43.5334 34.4856 38.7349C34.4856 33.9365 30.5596 30.0105 25.7611 30.0105C20.9627 30.0105 17.0367 33.9365 17.0367 38.7349C17.0367 43.5334 20.9627 47.4594 25.7611 47.4594ZM25.7611 32.9187C28.9601 32.9187 31.5774 35.536 31.5774 38.7349C31.5774 41.9339 28.9601 44.5512 25.7611 44.5512C22.5622 44.5512 19.9449 41.9339 19.9449 38.7349C19.9449 35.536 22.5622 32.9187 25.7611 32.9187Z" fill="#084654"/>
</svg>
