<svg width="65" height="59" viewBox="0 0 65 59" fill="none" xmlns="http://www.w3.org/2000/svg">
<path d="M22.1442 16.791H35.5216V20.1902H22.1442V16.791ZM22.1442 31.7574V30.5233H25.6577C26.8149 29.9193 28.0354 29.0861 29.3486 27.9308C29.7461 27.5774 30.1063 27.2911 30.4749 26.9892H22.1442V23.7257H35.5216V23.7575C36.5568 23.3218 37.4743 23.0811 38.3586 22.8944V7.79969C38.3586 7.74969 38.3762 7.69717 38.3762 7.64717V7.44334C38.3939 2.75162 41.1818 3.50052 41.1818 3.50052C42.8268 3.67018 43.2034 5.96458 43.2856 7.27378C43.3718 8.10706 43.9503 8.1743 43.9503 8.1743H45.2248C45.7149 8.1743 45.8217 7.79979 45.8217 7.51057C45.8051 7.40856 45.8051 7.30714 45.7865 7.18859V7.17045C45.6698 6.20279 45.4678 4.72312 45.1943 3.92513C45.0238 3.50062 44.8013 3.12612 44.563 2.81986C44.5131 2.75172 44.462 2.68448 44.41 2.61593C44.3444 2.54879 44.2914 2.48064 44.2237 2.42913C44.0855 2.29284 43.9523 2.17429 43.816 2.07187C43.6757 1.95372 43.5257 1.8513 43.3737 1.74989C43.3737 1.73366 43.3571 1.73366 43.3571 1.73366C43.069 1.56319 42.7817 1.42629 42.4562 1.30824C41.9974 1.13768 41.5895 1.07003 41.2857 1.01802C41.0965 1.00189 40.9289 0.98465 40.7387 0.98465C40.724 0.98465 40.7072 0.98465 40.7072 0.98465H40.6249C37.8173 0.98465 35.5254 3.27864 35.5254 6.08424V13.2566H22.1441V7.79969C22.1441 7.74969 22.1622 7.69717 22.1622 7.64717V7.44334C22.1622 2.75162 24.9668 3.50052 24.9668 3.50052C26.599 3.67018 26.9892 5.96458 27.075 7.27378C27.1603 8.10706 27.7382 8.1743 27.7382 8.1743H29.0121C29.5051 8.1743 29.6076 7.79979 29.6076 7.51057C29.5905 7.40856 29.5905 7.30714 29.5743 7.18859V7.17045C29.4547 6.20279 29.2523 4.72312 28.9783 3.92513C28.8081 3.50062 28.5877 3.12612 28.3474 2.81986C28.2984 2.75172 28.2464 2.68448 28.1969 2.61593C28.1288 2.54879 28.0788 2.48064 28.0082 2.42913C27.8729 2.29284 27.7371 2.17429 27.6019 2.07187C27.4642 1.95372 27.3136 1.8513 27.1612 1.74989C27.1612 1.73366 27.1422 1.73366 27.1422 1.73366C26.853 1.56319 26.5647 1.42629 26.2428 1.30824C25.784 1.13768 25.3762 1.07003 25.0694 1.01802C24.8816 1.00189 24.714 0.98465 24.5253 0.98465C24.5082 0.98465 24.4919 0.98465 24.4919 0.98465H24.4076C21.6021 0.98465 19.3091 3.27864 19.3091 6.08424V31.9997C20.2286 32.0045 21.1702 31.9417 22.1442 31.7574Z" fill="#084654"/>
<path d="M41.2269 25.7462C41.2269 25.7462 47.8146 24.0469 54.614 28.7739C56.5766 30.3134 58.4352 31.4839 57.1098 33.076C56.3648 33.767 55.7277 34.4081 53.3905 32.0143C51.1083 30.4723 47.4989 28.1675 41.2269 29.091C38.7859 29.5704 36.9782 30.2076 33.5286 33.4465C30.0774 36.6883 24.9239 38.9735 19.4537 38.4932C13.9831 38.0129 11.1137 35.9424 8.08657 33.3387C7.44987 32.4918 7.44987 31.5899 7.82145 31.0565C8.19303 30.5271 9.62713 29.9939 10.4241 30.7919C11.2201 31.5899 14.9928 34.7759 18.7102 34.9876C22.428 35.2012 26.1453 35.4111 31.1375 31.0036C36.1293 26.5966 38.6271 26.2776 41.2269 25.7462Z" fill="#084654"/>
<path d="M60.3507 51.1019C60.3507 52.7283 59.0342 54.0478 57.4079 54.0478H7.71792C6.09158 54.0478 4.77261 52.7312 4.77261 51.1019V9.60538H0.483215V55.4624C0.483215 57.3386 2.00522 58.8611 3.88247 58.8611H61.2467C63.1211 58.8611 64.6445 57.3386 64.6445 55.4624V9.60538H60.3528V51.1019H60.3507Z" fill="#084654"/>
</svg>
