<svg width="60" height="89" viewBox="0 0 60 89" fill="none" xmlns="http://www.w3.org/2000/svg">
<path fill-rule="evenodd" clip-rule="evenodd" d="M59.7692 68V30.1182L32.5894 0H6C2.68629 0 0 2.68629 0 6V68C0 71.3137 2.68629 74 6 74H53.7692C57.0829 74 59.7692 71.3137 59.7692 68ZM10.0384 62.6152C9.20993 62.6152 8.53836 63.2868 8.53836 64.1152V65.3844C8.53836 66.2129 9.20993 66.8844 10.0384 66.8844H49.7307C50.5591 66.8844 51.2307 66.2129 51.2307 65.3844V64.1152C51.2307 63.2868 50.5591 62.6152 49.7307 62.6152H10.0384ZM8.53836 55.5767C8.53836 54.7483 9.20993 54.0767 10.0384 54.0767H49.7307C50.5591 54.0767 51.2307 54.7483 51.2307 55.5767V56.8459C51.2307 57.6744 50.5591 58.3459 49.7307 58.3459H10.0384C9.20993 58.3459 8.53836 57.6744 8.53836 56.8459V55.5767ZM10.0384 45.5385C9.20993 45.5385 8.53836 46.2101 8.53836 47.0385V48.3077C8.53836 49.1361 9.20993 49.8077 10.0384 49.8077H49.7307C50.5591 49.8077 51.2307 49.1361 51.2307 48.3077V47.0385C51.2307 46.2101 50.5591 45.5385 49.7307 45.5385H10.0384ZM8.53836 38.5C8.53836 37.6716 9.20993 37 10.0384 37H49.7307C50.5591 37 51.2307 37.6716 51.2307 38.5V39.7692C51.2307 40.5977 50.5591 41.2692 49.7307 41.2692H10.0384C9.20993 41.2692 8.53836 40.5977 8.53836 39.7692V38.5ZM10.0384 28.4615C9.20993 28.4615 8.53836 29.1331 8.53836 29.9615V31.2308C8.53836 32.0592 9.20993 32.7308 10.0384 32.7308H49.7307C50.5591 32.7308 51.2307 32.0592 51.2307 31.2308V29.9615C51.2307 29.1331 50.5591 28.4615 49.7307 28.4615H10.0384ZM59.7693 26.2886V6C59.7693 2.68629 57.083 0 53.7693 0H36.0455L59.7693 26.2886ZM6.288 82.18C6.344 81.972 6.372 81.764 6.372 81.556C6.372 81.14 6.284 80.796 6.108 80.524C5.932 80.252 5.696 80.04 5.4 79.888C5.112 79.736 4.78 79.632 4.404 79.576C4.036 79.512 3.656 79.48 3.264 79.48C3.032 79.48 2.796 79.484 2.556 79.492C2.324 79.5 2.096 79.512 1.872 79.528C1.648 79.544 1.436 79.564 1.236 79.588C1.044 79.612 0.872 79.636 0.72 79.66V87.94C0.928 87.988 1.156 88.024 1.404 88.048C1.66 88.072 1.908 88.088 2.148 88.096C2.396 88.112 2.624 88.12 2.832 88.12H3.36C3.776 88.12 4.18 88.072 4.572 87.976C4.964 87.88 5.312 87.732 5.616 87.532C5.928 87.332 6.176 87.076 6.36 86.764C6.544 86.444 6.636 86.068 6.636 85.636C6.636 85.308 6.588 85.024 6.492 84.784C6.404 84.544 6.28 84.34 6.12 84.172C5.96 84.004 5.772 83.872 5.556 83.776C5.34 83.68 5.112 83.612 4.872 83.572V83.5C5.144 83.436 5.376 83.34 5.568 83.212C5.76 83.076 5.916 82.924 6.036 82.756C6.156 82.58 6.24 82.388 6.288 82.18ZM3.948 86.692C3.764 86.74 3.572 86.764 3.372 86.764H3.084C2.98 86.756 2.876 86.752 2.772 86.752C2.676 86.744 2.584 86.736 2.496 86.728C2.408 86.72 2.344 86.708 2.304 86.692V84.376H3.18C3.388 84.376 3.596 84.388 3.804 84.412C4.012 84.436 4.2 84.492 4.368 84.58C4.536 84.66 4.672 84.776 4.776 84.928C4.88 85.08 4.932 85.288 4.932 85.552C4.932 85.76 4.888 85.94 4.8 86.092C4.712 86.244 4.596 86.372 4.452 86.476C4.308 86.572 4.14 86.644 3.948 86.692ZM3.216 83.116C3.072 83.124 2.944 83.128 2.832 83.128H2.304V80.884C2.4 80.868 2.536 80.856 2.712 80.848C2.888 80.84 3.08 80.836 3.288 80.836C3.472 80.836 3.648 80.852 3.816 80.884C3.984 80.916 4.132 80.972 4.26 81.052C4.396 81.132 4.504 81.24 4.584 81.376C4.664 81.512 4.704 81.684 4.704 81.892C4.704 82.204 4.592 82.456 4.368 82.648C4.152 82.84 3.892 82.984 3.588 83.08C3.492 83.096 3.368 83.108 3.216 83.116ZM14.769 85.516H15.189L16.653 88H18.441L16.821 85.204L16.149 84.736L16.761 84.28L18.213 82H16.545L15.141 84.388L14.769 84.556V82H13.209V88H14.769V85.516ZM21.3841 82.012C20.9441 82.092 20.5641 82.204 20.2441 82.348L20.6161 83.512C20.8401 83.408 21.1241 83.324 21.4681 83.26C21.8201 83.196 22.1521 83.164 22.4641 83.164C22.8801 83.164 23.1481 83.264 23.2681 83.464C23.3881 83.656 23.4201 83.976 23.3641 84.424C22.8361 84.4 22.3561 84.42 21.9241 84.484C21.5001 84.54 21.1321 84.648 20.8201 84.808C20.5161 84.96 20.2801 85.164 20.1121 85.42C19.9521 85.668 19.8721 85.976 19.8721 86.344C19.8721 86.608 19.9161 86.848 20.0041 87.064C20.0921 87.272 20.2161 87.456 20.3761 87.616C20.5361 87.768 20.7281 87.888 20.9521 87.976C21.1761 88.056 21.4281 88.096 21.7081 88.096C22.1561 88.096 22.5201 88.008 22.8001 87.832C23.0881 87.648 23.3121 87.432 23.4721 87.184H23.5321L23.7841 88.012H25.0561C24.9601 87.724 24.9001 87.42 24.8761 87.1C24.8521 86.772 24.8401 86.436 24.8401 86.092C24.8481 85.748 24.8641 85.4 24.8881 85.048C24.9121 84.688 24.9241 84.332 24.9241 83.98C24.9241 83.66 24.8881 83.372 24.8161 83.116C24.7521 82.86 24.6361 82.64 24.4681 82.456C24.3081 82.272 24.0881 82.132 23.8081 82.036C23.5281 81.932 23.1801 81.88 22.7641 81.88C22.2841 81.88 21.8241 81.924 21.3841 82.012ZM22.9681 86.608C22.7841 86.744 22.5361 86.812 22.2241 86.812C21.9921 86.812 21.8081 86.752 21.6721 86.632C21.5441 86.504 21.4801 86.328 21.4801 86.104C21.4801 85.944 21.5321 85.812 21.6361 85.708C21.7401 85.604 21.8801 85.524 22.0561 85.468C22.2321 85.412 22.4321 85.376 22.6561 85.36C22.8881 85.344 23.1281 85.348 23.3761 85.372V86.152C23.2881 86.312 23.1521 86.464 22.9681 86.608ZM30.0612 83.38H31.7532V82H26.7612V83.38H28.4532V88H30.0612V83.38ZM34.7528 82.012C34.3128 82.092 33.9328 82.204 33.6128 82.348L33.9848 83.512C34.2088 83.408 34.4928 83.324 34.8368 83.26C35.1888 83.196 35.5208 83.164 35.8328 83.164C36.2488 83.164 36.5168 83.264 36.6368 83.464C36.7568 83.656 36.7888 83.976 36.7328 84.424C36.2048 84.4 35.7248 84.42 35.2928 84.484C34.8688 84.54 34.5008 84.648 34.1888 84.808C33.8848 84.96 33.6488 85.164 33.4808 85.42C33.3208 85.668 33.2408 85.976 33.2408 86.344C33.2408 86.608 33.2848 86.848 33.3728 87.064C33.4608 87.272 33.5848 87.456 33.7448 87.616C33.9048 87.768 34.0968 87.888 34.3208 87.976C34.5448 88.056 34.7968 88.096 35.0768 88.096C35.5248 88.096 35.8888 88.008 36.1688 87.832C36.4568 87.648 36.6808 87.432 36.8408 87.184H36.9008L37.1528 88.012H38.4248C38.3288 87.724 38.2688 87.42 38.2448 87.1C38.2208 86.772 38.2088 86.436 38.2088 86.092C38.2168 85.748 38.2328 85.4 38.2568 85.048C38.2808 84.688 38.2928 84.332 38.2928 83.98C38.2928 83.66 38.2568 83.372 38.1848 83.116C38.1208 82.86 38.0048 82.64 37.8368 82.456C37.6768 82.272 37.4568 82.132 37.1768 82.036C36.8968 81.932 36.5488 81.88 36.1328 81.88C35.6528 81.88 35.1928 81.924 34.7528 82.012ZM36.3368 86.608C36.1528 86.744 35.9048 86.812 35.5928 86.812C35.3608 86.812 35.1768 86.752 35.0408 86.632C34.9128 86.504 34.8488 86.328 34.8488 86.104C34.8488 85.944 34.9008 85.812 35.0048 85.708C35.1088 85.604 35.2488 85.524 35.4248 85.468C35.6008 85.412 35.8008 85.376 36.0248 85.36C36.2568 85.344 36.4968 85.348 36.7448 85.372V86.152C36.6568 86.312 36.5208 86.464 36.3368 86.608ZM42.878 83.38H44.066V88H45.626V82H41.51C41.486 82.928 41.446 83.696 41.39 84.304C41.342 84.904 41.274 85.38 41.186 85.732C41.106 86.084 41.006 86.328 40.886 86.464C40.766 86.6 40.626 86.668 40.466 86.668C40.354 86.668 40.234 86.644 40.106 86.596L39.914 87.892C40.106 88.012 40.434 88.072 40.898 88.072C41.282 88.072 41.594 87.936 41.834 87.664C42.074 87.384 42.262 87.024 42.398 86.584C42.542 86.136 42.646 85.632 42.71 85.072C42.774 84.512 42.83 83.948 42.878 83.38ZM48.6338 82.66C48.1378 83.204 47.8898 83.984 47.8898 85C47.8898 85.472 47.9458 85.904 48.0578 86.296C48.1778 86.688 48.3538 87.024 48.5858 87.304C48.8258 87.576 49.1217 87.788 49.4738 87.94C49.8258 88.092 50.2418 88.168 50.7218 88.168C51.6178 88.168 52.3098 87.896 52.7978 87.352C53.2938 86.8 53.5418 86.016 53.5418 85C53.5418 84.528 53.4818 84.096 53.3618 83.704C53.2498 83.312 53.0778 82.98 52.8458 82.708C52.6138 82.428 52.3218 82.212 51.9698 82.06C51.6178 81.908 51.2018 81.832 50.7218 81.832C49.8258 81.832 49.1298 82.108 48.6338 82.66ZM49.5698 85.732C49.5218 85.508 49.4978 85.264 49.4978 85C49.4978 84.344 49.6058 83.872 49.8218 83.584C50.0378 83.296 50.3378 83.152 50.7218 83.152C51.1618 83.152 51.4738 83.324 51.6578 83.668C51.8418 84.004 51.9338 84.448 51.9338 85C51.9338 85.64 51.8338 86.108 51.6338 86.404C51.4338 86.7 51.1298 86.848 50.7218 86.848C50.5058 86.848 50.3178 86.804 50.1578 86.716C50.0058 86.62 49.8818 86.488 49.7858 86.32C49.6898 86.152 49.6178 85.956 49.5698 85.732ZM57.4311 83.38H59.6991V82H55.8231V88H57.4311V83.38Z" fill="white"/>
</svg>
