<svg width="77" height="41" viewBox="0 0 77 41" fill="none" xmlns="http://www.w3.org/2000/svg">
<g clip-path="url(#clip0)">
<path d="M7.09844 13.2371V4.56857C7.09844 3.28 8.18125 2.22572 9.50469 2.22572H34.8906C36.2141 2.22572 37.2969 3.28 37.2969 4.56857V24.4829" stroke="#084654" stroke-width="3"/>
<path d="M37.2969 24.6V4.68571C37.2969 3.39714 38.3797 2.34286 39.7031 2.34286H66.2922C67.6156 2.34286 68.6984 3.39714 68.6984 4.68571V13.3543" stroke="#084654" stroke-width="3"/>
<path fill-rule="evenodd" clip-rule="evenodd" d="M72.3078 14.0571H68.5781C67.2547 14.0571 66.1719 15.1114 66.1719 16.4V24.6H9.625V16.4C9.625 15.1114 8.54219 14.0571 7.21875 14.0571H3.60938C2.28594 14.0571 1.20312 15.1114 1.20312 16.4V31.7457C1.20312 33.0343 2.28594 34.0886 3.60938 34.0886H7.21875V36.4314C7.21875 37.72 8.30156 38.7743 9.625 38.7743H13.3547C14.6781 38.7743 15.7609 37.72 15.7609 36.4314V34.0886H59.0734V36.4314C59.0734 37.72 60.1563 38.7743 61.4797 38.7743H66.4125C67.7359 38.7743 68.8188 37.72 68.8188 36.4314V34.0886H72.4281C73.7516 34.0886 74.8344 33.0343 74.8344 31.7457V16.4C74.5938 15.1114 73.5109 14.0571 72.3078 14.0571Z" stroke="#084654" stroke-width="3"/>
</g>
<defs>
<clipPath id="clip0">
<rect width="77" height="41" fill="white"/>
</clipPath>
</defs>
</svg>
