<svg width="65" height="51" viewBox="0 0 65 51" fill="none" xmlns="http://www.w3.org/2000/svg">
<path d="M58.4535 2.52059L47.8911 1.05815C37.6788 -0.352716 27.3212 -0.352716 17.1089 1.05815L6.54949 2.52059C2.80041 3.04179 0.00694275 6.24389 0 10.0292V45.5299C0.00347138 48.5198 2.42649 50.9433 5.41683 50.9468H59.5832C62.5735 50.9433 64.9965 48.5198 65 45.5299V10.0292C64.9936 6.24488 62.2016 3.04278 58.4535 2.52059ZM62.8334 45.5299C62.8314 47.3241 61.3774 48.7781 59.5832 48.7801H5.41683C3.62263 48.7781 2.16862 47.3241 2.16663 45.5299V10.0292C2.1706 7.32596 4.16515 5.03882 6.84258 4.66739L17.4055 3.20495C27.4209 1.81987 37.5791 1.81987 47.5945 3.20495L58.1604 4.66788C60.8363 5.04081 62.8294 7.32696 62.8334 10.0292V45.5299Z" fill="#084654"/>
<path d="M57.4165 11.9464H36.8333C36.8333 9.5531 34.8932 7.6131 32.5 7.6131C30.1067 7.6131 28.1667 9.5531 28.1667 11.9464H7.58345C5.78925 11.9483 4.33524 13.4024 4.33325 15.1966V43.3633C4.33524 45.1575 5.78925 46.6115 7.58345 46.613H57.4165C59.2107 46.6115 60.6647 45.1575 60.6667 43.3633V15.1966C60.6647 13.4024 59.2107 11.9483 57.4165 11.9464ZM30.3334 11.9464C30.3334 10.7497 31.3034 9.77973 32.5 9.77973C33.6966 9.77973 34.6666 10.7497 34.6666 11.9464L34.6676 18.4468H30.3334V11.9464ZM58.5001 43.3633C58.4996 43.9614 58.0146 44.4459 57.4165 44.4464H7.58345C6.98538 44.4459 6.50038 43.9614 6.49989 43.3633V15.1966C6.50038 14.5985 6.98538 14.114 7.58345 14.113H28.1667V18.4468C28.1682 19.6424 29.1372 20.6119 30.3334 20.6134H34.6666C35.8628 20.6119 36.8318 19.6424 36.8333 18.4468V14.113H57.4165C58.0146 14.114 58.4996 14.5985 58.5001 15.1966V43.3633Z" fill="#084654"/>
<path d="M32.5 30.363C34.2947 30.363 35.7502 28.908 35.7502 27.1133C35.7502 25.3181 34.2947 23.8631 32.5 23.8631C30.7053 23.8631 29.2498 25.3181 29.2498 27.1133C29.2518 28.9075 30.7058 30.3615 32.5 30.363ZM32.5 26.0297C33.0981 26.0297 33.5836 26.5147 33.5836 27.1133C33.5836 27.7114 33.0981 28.1964 32.5 28.1964C31.9019 28.1964 31.4165 27.7114 31.4165 27.1133C31.4174 26.5152 31.9019 26.0302 32.5 26.0297Z" fill="#084654"/>
<path d="M26.0001 8.69666C26.0001 9.29473 25.5151 9.77973 24.9166 9.77973C24.3185 9.77973 23.8335 9.29473 23.8335 8.69666C23.8335 8.0981 24.3185 7.6131 24.9166 7.6131C25.5151 7.6131 26.0001 8.0981 26.0001 8.69666Z" fill="#084654"/>
<path d="M23.8335 24.9467C23.8335 25.5447 23.3485 26.0297 22.7499 26.0297C22.1519 26.0297 21.6669 25.5447 21.6669 24.9467C21.6669 24.3481 22.1519 23.8631 22.7499 23.8631C23.3485 23.8631 23.8335 24.3481 23.8335 24.9467Z" fill="#084654"/>
<path d="M10.8331 18.4468C10.8331 19.0448 10.3481 19.5298 9.75007 19.5298C9.1515 19.5298 8.6665 19.0448 8.6665 18.4468C8.6665 17.8482 9.1515 17.3632 9.75007 17.3632C10.3481 17.3632 10.8331 17.8482 10.8331 18.4468Z" fill="#084654"/>
<path d="M10.8331 22.78C10.8331 23.3781 10.3481 23.8631 9.75007 23.8631C9.1515 23.8631 8.6665 23.3781 8.6665 22.78C8.6665 22.1815 9.1515 21.6965 9.75007 21.6965C10.3481 21.6965 10.8331 22.1815 10.8331 22.78Z" fill="#084654"/>
<path d="M10.8331 27.1133C10.8331 27.7114 10.3481 28.1964 9.75007 28.1964C9.1515 28.1964 8.6665 27.7114 8.6665 27.1133C8.6665 26.5147 9.1515 26.0297 9.75007 26.0297C10.3481 26.0297 10.8331 26.5147 10.8331 27.1133Z" fill="#084654"/>
<path d="M10.8331 31.4466C10.8331 32.0451 10.3481 32.5301 9.75007 32.5301C9.1515 32.5301 8.6665 32.0451 8.6665 31.4466C8.6665 30.8485 9.1515 30.363 9.75007 30.363C10.3481 30.363 10.8331 30.8485 10.8331 31.4466Z" fill="#084654"/>
<path d="M10.8331 35.7798C10.8331 36.3784 10.3481 36.8634 9.75007 36.8634C9.1515 36.8634 8.6665 36.3784 8.6665 35.7798C8.6665 35.1818 9.1515 34.6968 9.75007 34.6968C10.3481 34.6968 10.8331 35.1818 10.8331 35.7798Z" fill="#084654"/>
<path d="M10.8331 40.1131C10.8331 40.7117 10.3481 41.1967 9.75007 41.1967C9.1515 41.1967 8.6665 40.7117 8.6665 40.1131C8.6665 39.515 9.1515 39.03 9.75007 39.03C10.3481 39.03 10.8331 39.515 10.8331 40.1131Z" fill="#084654"/>
<path d="M56.3335 18.4468C56.3335 19.0448 55.8485 19.5298 55.2499 19.5298C54.6519 19.5298 54.1669 19.0448 54.1669 18.4468C54.1669 17.8482 54.6519 17.3632 55.2499 17.3632C55.8485 17.3632 56.3335 17.8482 56.3335 18.4468Z" fill="#084654"/>
<path d="M56.3335 22.78C56.3335 23.3781 55.8485 23.8631 55.2499 23.8631C54.6519 23.8631 54.1669 23.3781 54.1669 22.78C54.1669 22.1815 54.6519 21.6965 55.2499 21.6965C55.8485 21.6965 56.3335 22.1815 56.3335 22.78Z" fill="#084654"/>
<path d="M56.3335 27.1133C56.3335 27.7114 55.8485 28.1964 55.2499 28.1964C54.6519 28.1964 54.1669 27.7114 54.1669 27.1133C54.1669 26.5147 54.6519 26.0297 55.2499 26.0297C55.8485 26.0297 56.3335 26.5147 56.3335 27.1133Z" fill="#084654"/>
<path d="M56.3335 31.4466C56.3335 32.0451 55.8485 32.5301 55.2499 32.5301C54.6519 32.5301 54.1669 32.0451 54.1669 31.4466C54.1669 30.8485 54.6519 30.363 55.2499 30.363C55.8485 30.363 56.3335 30.8485 56.3335 31.4466Z" fill="#084654"/>
<path d="M56.3335 35.7798C56.3335 36.3784 55.8485 36.8634 55.2499 36.8634C54.6519 36.8634 54.1669 36.3784 54.1669 35.7798C54.1669 35.1818 54.6519 34.6968 55.2499 34.6968C55.8485 34.6968 56.3335 35.1818 56.3335 35.7798Z" fill="#084654"/>
<path d="M56.3335 40.1131C56.3335 40.7117 55.8485 41.1967 55.2499 41.1967C54.6519 41.1967 54.1669 40.7117 54.1669 40.1131C54.1669 39.515 54.6519 39.03 55.2499 39.03C55.8485 39.03 56.3335 39.515 56.3335 40.1131Z" fill="#084654"/>
<path d="M19.5002 24.9467C19.5002 25.5447 19.0152 26.0297 18.4166 26.0297C17.8186 26.0297 17.3336 25.5447 17.3336 24.9467C17.3336 24.3481 17.8186 23.8631 18.4166 23.8631C19.0152 23.8631 19.5002 24.3481 19.5002 24.9467Z" fill="#084654"/>
<path d="M23.8335 29.2799C23.8335 29.878 23.3485 30.363 22.7499 30.363C22.1519 30.363 21.6669 29.878 21.6669 29.2799C21.6669 28.6814 22.1519 28.1964 22.7499 28.1964C23.3485 28.1964 23.8335 28.6814 23.8335 29.2799Z" fill="#084654"/>
<path d="M19.5002 29.2799C19.5002 29.878 19.0152 30.363 18.4166 30.363C17.8186 30.363 17.3336 29.878 17.3336 29.2799C17.3336 28.6814 17.8186 28.1964 18.4166 28.1964C19.0152 28.1964 19.5002 28.6814 19.5002 29.2799Z" fill="#084654"/>
<path d="M23.8335 33.6132C23.8335 34.2118 23.3485 34.6968 22.7499 34.6968C22.1519 34.6968 21.6669 34.2118 21.6669 33.6132C21.6669 33.0151 22.1519 32.5301 22.7499 32.5301C23.3485 32.5301 23.8335 33.0151 23.8335 33.6132Z" fill="#084654"/>
<path d="M19.5002 33.6132C19.5002 34.2118 19.0152 34.6968 18.4166 34.6968C17.8186 34.6968 17.3336 34.2118 17.3336 33.6132C17.3336 33.0151 17.8186 32.5301 18.4166 32.5301C19.0152 32.5301 19.5002 33.0151 19.5002 33.6132Z" fill="#084654"/>
<path d="M47.6665 24.9467C47.6665 25.5447 47.1814 26.0297 46.5834 26.0297C45.9848 26.0297 45.4998 25.5447 45.4998 24.9467C45.4998 24.3481 45.9848 23.8631 46.5834 23.8631C47.1814 23.8631 47.6665 24.3481 47.6665 24.9467Z" fill="#084654"/>
<path d="M43.3331 24.9467C43.3331 25.5447 42.8481 26.0297 42.2501 26.0297C41.6515 26.0297 41.1665 25.5447 41.1665 24.9467C41.1665 24.3481 41.6515 23.8631 42.2501 23.8631C42.8481 23.8631 43.3331 24.3481 43.3331 24.9467Z" fill="#084654"/>
<path d="M47.6665 29.2799C47.6665 29.878 47.1814 30.363 46.5834 30.363C45.9848 30.363 45.4998 29.878 45.4998 29.2799C45.4998 28.6814 45.9848 28.1964 46.5834 28.1964C47.1814 28.1964 47.6665 28.6814 47.6665 29.2799Z" fill="#084654"/>
<path d="M43.3331 29.2799C43.3331 29.878 42.8481 30.363 42.2501 30.363C41.6515 30.363 41.1665 29.878 41.1665 29.2799C41.1665 28.6814 41.6515 28.1964 42.2501 28.1964C42.8481 28.1964 43.3331 28.6814 43.3331 29.2799Z" fill="#084654"/>
<path d="M47.6665 33.6132C47.6665 34.2118 47.1814 34.6968 46.5834 34.6968C45.9848 34.6968 45.4998 34.2118 45.4998 33.6132C45.4998 33.0151 45.9848 32.5301 46.5834 32.5301C47.1814 32.5301 47.6665 33.0151 47.6665 33.6132Z" fill="#084654"/>
<path d="M43.3331 33.6132C43.3331 34.2118 42.8481 34.6968 42.2501 34.6968C41.6515 34.6968 41.1665 34.2118 41.1665 33.6132C41.1665 33.0151 41.6515 32.5301 42.2501 32.5301C42.8481 32.5301 43.3331 33.0151 43.3331 33.6132Z" fill="#084654"/>
<path d="M41.1665 8.69666C41.1665 9.29473 40.6815 9.77973 40.0834 9.77973C39.4849 9.77973 38.9999 9.29473 38.9999 8.69666C38.9999 8.0981 39.4849 7.6131 40.0834 7.6131C40.6815 7.6131 41.1665 8.0981 41.1665 8.69666Z" fill="#084654"/>
<path d="M47.8474 19.5298H39.6624C39.0639 19.5298 38.5789 20.0148 38.5789 20.6134C38.5789 21.2115 39.0639 21.6965 39.6624 21.6965H47.8474C48.9925 21.75 49.8797 22.7181 49.8336 23.8631V34.6968C49.8797 35.8418 48.9925 36.8099 47.8474 36.8634H17.1526C16.0075 36.8099 15.1203 35.8418 15.1664 34.6968V23.8631C15.1203 22.7181 16.0075 21.75 17.1526 21.6965H25.3376C25.9361 21.6965 26.4211 21.2115 26.4211 20.6134C26.4211 20.0148 25.9361 19.5298 25.3376 19.5298H17.1526C14.8109 19.5839 12.9537 21.5214 12.9998 23.8631V34.6968C12.9537 37.0385 14.8109 38.976 17.1526 39.03H47.8474C50.1891 38.976 52.0463 37.0385 52.0002 34.6968V23.8631C52.0463 21.5214 50.1891 19.5839 47.8474 19.5298Z" fill="#084654"/>
</svg>
