<svg width="76" height="52" viewBox="0 0 76 52" fill="none" xmlns="http://www.w3.org/2000/svg">
<path d="M53.6778 22.7268V22.845L53.7927 22.8727C57.6174 23.7927 60.4686 27.2406 60.4683 31.3429V43.7273C60.4683 44.6269 59.739 45.3563 58.8393 45.3563H53.8277H53.6777V45.5063V49.8089C53.6777 50.7086 52.9483 51.4379 52.0487 51.4379C51.149 51.4379 50.4197 50.7086 50.4197 49.8089V45.5063V45.3563H50.2697H11.2515H11.1015V45.5063V49.8089C11.1015 50.7086 10.3722 51.4379 9.47256 51.4379C8.57289 51.4379 7.84357 50.7086 7.84357 49.8089V45.5063V45.3563H7.69357H2.68188C1.78222 45.3563 1.05289 44.6269 1.05289 43.7273V31.3429C1.05289 27.2406 3.90404 23.7927 7.72877 22.8727L7.84368 22.845V22.7268V6.12307C7.84368 2.82964 10.5231 0.15 13.8165 0.15H47.7047C50.9981 0.15 53.6778 2.82965 53.6778 6.12307V22.7268ZM50.2698 22.6298H50.4198V22.4798V6.12307C50.4198 4.62595 49.2019 3.4081 47.7048 3.4081H13.8165C12.3195 3.4081 11.1017 4.62595 11.1017 6.12307V22.4797V22.6297H11.2517H17.1307H17.2807V22.4797V19.6732C17.2807 15.106 20.9967 11.39 25.5639 11.39H35.9577C40.5249 11.39 44.2409 15.1059 44.2409 19.6732V22.4798V22.6298H44.3909H50.2698ZM40.833 22.6297H40.983V22.4797V19.6732C40.983 16.9022 38.7286 14.6478 35.9576 14.6479H25.5637C22.7926 14.6479 20.5385 16.9021 20.5385 19.6732V22.4797V22.6297H20.6885H40.833ZM4.31087 41.9483V42.0983H4.46087H57.0603H57.2104V41.9483V31.3429C57.2104 28.3348 54.7633 25.8878 51.7552 25.8878H9.766C6.75791 25.8878 4.31087 28.3348 4.31087 31.3429V41.9483Z" fill="#084654" stroke="white" stroke-width="0.3"/>
<line x1="3.25667" y1="39.0692" x2="57.7106" y2="39.0692" stroke="#084654" stroke-width="1.5"/>
<path d="M66.4029 2C61.1563 2 56.9029 6.25346 56.9029 11.5C56.9029 16.7465 61.1563 21 66.4029 21C71.6495 21 75.9029 16.7465 75.9029 11.5C75.9028 6.25338 71.6494 2 66.4029 2ZM70.5591 13.1299H68.0328V15.6561C68.0328 16.5563 67.3031 17.2861 66.4029 17.2861C65.5027 17.2861 64.7729 16.5563 64.7729 15.6561V13.1299H62.2467C61.3465 13.1299 60.6167 12.4001 60.6167 11.4998C60.6167 10.5996 61.3464 9.86981 62.2467 9.86981H64.7729V7.34358C64.7729 6.44335 65.5027 5.71355 66.4029 5.71355C67.3032 5.71355 68.0328 6.44335 68.0328 7.34358V9.86981H70.5591C71.4593 9.86981 72.1891 10.5996 72.1891 11.4998C72.189 12.4002 71.4594 13.1299 70.5591 13.1299Z" fill="#084654"/>
</svg>
