<svg width="61" height="63" viewBox="0 0 61 63" fill="none" xmlns="http://www.w3.org/2000/svg">
<path d="M36.6 7.34998C30.3984 7.34998 25.0101 11.4449 23.0783 17.5349C22.875 18.1649 23.18 18.69 23.6883 18.8999C23.79 18.8999 23.8917 18.8999 23.9933 18.8999C24.5017 18.8999 24.9083 18.5849 25.0099 18.1649C26.6367 12.9149 31.3132 9.44987 36.5999 9.44987C37.2099 9.44987 37.6165 9.02992 37.6165 8.39993C37.6167 7.76994 37.21 7.34998 36.6 7.34998Z" fill="#084654"/>
<path d="M59.9834 51.45C60.5934 51.45 61 51.03 61 50.4V26.25C61 25.62 60.5934 25.2 59.9834 25.2H57.95V11.55C57.95 11.5415 57.9492 11.5334 57.9491 11.5249C57.9387 10.7282 57.8275 9.93162 57.4418 9.135C57.0352 8.40005 56.9334 7.77006 56.9334 7.24502V2.10001C56.9334 0.944987 56.0184 0 54.9001 0H50.8334C49.715 0 48.8 0.944987 48.8 2.10001V7.24502C48.8 7.49109 48.7842 7.72115 48.741 7.95383C45.6105 5.0617 41.769 3.41053 37.6167 3.17898V1.04994C37.6167 0.419952 37.21 0 36.6 0C35.9901 0 35.5834 0.419952 35.5834 1.04994V3.17985C26.3572 3.70827 18.898 11.3797 18.3355 20.8949H18.3C17.8934 20.8949 17.5884 21.105 17.385 21.42C17.2834 21.7349 17.1817 22.1549 17.385 22.4699L18.7066 25.1999H16.3581L13.2166 14.385C13.0132 13.965 12.6066 13.65 12.2 13.65H6.74771C6.03052 12.9978 5.09167 12.6001 4.0667 12.6001C1.82998 12.5999 0 14.49 0 16.8C0 19.1099 1.82998 21 4.0667 21C5.09167 21 6.03052 20.6023 6.74771 19.9501H8.43839L10.1667 26.5651V50.4C10.1667 51.03 10.5734 51.45 11.1834 51.45H14.2333V53.5792C11.9343 53.8375 10.1666 55.8277 10.1666 58.2749C10.1666 60.9 12.2 63 14.7417 63C17.2834 63 19.3166 60.9 19.3166 58.2749C19.3166 57.3007 19.0361 56.3991 18.5538 55.6499H52.6127C52.1305 56.399 51.8499 57.3006 51.8499 58.2749C51.8499 60.9 53.8832 63 56.4249 63C58.9666 63 61 60.9 61 58.2749C61 55.8277 59.2323 53.8374 56.9333 53.5792V51.45H59.9834ZM55.5101 9.97503C55.6068 10.1415 55.6811 10.319 55.7402 10.5001H50.0299C50.0582 10.4298 50.0881 10.3598 50.1218 10.29C50.1375 10.2251 50.1503 10.1603 50.1605 10.0957C50.1811 10.0553 50.2006 10.0144 50.2235 9.97503C50.6301 9.03004 50.8335 8.08505 50.8335 7.24502V6.30004H54.9002V7.24502C54.9001 8.19001 55.1034 9.03004 55.5101 9.97503ZM55.9167 12.5999V14.7H49.8166V12.5999H55.9167ZM50.1856 25.2C50.0812 25.1399 49.9493 25.0951 49.8168 25.0951V16.8001H55.9168V25.2001L50.1856 25.2ZM50.8334 2.10001H54.9001V4.20003H50.8334V2.10001ZM36.6 5.24997C40.8699 5.24997 44.9365 6.9299 47.9864 10.0796C47.8787 10.5171 47.8095 10.9762 47.7904 11.4165C47.7862 11.4599 47.7835 11.5042 47.7835 11.5499V20.8948H20.3419C21.0002 12.1252 27.9928 5.24997 36.6 5.24997ZM19.9266 23.1H47.7833V25.2H20.9434L19.9266 23.1ZM2.03335 16.8C2.03335 15.6449 2.94834 14.7 4.0667 14.7C4.61589 14.7 5.11529 14.9286 5.48206 15.2974C5.51319 15.3451 5.54917 15.3911 5.59168 15.4349C5.75665 15.6053 5.98837 15.9828 6.07001 16.4557C6.07146 16.4643 6.07255 16.4731 6.07388 16.4819C6.08127 16.5283 6.08697 16.5757 6.09121 16.6238C6.09593 16.6821 6.09993 16.7406 6.09993 16.8C6.09993 16.8594 6.09605 16.9179 6.09121 16.9761C6.08697 17.0241 6.08127 17.0716 6.07388 17.1181C6.07255 17.1269 6.07134 17.1356 6.07001 17.1442C5.98837 17.617 5.75653 17.9947 5.59168 18.165C5.54929 18.2088 5.51331 18.255 5.48206 18.3025C5.11517 18.6713 4.61589 18.9 4.0667 18.9C2.94834 18.9 2.03335 17.955 2.03335 16.8ZM9.25164 17.85H8.03165C8.13328 17.535 8.13328 17.1151 8.13328 16.8001C8.13328 16.4851 8.13328 16.0652 8.03165 15.7502H11.4884L14.2333 25.2001H11.9967L10.2684 18.5851C10.065 18.165 9.76 17.85 9.25164 17.85ZM12.2 27.2999H58.9666V49.3499H53.8833V48.2999C53.8833 47.6699 53.4767 47.25 52.8667 47.25C52.2567 47.25 51.8501 47.6699 51.8501 48.2999V49.3499H49.8168V43.0498C49.8168 42.4198 49.4101 41.9999 48.8001 41.9999C48.1901 41.9999 47.7835 42.4198 47.7835 43.0498V49.3499H45.7502V47.2498C45.7502 46.6199 45.3436 46.1999 44.7336 46.1999C44.1236 46.1999 43.717 46.6199 43.717 47.2498V49.3499H28.4667V46.1999C28.4667 45.5699 28.06 45.15 27.45 45.15C26.84 45.15 26.4334 45.5699 26.4334 46.1999V49.3499H24.4001V47.2498C24.4001 46.6199 23.9935 46.1999 23.3835 46.1999C22.7735 46.1999 22.3668 46.6199 22.3668 47.2498V49.3499H20.3335V43.0498C20.3335 42.4198 19.9269 41.9999 19.3169 41.9999C18.7069 41.9999 18.3003 42.4198 18.3003 43.0498V49.3499H16.2669V48.2999C16.2669 47.6699 15.8603 47.25 15.2503 47.25C14.6403 47.25 14.2337 47.6699 14.2337 48.2999V49.3499H12.2V27.2999ZM14.7417 60.9C13.3183 60.9 12.2 59.745 12.2 58.2749C12.2 56.8049 13.3183 55.6499 14.7417 55.6499C16.165 55.6499 17.2834 56.8049 17.2834 58.2749C17.2834 59.745 16.165 60.9 14.7417 60.9ZM58.9668 58.2749C58.9668 59.745 57.8484 60.9 56.4251 60.9C55.0017 60.9 53.8833 59.745 53.8833 58.2749C53.8833 56.8049 55.0017 55.6499 56.4251 55.6499C57.8484 55.6499 58.9668 56.8049 58.9668 58.2749ZM54.9001 53.55H16.2667V51.45H54.9001V53.55Z" fill="#084654"/>
</svg>
