<svg width="65" height="65" viewBox="0 0 65 65" fill="none" xmlns="http://www.w3.org/2000/svg">
<path d="M63.4763 28.9648C64.1401 28.9648 64.6782 28.4815 64.6782 27.8853V1.97747C64.6782 1.38133 64.1401 0.89798 63.4763 0.89798C58.2753 0.89798 50.2549 4.60716 50.2549 9.53394V10.6134H25.014C21.6963 10.6171 19.0084 13.0312 19.0043 16.0109V21.1548C17.8047 22.111 16.9954 23.3998 16.7037 24.8166C9.43274 25.7959 3.90602 31.196 3.42946 37.7853C1.75625 38.2887 0.73741 39.8078 1.02322 41.3717C1.30963 42.9356 2.81675 44.082 4.58094 44.0778H40.6393C42.4035 44.082 43.9106 42.9356 44.197 41.3717C44.4829 39.8078 43.464 38.2887 41.7908 37.7853C41.3142 31.196 35.7875 25.7959 28.5166 24.8166C28.2249 23.3998 27.4156 22.111 26.216 21.1548V17.0904H50.2549V20.3289C50.2549 25.2557 58.2753 28.9648 63.4763 28.9648ZM52.6588 9.53394C52.6588 6.40351 58.2019 3.62465 62.2744 3.1334V26.7294C58.2019 26.2382 52.6588 23.4593 52.6588 20.3289V9.53394ZM25.9994 24.6469H19.2209C19.627 23.551 20.5425 22.4879 21.4082 22.4879H23.8121C24.6813 22.4879 25.5933 23.551 25.9994 24.6469ZM40.6393 41.9188H4.58094C3.91717 41.9188 3.37899 41.4354 3.37899 40.8393C3.37899 40.2431 3.91717 39.7598 4.58094 39.7598H40.6393C41.3031 39.7598 41.8413 40.2431 41.8413 40.8393C41.8413 41.4354 41.3031 41.9188 40.6393 41.9188ZM39.3834 37.6008H5.83688C6.46661 31.4896 12.1712 26.8132 19.0043 26.8059H26.216C33.0491 26.8132 38.7537 31.4896 39.3834 37.6008ZM25.014 14.9314C24.3503 14.9314 23.8121 15.4148 23.8121 16.0109V20.3289H21.4082V16.0109C21.4082 14.2225 23.0227 12.7724 25.014 12.7724H50.2549V14.9314H25.014Z" fill="#084654"/>
<path d="M6.98483 47.3163C6.98483 46.7201 6.44665 46.2368 5.78288 46.2368C5.11911 46.2368 4.58093 46.7201 4.58093 47.3163V48.3958C4.58093 48.9919 5.11911 49.4753 5.78288 49.4753C6.44665 49.4753 6.98483 48.9919 6.98483 48.3958V47.3163Z" fill="#084654"/>
<path d="M11.7926 47.3163C11.7926 46.7201 11.2544 46.2368 10.5907 46.2368C9.92691 46.2368 9.38873 46.7201 9.38873 47.3163V53.7932C9.38873 54.3894 9.92691 54.8727 10.5907 54.8727C11.2544 54.8727 11.7926 54.3894 11.7926 53.7932V47.3163Z" fill="#084654"/>
<path d="M16.6004 47.3163C16.6004 46.7201 16.0622 46.2368 15.3984 46.2368C14.7347 46.2368 14.1965 46.7201 14.1965 47.3163V48.3958C14.1965 48.9919 14.7347 49.4753 15.3984 49.4753C16.0622 49.4753 16.6004 48.9919 16.6004 48.3958V47.3163Z" fill="#084654"/>
<path d="M21.4082 47.3163C21.4082 46.7201 20.87 46.2368 20.2063 46.2368C19.5425 46.2368 19.0043 46.7201 19.0043 47.3163V53.7932C19.0043 54.3894 19.5425 54.8727 20.2063 54.8727C20.87 54.8727 21.4082 54.3894 21.4082 53.7932V47.3163Z" fill="#084654"/>
<path d="M26.216 47.3163C26.216 46.7201 25.6778 46.2368 25.014 46.2368C24.3502 46.2368 23.8121 46.7201 23.8121 47.3163V48.3958C23.8121 48.9919 24.3502 49.4753 25.014 49.4753C25.6778 49.4753 26.216 48.9919 26.216 48.3958V47.3163Z" fill="#084654"/>
<path d="M31.0237 47.3163C31.0237 46.7201 30.4856 46.2368 29.8218 46.2368C29.158 46.2368 28.6198 46.7201 28.6198 47.3163V53.7932C28.6198 54.3894 29.158 54.8727 29.8218 54.8727C30.4856 54.8727 31.0237 54.3894 31.0237 53.7932V47.3163Z" fill="#084654"/>
<path d="M35.8315 47.3163C35.8315 46.7201 35.2933 46.2368 34.6296 46.2368C33.9658 46.2368 33.4276 46.7201 33.4276 47.3163V48.3958C33.4276 48.9919 33.9658 49.4753 34.6296 49.4753C35.2933 49.4753 35.8315 48.9919 35.8315 48.3958V47.3163Z" fill="#084654"/>
<path d="M10.5907 57.0317C9.92691 57.0317 9.38873 57.5151 9.38873 58.1112V61.3497C9.38873 61.9459 9.92691 62.4292 10.5907 62.4292C11.2544 62.4292 11.7926 61.9459 11.7926 61.3497V58.1112C11.7926 57.5151 11.2544 57.0317 10.5907 57.0317Z" fill="#084654"/>
<path d="M20.2063 57.0317C19.5425 57.0317 19.0043 57.5151 19.0043 58.1112V61.3497C19.0043 61.9459 19.5425 62.4292 20.2063 62.4292C20.87 62.4292 21.4082 61.9459 21.4082 61.3497V58.1112C21.4082 57.5151 20.87 57.0317 20.2063 57.0317Z" fill="#084654"/>
<path d="M29.8218 57.0317C29.158 57.0317 28.6198 57.5151 28.6198 58.1112V61.3497C28.6198 61.9459 29.158 62.4292 29.8218 62.4292C30.4856 62.4292 31.0237 61.9459 31.0237 61.3497V58.1112C31.0237 57.5151 30.4856 57.0317 29.8218 57.0317Z" fill="#084654"/>
<path d="M39.4374 57.0317C38.7737 57.0317 38.2355 57.5151 38.2355 58.1112V61.3497C38.2355 61.9459 38.7737 62.4292 39.4374 62.4292C40.1012 62.4292 40.6394 61.9459 40.6394 61.3497V58.1112C40.6394 57.5151 40.1012 57.0317 39.4374 57.0317Z" fill="#084654"/>
<path d="M40.6394 47.3163C40.6394 46.7201 40.1012 46.2368 39.4374 46.2368C38.7737 46.2368 38.2355 46.7201 38.2355 47.3163V53.7932C38.2355 54.3894 38.7737 54.8727 39.4374 54.8727C40.1012 54.8727 40.6394 54.3894 40.6394 53.7932V47.3163Z" fill="#084654"/>
<path d="M6.98483 52.7137C6.98483 52.1176 6.44665 51.6342 5.78288 51.6342C5.11911 51.6342 4.58093 52.1176 4.58093 52.7137V59.1907C4.58093 59.7868 5.11911 60.2702 5.78288 60.2702C6.44665 60.2702 6.98483 59.7868 6.98483 59.1907V52.7137Z" fill="#084654"/>
<path d="M16.6004 52.7137C16.6004 52.1176 16.0622 51.6342 15.3984 51.6342C14.7347 51.6342 14.1965 52.1176 14.1965 52.7137V59.1907C14.1965 59.7868 14.7347 60.2702 15.3984 60.2702C16.0622 60.2702 16.6004 59.7868 16.6004 59.1907V52.7137Z" fill="#084654"/>
<path d="M26.216 52.7137C26.216 52.1176 25.6778 51.6342 25.014 51.6342C24.3502 51.6342 23.8121 52.1176 23.8121 52.7137V59.1907C23.8121 59.7868 24.3502 60.2702 25.014 60.2702C25.6778 60.2702 26.216 59.7868 26.216 59.1907V52.7137Z" fill="#084654"/>
<path d="M35.8315 52.7137C35.8315 52.1176 35.2933 51.6342 34.6296 51.6342C33.9658 51.6342 33.4276 52.1176 33.4276 52.7137V59.1907C33.4276 59.7868 33.9658 60.2702 34.6296 60.2702C35.2933 60.2702 35.8315 59.7868 35.8315 59.1907V52.7137Z" fill="#084654"/>
<path d="M6.23952 62.5035C6.01767 62.4266 5.77587 62.4081 5.54229 62.4508C5.46893 62.464 5.39674 62.4814 5.32632 62.5035C5.25178 62.5362 5.17901 62.572 5.10858 62.6116C5.04637 62.6516 4.98651 62.6948 4.92958 62.7412C4.82336 62.8461 4.73826 62.9668 4.67722 63.0975C4.60973 63.2256 4.57686 63.3669 4.58097 63.5087C4.5751 63.9483 4.86678 64.3468 5.3181 64.517C5.76883 64.6867 6.28999 64.594 6.63508 64.2825C6.98017 63.9709 7.08053 63.5029 6.88861 63.0986C6.83051 62.9663 6.74483 62.8456 6.63625 62.7423C6.51653 62.6474 6.38272 62.5673 6.23952 62.5035Z" fill="#084654"/>
<path d="M14.5451 62.7423C14.4366 62.8456 14.3509 62.9663 14.2928 63.0986C14.1009 63.5002 14.2012 63.9662 14.5451 64.2751C14.6602 64.3726 14.7946 64.4495 14.9419 64.5017C15.3891 64.6741 15.9079 64.5845 16.2518 64.2751C16.5963 63.9662 16.6961 63.5002 16.5042 63.0986C16.4431 62.9679 16.358 62.8472 16.2518 62.7423C15.77 62.3427 15.027 62.3427 14.5451 62.7423Z" fill="#084654"/>
<path d="M25.6749 62.6126C25.6109 62.571 25.5422 62.5351 25.4706 62.5046C25.3961 62.4814 25.3192 62.4634 25.2412 62.4519C25.0123 62.4097 24.7746 62.4281 24.5574 62.5046C24.4137 62.5683 24.2804 62.6485 24.1607 62.7433C24.0521 62.8466 23.9665 62.9674 23.9084 63.0997C23.7164 63.5013 23.8168 63.9672 24.1607 64.2761C24.2775 64.3715 24.4119 64.448 24.5574 64.5028C25.0047 64.6751 25.5235 64.5855 25.8674 64.2761C26.2119 63.9672 26.3117 63.5013 26.1197 63.0997C26.0587 62.9689 25.9736 62.8482 25.8674 62.7433C25.8081 62.6943 25.7441 62.6506 25.6749 62.6126Z" fill="#084654"/>
<path d="M33.7762 62.7423C33.6677 62.8456 33.582 62.9663 33.5239 63.0986C33.4564 63.2267 33.4235 63.3669 33.4276 63.5087C33.4247 63.7959 33.5503 64.0721 33.7762 64.2751C33.893 64.3705 34.0274 64.4469 34.173 64.5017C34.5427 64.644 34.967 64.6093 35.3015 64.409C35.6361 64.2087 35.8356 63.8697 35.8315 63.5087C35.835 63.3669 35.8022 63.2267 35.7353 63.0986C35.6742 62.9679 35.5891 62.8472 35.4829 62.7423C35.0011 62.3427 34.2581 62.3427 33.7762 62.7423Z" fill="#084654"/>
</svg>
