<svg width="64" height="62" viewBox="0 0 64 62" fill="none" xmlns="http://www.w3.org/2000/svg">
<path d="M60.9704 59.1594C54.9731 59.1594 48.9889 59.1594 42.9916 59.1594C42.9785 59.1594 42.9653 59.1594 42.9522 59.1594C43.2803 59.4874 43.6084 59.8155 43.9365 60.1436C43.9365 55.7473 43.9365 51.3511 43.9365 46.9548C43.9365 38.5297 43.9365 30.1046 43.9365 21.6795C43.9365 16.3909 43.9365 11.0891 43.9365 5.80045C43.9365 5.72171 43.9365 5.62985 43.9365 5.55111C43.6084 5.87919 43.2803 6.20727 42.9522 6.53535C48.9495 6.53535 54.9337 6.53535 60.931 6.53535C60.9441 6.53535 60.9572 6.53535 60.9704 6.53535C60.6423 6.20727 60.3142 5.87919 59.9861 5.55111C59.9861 9.94738 59.9861 14.3437 59.9861 18.7399C59.9861 27.165 59.9861 35.5901 59.9861 44.0152C59.9861 49.3038 59.9861 54.6056 59.9861 59.8943C59.9861 59.973 59.9861 60.0649 59.9861 60.1436C59.9861 61.4165 61.9546 61.4165 61.9546 60.1436C61.9546 55.7473 61.9546 51.3511 61.9546 46.9548C61.9546 38.5297 61.9546 30.1046 61.9546 21.6795C61.9546 16.3909 61.9546 11.0891 61.9546 5.80045C61.9546 5.72171 61.9546 5.62985 61.9546 5.55111C61.9546 5.01306 61.5084 4.56687 60.9704 4.56687C54.9731 4.56687 48.9889 4.56687 42.9916 4.56687C42.9785 4.56687 42.9653 4.56687 42.9522 4.56687C42.4142 4.56687 41.968 5.01306 41.968 5.55111C41.968 9.94738 41.968 14.3437 41.968 18.7399C41.968 27.165 41.968 35.5901 41.968 44.0152C41.968 49.3038 41.968 54.6056 41.968 59.8943C41.968 59.973 41.968 60.0649 41.968 60.1436C41.968 60.6817 42.4142 61.1278 42.9522 61.1278C48.9495 61.1278 54.9337 61.1278 60.931 61.1278C60.9441 61.1278 60.9572 61.1278 60.9704 61.1278C62.2302 61.1278 62.2302 59.1594 60.9704 59.1594Z" fill="#084654"/>
<path d="M42.9391 59.1594C37.5455 59.1594 32.1387 59.1594 26.7451 59.1594C19.3698 59.1594 11.9815 59.1594 4.60624 59.1594C3.97633 59.1594 3.35954 59.1594 2.72962 59.1594C3.0577 59.4874 3.38578 59.8155 3.71386 60.1436C3.71386 55.7473 3.71386 51.3511 3.71386 46.9548C3.71386 38.5297 3.71386 30.1046 3.71386 21.6795C3.71386 16.3909 3.71386 11.0891 3.71386 5.80045C3.71386 5.72171 3.71386 5.62985 3.71386 5.55111C3.38578 5.87919 3.0577 6.20727 2.72962 6.53535C8.12326 6.53535 13.53 6.53535 18.9236 6.53535C26.2989 6.53535 33.6872 6.53535 41.0625 6.53535C41.6924 6.53535 42.3092 6.53535 42.9391 6.53535C42.611 6.20727 42.2829 5.87919 41.9548 5.55111C41.9548 9.94738 41.9548 14.3437 41.9548 18.7399C41.9548 27.165 41.9548 35.5901 41.9548 44.0152C41.9548 49.3038 41.9548 54.6056 41.9548 59.8943C41.9548 59.973 41.9548 60.0649 41.9548 60.1436C41.9548 61.4165 43.9233 61.4165 43.9233 60.1436C43.9233 55.7473 43.9233 51.3511 43.9233 46.9548C43.9233 38.5297 43.9233 30.1046 43.9233 21.6795C43.9233 16.3909 43.9233 11.0891 43.9233 5.80045C43.9233 5.72171 43.9233 5.62985 43.9233 5.55111C43.9233 5.01306 43.4771 4.56687 42.9391 4.56687C37.5455 4.56687 32.1387 4.56687 26.7451 4.56687C19.3698 4.56687 11.9815 4.56687 4.60624 4.56687C3.97633 4.56687 3.35954 4.56687 2.72962 4.56687C2.19157 4.56687 1.74539 5.01306 1.74539 5.55111C1.74539 9.94738 1.74539 14.3437 1.74539 18.7399C1.74539 27.165 1.74539 35.5901 1.74539 44.0152C1.74539 49.3038 1.74539 54.6056 1.74539 59.8943C1.74539 59.973 1.74539 60.0649 1.74539 60.1436C1.74539 60.6817 2.19157 61.1278 2.72962 61.1278C8.12326 61.1278 13.53 61.1278 18.9236 61.1278C26.2989 61.1278 33.6872 61.1278 41.0625 61.1278C41.6924 61.1278 42.3092 61.1278 42.9391 61.1278C44.212 61.1278 44.212 59.1594 42.9391 59.1594Z" fill="#084654"/>
<path d="M62.7158 4.56687C58.7001 4.56687 54.6844 4.56687 50.6555 4.56687C42.3486 4.56687 34.0285 4.56687 25.7215 4.56687C18.7268 4.56687 11.7321 4.56687 4.73747 4.56687C3.49077 4.56687 2.23094 4.56687 0.98424 4.56687C1.31232 4.89495 1.6404 5.22303 1.96848 5.55111C1.96848 4.02882 1.96848 2.50653 1.96848 0.98424C1.6404 1.31232 1.31232 1.6404 0.98424 1.96848C4.99994 1.96848 9.01563 1.96848 13.0445 1.96848C21.3514 1.96848 29.6716 1.96848 37.9785 1.96848C44.9732 1.96848 51.9679 1.96848 58.9625 1.96848C60.2092 1.96848 61.4691 1.96848 62.7158 1.96848C62.3877 1.6404 62.0596 1.31232 61.7315 0.98424C61.7315 2.50653 61.7315 4.02882 61.7315 5.55111C61.7315 6.82406 63.7 6.82406 63.7 5.55111C63.7 4.02882 63.7 2.50653 63.7 0.98424C63.7 0.446189 63.2538 0 62.7158 0C58.7001 0 54.6844 0 50.6555 0C42.3486 0 34.0285 0 25.7215 0C18.7268 0 11.7321 0 4.73747 0C3.49077 0 2.23094 0 0.98424 0C0.446189 0 0 0.446189 0 0.98424C0 2.50653 0 4.02882 0 5.55111C0 6.08916 0.446189 6.53535 0.98424 6.53535C4.99994 6.53535 9.01563 6.53535 13.0445 6.53535C21.3514 6.53535 29.6716 6.53535 37.9785 6.53535C44.9732 6.53535 51.9679 6.53535 58.9625 6.53535C60.2092 6.53535 61.4691 6.53535 62.7158 6.53535C63.9756 6.53535 63.9756 4.56687 62.7158 4.56687Z" fill="#084654"/>
<path d="M46.4036 30.5639C46.4036 32.3618 46.4036 34.1466 46.4036 35.9444C46.4036 37.2174 48.3721 37.2174 48.3721 35.9444C48.3721 34.1466 48.3721 32.3618 48.3721 30.5639C48.3721 29.291 46.4036 29.291 46.4036 30.5639Z" fill="#084654"/>
<path d="M10.1049 60.1436C10.1049 54.855 10.1049 49.5663 10.1049 44.2777C10.1049 36.6662 10.1049 29.0548 10.1049 21.4433C10.1049 20.6428 10.1049 19.8554 10.1049 19.0549C10.1049 17.5063 10.656 16.1022 12.0077 15.236C14.4355 13.6612 17.8475 15.2754 18.2019 18.1363C18.3856 19.6061 18.2281 21.1677 18.2281 22.6375C18.2281 23.9105 20.1966 23.9105 20.1966 22.6375C20.1966 21.1021 20.341 19.4879 20.1441 17.9525C19.7504 14.7898 16.9289 12.467 13.7531 12.6508C10.6167 12.8476 8.13638 15.5641 8.13638 18.6874C8.13638 19.2124 8.13638 19.7373 8.13638 20.2622C8.13638 27.4537 8.13638 34.6452 8.13638 41.8236C8.13638 47.8734 8.13638 53.9101 8.13638 59.9599C8.13638 60.0255 8.13638 60.0911 8.13638 60.1567C8.13638 61.4165 10.1049 61.4165 10.1049 60.1436Z" fill="#084654"/>
<path d="M22.8344 26.4826C20.3672 26.4826 17.9 26.4826 15.4329 26.4826C15.761 26.8107 16.089 27.1388 16.4171 27.4668C16.4171 26.6926 16.3121 25.8264 16.509 25.0784C16.8371 23.858 17.9919 23.6086 19.068 23.6086C20.1572 23.6086 21.2464 23.753 21.7058 24.9078C22.0076 25.669 21.8501 26.6663 21.8501 27.4668C21.8501 28.7398 23.8186 28.7398 23.8186 27.4668C23.8186 26.2201 23.9105 25.0128 23.3724 23.8448C22.6113 22.1913 20.8659 21.6401 19.1992 21.6401C18.5168 21.6401 17.8607 21.6402 17.2045 21.8501C16.2596 22.1651 15.4854 22.8475 14.9736 23.6874C14.2912 24.816 14.4486 26.207 14.4486 27.4668C14.4486 28.0049 14.8948 28.4511 15.4329 28.4511C17.9 28.4511 20.3672 28.4511 22.8344 28.4511C24.1073 28.4511 24.1073 26.4826 22.8344 26.4826Z" fill="#084654"/>
</svg>
