<svg width="73" height="52" viewBox="0 0 73 52" fill="none" xmlns="http://www.w3.org/2000/svg">
<path d="M65.1177 22.6693V22.8975L65.3377 22.9584C69.0631 23.9898 71.8064 27.4085 71.8064 31.456V43.6541C71.8064 44.6703 70.9824 45.4942 69.9662 45.4942H65.4177H65.1177V45.7942V49.6443C65.1177 50.6605 64.2937 51.4845 63.2775 51.4845C62.2613 51.4845 61.4374 50.6605 61.4374 49.6443V45.7942V45.4942H61.1374H10.985H10.685V45.7942V49.6443C10.685 50.6605 9.86106 51.4845 8.84486 51.4845C7.82866 51.4845 7.00468 50.6605 7.00468 49.6443V45.7942V45.4942H6.70468H2.15623C1.14003 45.4942 0.316052 44.6703 0.316052 43.6541V31.456C0.316052 27.4085 3.05915 23.9898 6.78472 22.9584L7.00468 22.8975V22.6693V6.61542C7.00468 3.24178 9.7499 0.496564 13.1235 0.496564H58.9989C62.3725 0.496564 65.1177 3.24178 65.1177 6.61542V22.6693ZM61.1375 22.6381H61.4375V22.3381V6.61542C61.4375 5.27066 60.3438 4.17693 58.999 4.17693H13.1235C11.7788 4.17693 10.685 5.27066 10.685 6.61542V22.3381V22.6381H10.985H15.9998H16.2998V22.3381V18.0421C16.2998 14.4724 19.2046 11.5675 22.7745 11.5675H31.4269C33.1386 11.5675 34.6963 12.2363 35.8559 13.3261L36.0614 13.5192L36.2668 13.3261C37.4264 12.2362 38.984 11.5675 40.6958 11.5675H49.3482C52.9181 11.5675 55.8229 14.4722 55.8229 18.0421V22.3381V22.6381H56.1229H61.1375ZM51.8425 22.6381H52.1425V22.3381V18.0421C52.1425 16.5011 50.8892 15.2479 49.3481 15.2479H40.6957C39.1548 15.2479 37.9014 16.501 37.9014 18.0421V22.3381V22.6381H38.2014H51.8425ZM33.9209 22.6381H34.2209V22.3381V18.0421C34.2209 16.5011 32.9676 15.2479 31.4264 15.2479H22.7741C21.2332 15.2479 19.9798 16.501 19.9798 18.0421V22.3381V22.6381H20.2798H33.9209ZM67.826 41.8139H68.126V41.5139V31.456C68.126 28.6228 65.8215 26.3185 62.9885 26.3185H9.13393C6.30075 26.3185 3.99641 28.623 3.99641 31.456V41.5139V41.8139H4.29641H67.826Z" fill="#084654" stroke="white" stroke-width="0.6"/>
</svg>
