<svg width="65" height="65" viewBox="0 0 65 65" fill="none" xmlns="http://www.w3.org/2000/svg">
<path d="M57.955 0.933685L18.4626 3.38262L3.74499 10.7294H0.38446V20.5252H3.76952L18.4872 27.872L37.4239 29.0475L25.1592 60.4673C24.901 60.9186 24.7653 61.4293 24.7653 61.9489C24.7653 62.4686 24.901 62.9793 25.1592 63.4305C25.4344 63.8199 25.8033 64.1339 26.232 64.3436C26.6606 64.5533 27.1352 64.652 27.6121 64.6305H34.7992C35.8358 64.682 36.8621 64.4039 37.7304 63.8362C38.5987 63.2686 39.2643 62.4406 39.6315 61.4714L54.7416 30.125L57.955 30.3209C62.0269 30.3209 64.0873 25.423 64.0873 15.6273C64.0873 5.83156 62.1005 0.933685 57.955 0.933685ZM2.8374 18.0762V13.1784H4.35822L17.555 6.59073V24.6639L4.35822 18.0762H2.8374ZM37.3012 60.3694C37.1528 60.8991 36.8302 61.3635 36.3852 61.6878C35.9402 62.0121 35.3988 62.1774 34.8483 62.1571H27.6857C27.3668 62.1571 27.3668 62.1571 27.3668 62.1571C27.3063 62.0353 27.2748 61.9012 27.2748 61.7653C27.2748 61.6293 27.3063 61.4952 27.3668 61.3734L39.8768 29.1944L51.8962 29.9536L37.3012 60.3694ZM58.0531 27.872L20.008 25.423V5.83156L58.0286 3.38262C60.3343 3.38262 61.708 7.96213 61.708 15.6273C61.708 23.2925 60.3343 27.872 58.0531 27.872Z" fill="#084654"/>
</svg>
