<svg width="61" height="61" viewBox="0 0 61 61" fill="none" xmlns="http://www.w3.org/2000/svg">
<g clip-path="url(#clip0)">
<path d="M33.0417 50.8382H38.125V60.9998H33.0417V50.8382ZM15.4991 60.9998H22.176L30.8685 50.8382H24.1763L15.4991 60.9998ZM40.3388 50.8382L49.0313 60.9998H55.7082L47.031 50.8382H40.3388ZM61 7.60451C61 9.83101 59.9859 11.8084 58.4583 13.1962V45.7498H10.2073V35.5832H0C2.17058 32.1951 2.58233 28.131 2.58233 21.7158V8.54238C2.58233 3.30147 5.94242 0.175216 10.0879 0.0557574C10.0447 -0.0230342 53.286 0.00492412 53.375 0.00492412C57.5865 0.00492412 61 3.39297 61 7.60451ZM12.8634 7.65788C12.8634 6.25742 11.7247 5.11622 10.3217 5.11622C8.42308 5.11622 7.625 6.63867 7.625 8.54238V21.7158C7.625 25.7393 7.625 27.9226 7.04296 30.5049H10.2048V10.1995C11.6078 10.1995 12.8634 9.05834 12.8634 7.65788ZM53.4157 15.2498H15.25V40.6716H53.4157V15.2498ZM53.375 5.08317H17.4765C18.1246 6.8598 18.0814 8.48646 17.474 10.1716H53.375C56.6868 10.1716 56.7935 5.08317 53.375 5.08317ZM26.2656 35.5832C29.5875 29.6255 31.8928 26.5653 35.0445 23.8153L34.6353 22.8748C30.8152 25.2513 28.759 27.0432 25.6505 30.571C23.9959 29.3917 23.0631 28.8478 21.5915 28.1361L20.3333 29.3002C22.8521 31.6334 24.217 33.1711 26.2656 35.5832ZM48.2917 22.8748H38.125V25.4165H48.2917V22.8748ZM48.2917 27.9582H38.125V30.4998H48.2917V27.9582ZM48.2917 33.0415H38.125V35.5832H48.2917V33.0415Z" fill="#084654"/>
</g>
<defs>
<clipPath id="clip0">
<rect width="61" height="61" fill="white"/>
</clipPath>
</defs>
</svg>
