<svg width="60" height="60" viewBox="0 0 60 60" fill="none" xmlns="http://www.w3.org/2000/svg">
<path d="M0.790131 40.8651L1.13365 41.3231C3.06998 43.9053 6.19491 45.4454 9.49273 45.4454C12.036 45.4454 14.4899 44.4881 16.3632 42.8186C18.2366 44.4881 20.6905 45.4454 23.2337 45.4454C25.7524 45.4454 28.214 44.5038 30.1042 42.8186C31.9918 44.5015 34.4526 45.4454 36.9746 45.4454C39.5179 45.4454 41.9718 44.4881 43.8451 42.8186C45.7185 44.4881 48.1724 45.4454 50.7156 45.4454C54.0146 45.4454 57.1383 43.9053 59.0747 41.3231L59.4182 40.8651V31.7044H0.790131V40.8651Z" fill="#084654"/>
<path d="M54.2653 21.3987H5.94299C3.10205 21.3987 0.790131 23.7106 0.790131 26.5516V28.2692H59.4182V26.5516C59.4182 23.7106 57.1063 21.3987 54.2653 21.3987Z" fill="#084654"/>
<path d="M11.2104 12.5163V17.9635H14.6456V12.5163C16.6449 11.8075 18.0808 9.89755 18.0808 7.65777V0.787292H7.77511V7.65777C7.77511 9.89755 9.21104 11.8075 11.2104 12.5163Z" fill="#084654"/>
<path d="M45.5627 12.5163V17.9635H48.998V12.5163C50.9973 11.8075 52.4332 9.89755 52.4332 7.65777V0.787292H42.1275V7.65777C42.1275 9.89755 43.5634 11.8075 45.5627 12.5163Z" fill="#084654"/>
<path d="M31.8218 7.78055V4.2229H28.3866V7.78055C23.1284 8.53596 18.9588 12.7063 18.2045 17.9635H42.0038C41.2496 12.7063 37.08 8.53607 31.8218 7.78055Z" fill="#084654"/>
<path d="M35.257 48.7719C33.4638 48.544 31.705 47.96 30.1042 47.0359C28.4724 47.9783 26.7101 48.5486 24.9513 48.7719V55.9801H18.0808V59.4154H42.1275V55.9801H35.257V48.7719Z" fill="#084654"/>
</svg>
