<svg width="56" height="51" viewBox="0 0 56 51" fill="none" xmlns="http://www.w3.org/2000/svg">
<path d="M6.53332 39.6667H12.1333V41.5556H6.53332V39.6667Z" fill="#084654"/>
<path d="M6.53332 24.5555H8.39998V26.4444H6.53332V24.5555Z" fill="#084654"/>
<path d="M6.53332 28.3333H8.39998V33.0556H6.53332V28.3333Z" fill="#084654"/>
<path d="M21.4667 39.6667H27.0667V41.5556H21.4667V39.6667Z" fill="#084654"/>
<path d="M21.4667 24.5555H23.3334V26.4444H21.4667V24.5555Z" fill="#084654"/>
<path d="M21.4667 28.3333H23.3334V33.0556H21.4667V28.3333Z" fill="#084654"/>
<path d="M55.0667 0H32.6667C32.1512 0 31.7333 0.422879 31.7333 0.944444V4.72222C31.7333 4.73836 31.7415 4.75127 31.7424 4.76742C31.7438 4.78356 31.7361 4.79601 31.737 4.81122L34.537 34.9887V43.4444H30.8V14.1667C30.8 13.6451 30.3821 13.2222 29.8667 13.2222H18.6667C18.1512 13.2222 17.7333 13.6451 17.7333 14.1667V43.4444H15.8667V14.1667C15.8667 13.6451 15.4488 13.2222 14.9333 13.2222H3.73333C3.2179 13.2222 2.8 13.6451 2.8 14.1667V43.4444H0.933333C0.417904 43.4444 0 43.8673 0 44.3889V50.0556C0 50.5771 0.417904 51 0.933333 51H55.0667C55.5821 51 56 50.5771 56 50.0556V44.3889C56 43.8673 55.5821 43.4444 55.0667 43.4444H53.2V34.9887L56 4.81122C56 4.79601 55.9945 4.78263 55.9945 4.76742C55.9945 4.75266 56 4.73836 56 4.72222V0.944444C56 0.422879 55.5821 0 55.0667 0ZM19.6 15.1111H28.9333V20.7778H19.6V15.1111ZM19.6 22.6667H28.9333V43.4444H19.6V22.6667ZM4.66667 15.1111H14V20.7778H4.66667V15.1111ZM4.66667 22.6667H14V43.4444H4.66667V22.6667ZM54.1333 45.3333V49.1111H1.86667V45.3333H54.1333ZM51.3333 41.5556V43.4444H36.4V41.5556H51.3333ZM36.4 39.6667V35.8889H51.3333V39.6667H47.6C47.6 38.6235 46.7642 37.7778 45.7333 37.7778H42C40.9691 37.7778 40.1333 38.6235 40.1333 39.6667H36.4ZM51.4163 34H36.3171L33.6934 5.66667H54.0399L51.4163 34ZM54.1333 3.77778H33.6V1.88889H54.1333V3.77778Z" fill="#084654"/>
<path d="M35.8444 12.3723L37.7015 12.1842L38.2621 17.8508L36.405 18.039L35.8444 12.3723Z" fill="#084654"/>
<path d="M35.4717 8.59408L37.3288 8.40592L37.5156 10.2948L35.6585 10.483L35.4717 8.59408Z" fill="#084654"/>
</svg>
