<svg width="63" height="65" viewBox="0 0 63 65" fill="none" xmlns="http://www.w3.org/2000/svg">
<path d="M62.4613 12.0554L45.6632 2.30537C45.5682 2.25031 45.4655 2.21084 45.3587 2.18837L34.8599 0.021709C34.7909 0.00663817 34.7205 -0.000626912 34.6499 4.23487e-05H28.3506C28.2801 -0.000626912 28.2097 0.00663817 28.1407 0.021709L17.6419 2.18837C17.5337 2.2104 17.4295 2.24989 17.3332 2.30537L0.53511 12.0554C0.329229 12.1749 0.168426 12.3625 0.0786939 12.588C-0.0110377 12.8135 -0.0244532 13.0636 0.0406158 13.298L4.24014 28.4646C4.28411 28.6233 4.36262 28.7694 4.46969 28.892C4.57675 29.0146 4.70954 29.1103 4.85791 29.1719C5.00629 29.2334 5.16633 29.2592 5.32582 29.2472C5.48532 29.2352 5.64005 29.1858 5.77821 29.1027L16.802 22.4694V63.9167C16.802 64.204 16.9126 64.4795 17.1095 64.6827C17.3064 64.8859 17.5734 65 17.8518 65H45.1487C45.4272 65 45.6942 64.8859 45.8911 64.6827C46.088 64.4795 46.1986 64.204 46.1986 63.9167V22.4694L57.2224 29.1027C57.3605 29.1858 57.5153 29.2352 57.6748 29.2472C57.8342 29.2592 57.9943 29.2334 58.1427 29.1719C58.291 29.1103 58.4238 29.0146 58.5309 28.892C58.638 28.7694 58.7165 28.6233 58.7604 28.4646L62.96 13.298C63.0247 13.0631 63.0106 12.8127 62.9201 12.5871C62.8296 12.3616 62.6679 12.1742 62.4613 12.0554ZM56.0979 10.8485L52.3184 23.647L45.6737 19.6474C45.5142 19.5524 45.3334 19.5023 45.1493 19.5022C44.9652 19.5021 44.7843 19.552 44.6247 19.6468C44.4652 19.7416 44.3326 19.8781 44.2403 20.0425C44.148 20.2068 44.0992 20.3934 44.0989 20.5834V30.3334H30.4504V28.47L44.7288 4.26729L44.7802 4.27812L56.0979 10.8485ZM44.0989 36.8334H30.4504V32.5H44.0989V36.8334ZM34.5449 2.16671L37.2862 2.73221L31.7596 12.1009L28.4052 2.17646L28.4556 2.16671H34.5449ZM28.1407 18.226L22.1742 3.46671L26.3254 2.61087L30.3454 14.4972L28.1407 18.226ZM2.29051 13.5244L5.65013 11.5744L9.4297 24.3967L5.8916 26.5287L2.29051 13.5244ZM11.2985 23.2744L7.52626 10.4856L18.2214 4.27812L20.0744 3.90004L26.7937 20.5184L23.2545 26.52C23.154 26.6896 23.101 26.8846 23.1012 27.0834V30.3334H18.9017V20.5834C18.9014 20.3934 18.8526 20.2068 18.7603 20.0425C18.668 19.8781 18.5354 19.7416 18.3759 19.6468C18.2163 19.552 18.0354 19.5021 17.8513 19.5022C17.6672 19.5023 17.4863 19.5524 17.3269 19.6474L11.2985 23.2744ZM18.9017 32.5H23.1012V36.8334H18.9017V32.5ZM18.9017 39H23.1012V62.8333H18.9017V39ZM25.201 62.8333V27.3867L39.4794 3.18396L42.5366 3.81554L28.5039 27.6034C28.4034 27.7729 28.3504 27.9679 28.3506 28.1667V62.8333H25.201ZM41.9991 62.8333V53.0833H39.8993V62.8333H37.7996V57.4167H35.6998V62.8333H30.4504V39H44.0989V62.8333H41.9991ZM57.109 26.5287L54.1861 24.7694L57.972 11.9351L60.7101 13.5244L57.109 26.5287Z" fill="#084654"/>
</svg>
