<svg width="46" height="65" viewBox="0 0 46 65" fill="none" xmlns="http://www.w3.org/2000/svg">
<path d="M45.503 3.32325C45.503 1.65459 44.1456 0.297119 42.4764 0.297119H3.81422C2.14556 0.297119 0.788086 1.65459 0.788086 3.32325V55.4054C0.788086 57.0746 2.14582 58.4321 3.81422 58.4321H42.4766C44.1458 58.4321 45.5033 57.0746 45.5033 55.4054V3.32325H45.503ZM41.7188 54.649H4.57227V4.0813H41.7188V54.649Z" fill="#084654" stroke="white" stroke-width="0.5"/>
<path d="M43.2228 60.2155H2.85687C1.81112 60.2155 0.964912 61.0631 0.964912 62.1078C0.964912 63.1525 1.81112 64 2.85687 64H43.2228C44.2675 64 45.115 63.1525 45.115 62.1078C45.115 61.0631 44.2675 60.2155 43.2228 60.2155Z" fill="#084654" stroke="white" stroke-width="0.5"/>
<path d="M10.4255 45.0013C11.4712 45.0013 12.3175 44.1537 12.3175 43.109V18.0364C12.3175 16.9917 11.4712 16.1441 10.4255 16.1441C9.37975 16.1441 8.53354 16.9917 8.53354 18.0364V43.1061C8.53327 44.1537 9.37975 45.0013 10.4255 45.0013Z" fill="#084654" stroke="white" stroke-width="0.5"/>
<path d="M37.6639 15.5354L36.4807 14.8832L37.506 14.3059C37.6952 14.1994 37.7581 13.9667 37.6465 13.7862C37.535 13.6057 37.2914 13.5456 37.1022 13.652L35.6897 14.4472L33.56 13.2732L35.6893 12.0994L37.1022 12.8945C37.1656 12.9302 37.2351 12.9471 37.3037 12.9471C37.4398 12.9471 37.5724 12.8803 37.6465 12.7602C37.758 12.5797 37.695 12.347 37.5059 12.2405L36.4804 11.6634L37.6639 11.011C37.854 10.9062 37.9192 10.6741 37.8094 10.4926C37.6996 10.311 37.4565 10.2488 37.2663 10.3537L36.0831 11.0059L36.0724 9.86926C36.0704 9.65964 35.8903 9.49026 35.6713 9.49315C35.4517 9.49502 35.2753 9.66648 35.2773 9.87609L35.2921 11.4419L33.1626 12.6158V10.2682L34.5903 9.49775C34.7815 9.39462 34.8488 9.16309 34.7408 8.98055C34.6328 8.79806 34.3903 8.73369 34.1991 8.83688L33.1626 9.39624V8.09159C33.1626 7.88198 32.9846 7.71204 32.765 7.71204C32.5455 7.71204 32.3675 7.88198 32.3675 8.09159V9.39624L31.3309 8.83693C31.1397 8.73374 30.8973 8.79806 30.7892 8.9806C30.6812 9.16309 30.7486 9.39467 30.9397 9.4978L32.3674 10.2682V12.6158L30.2379 11.4419L30.2526 9.87609C30.2547 9.66648 30.0783 9.49502 29.8587 9.49315C29.8575 9.49315 29.8563 9.49315 29.8551 9.49315C29.6372 9.49315 29.4596 9.66081 29.4576 9.86931L29.4469 11.0059L28.2636 10.3537C28.0735 10.2488 27.8304 10.3111 27.7206 10.4926C27.6108 10.6741 27.676 10.9062 27.8661 11.011L29.0495 11.6634L28.0238 12.2406C27.8347 12.347 27.7717 12.5797 27.8832 12.7603C27.9574 12.8804 28.0899 12.9472 28.2261 12.9472C28.2947 12.9472 28.3642 12.9303 28.4276 12.8946L29.8406 12.0995L31.97 13.2733L29.8403 14.4473L28.4276 13.652C28.2386 13.5455 27.9947 13.6056 27.8832 13.7861C27.7717 13.9667 27.8346 14.1994 28.0237 14.3058L29.0493 14.8831L27.866 15.5353C27.6759 15.6401 27.6108 15.8723 27.7205 16.0538C27.7942 16.1756 27.9278 16.2436 28.0652 16.2436C28.1326 16.2436 28.201 16.2272 28.2636 16.1927L29.4468 15.5405L29.4576 16.6772C29.4595 16.8856 29.6371 17.0533 29.855 17.0533C29.8562 17.0533 29.8574 17.0533 29.8587 17.0533C30.0782 17.0514 30.2546 16.88 30.2526 16.6703L30.2378 15.1045L32.3674 13.9305V16.2782L30.9397 17.0487C30.7486 17.1518 30.6812 17.3833 30.7892 17.5659C30.8623 17.6894 30.997 17.7587 31.1356 17.7587C31.2019 17.7587 31.2691 17.7429 31.3309 17.7096L32.3675 17.1503V18.4549C32.3675 18.6645 32.5455 18.8344 32.765 18.8344C32.9846 18.8344 33.1626 18.6645 33.1626 18.4549V17.1503L34.1991 17.7096C34.2609 17.7429 34.3281 17.7587 34.3944 17.7587C34.533 17.7587 34.6677 17.6894 34.7408 17.5659C34.8488 17.3834 34.7815 17.1518 34.5903 17.0487L33.1626 16.2782V13.9306L35.2921 15.1045L35.277 16.6703C35.2749 16.8799 35.4512 17.0514 35.6708 17.0533C35.6721 17.0534 35.6733 17.0534 35.6746 17.0534C35.8924 17.0534 36.07 16.8857 36.072 16.6773L36.083 15.5405L37.2664 16.1928C37.329 16.2273 37.3974 16.2437 37.4648 16.2437C37.6022 16.2437 37.7358 16.1756 37.8094 16.0539C37.9192 15.8723 37.8541 15.6402 37.6639 15.5354Z" fill="#084654"/>
</svg>
