<svg width="62" height="61" viewBox="0 0 62 61" fill="none" xmlns="http://www.w3.org/2000/svg">
<g clip-path="url(#clip0)">
<path d="M31.4672 49.0451C31.85 50.0582 32.826 50.6847 33.8637 50.6847C34.1594 50.6847 34.4603 50.6338 34.7539 50.5265C36.0773 50.0425 36.7514 48.5947 36.2594 47.2927L34.3183 42.1537H29.3818V40.1908C30.7757 40.1908 33.8121 40.1908 35.1486 40.1908C35.8831 40.1908 36.4785 39.6049 36.4785 38.8823C36.4785 38.1689 35.8902 37.5739 35.1486 37.5739V30.8804C35.3651 30.8804 35.5688 30.8283 35.7495 30.7381C35.8079 30.2027 36.0533 29.6946 36.4522 29.313C36.3296 28.713 35.7919 28.2636 35.1486 28.2636H25.6737C26.7499 27.7253 30.4596 25.8697 31.6178 25.2903C30.8079 25.4847 29.9758 25.3815 29.2654 25.0346L24.8824 28.4131C25.1016 29.2078 25.2085 30.0469 25.1754 30.8806C25.0987 32.8237 24.2726 34.5927 22.7645 35.7553C22.0693 36.2912 21.2766 36.6595 20.4339 36.8599C21.1239 38.0951 20.7033 37.3423 22.2951 40.1912H26.7217C26.7217 41.1649 26.7217 48.9955 26.7217 50.0252L24.9604 51.7584L25.1294 55.293L28.0526 52.4167L34.1397 58.4072C34.6592 58.9181 35.5012 58.9183 36.0205 58.4074C36.5399 57.8965 36.54 57.068 36.0207 56.5569L29.3815 50.023V43.524L31.4672 49.0451Z" fill="#084654"/>
<path d="M53.2999 32.3683L52.6399 32.3228V41.7653L55.4324 35.952C56.2003 34.3527 55.0916 32.492 53.2999 32.3683Z" fill="#084654"/>
<path d="M38.6471 33.2221C38.155 33.3416 37.6286 33.3039 37.1436 33.0966V36.2671C37.3499 36.4198 37.5433 36.6632 37.6992 36.8467H45.9904V36.8466C45.9904 36.8466 45.9904 31.9238 45.9904 31.4396L38.6471 33.2221Z" fill="#084654"/>
<path d="M43.0074 0.3958C42.8618 0.0636356 42.47 -0.0895795 42.1324 0.0537469L31.6932 4.48233C30.5926 4.13992 29.4106 4.72157 29.0356 5.8017L26.0365 14.4436C25.8911 14.8622 25.8888 15.3 26.0068 15.7017C26.3772 15.444 26.7967 15.2605 27.2371 15.1619C27.4583 14.7257 27.7786 14.33 28.1938 14.01C28.7983 13.5441 29.554 13.2874 30.3212 13.2876C30.5249 13.2876 30.7252 13.3069 30.9215 13.3403L33.0676 7.15609C33.1472 6.92675 33.1817 6.69347 33.1801 6.46424L42.7205 1.22728C43.0134 1.06513 43.1435 0.70652 43.0074 0.3958Z" fill="#084654"/>
<path d="M61.3966 13.8829C60.9335 13.1104 60.0455 12.7396 59.1976 12.8842L52.6817 3.19606C52.4951 2.92085 52.1219 2.82029 51.8174 2.97732C51.4917 3.14519 51.3661 3.54121 51.5368 3.86158L56.9526 14.0279L52.0025 16.8996C45.1051 17.0264 45.4116 17.0373 45.4116 17.0373L36.6192 16.9C36.6682 17.1848 36.6826 17.473 36.6639 17.759C36.6357 18.1889 36.5335 18.6132 36.3565 19.0109C36.7615 20.0752 36.5938 21.2815 35.9111 22.2031C35.6929 22.4976 35.4526 22.7318 35.1736 22.934L35.1193 26.3008H35.1489C36.4942 26.3008 37.6545 27.0914 38.1774 28.2249L40.5458 26.8331C42.2599 25.8257 44.0919 25.0391 46.0037 24.4865C46.0478 23.9848 46.2072 23.5153 46.456 23.1038L46.4869 21.1938L52.6422 21.0807C53.0093 21.0739 53.3683 20.9739 53.6844 20.7904L60.6437 16.7529C61.6572 16.1649 61.9943 14.8799 61.3966 13.8829Z" fill="#084654"/>
<path d="M41.0093 15.3227C43.4477 15.3227 45.4244 13.3779 45.4244 10.9788C45.4244 8.57977 43.4477 6.63495 41.0093 6.63495C38.5709 6.63495 36.5942 8.57977 36.5942 10.9788C36.5942 13.3779 38.5709 15.3227 41.0093 15.3227Z" fill="#084654"/>
<path d="M61.424 25.3628C61.4075 25.1897 61.2645 25.0544 61.0879 25.0449L56.8214 24.8153C54.7489 24.7036 52.6749 24.8866 50.645 25.3602V24.7704C50.645 24.0362 50.0333 23.4619 49.3152 23.4619C48.5815 23.4619 47.9853 24.0521 47.9853 24.7704V26.0029C45.8413 26.5233 43.8767 27.1615 41.5688 28.5179L37.9005 30.6737C37.7486 30.7629 37.686 30.948 37.7533 31.109C37.8208 31.2703 37.998 31.3581 38.1691 31.3165L47.9852 28.9336C47.9852 29.3491 47.9852 48.0928 47.9852 48.2599C47.0651 49.1649 40.5229 55.601 39.552 56.5563C39.0325 57.0672 39.0325 57.8957 39.5518 58.4067C40.0711 58.9177 40.9133 58.9178 41.4325 58.4067C42.1871 57.6645 47.1948 52.738 47.9852 51.9606V53.5671C47.9852 54.2896 48.5806 54.8755 49.315 54.8755C50.0495 54.8755 50.6449 54.2896 50.6449 53.5671V51.9606C51.4358 52.7387 56.4415 57.6638 57.1966 58.4067C57.7161 58.9177 58.5582 58.9175 59.0774 58.4067C59.5968 57.8957 59.5968 57.0672 59.0774 56.5563C58.1256 55.6199 52.0658 49.6578 50.6449 48.2598C50.6449 47.3637 50.6449 29.1036 50.6449 28.2879L61.1539 25.7368C61.3258 25.6951 61.4407 25.5359 61.424 25.3628Z" fill="#084654"/>
<path d="M5.89934 43.6694V58.268C5.89934 59.7768 7.14249 61 8.67614 61C10.2098 61 11.453 59.7768 11.453 58.268V45.2369C9.49329 45.2878 7.5714 44.691 5.89934 43.6694Z" fill="#084654"/>
<path d="M23.3861 58.1394L22.7804 45.4724C22.7606 45.0563 22.6441 44.6501 22.4402 44.2848L18.9616 38.059C18.7673 40.3631 17.7125 42.4462 15.8324 43.8012L17.2632 46.3619L17.8387 58.3963C17.9106 59.9016 19.2088 61.0676 20.743 60.9969C22.2747 60.926 23.4583 59.6468 23.3861 58.1394Z" fill="#084654"/>
<path d="M12.0516 14.7467C14.7004 14.7467 16.8476 12.6341 16.8476 10.0281C16.8476 7.42209 14.7004 5.30951 12.0516 5.30951C9.40292 5.30951 7.25571 7.42209 7.25571 10.0281C7.25571 12.6341 9.40292 14.7467 12.0516 14.7467Z" fill="#084654"/>
<path d="M33.6387 18.8871C34.0289 18.5864 33.7809 18.7781 33.88 18.6998C34.5506 18.1684 34.6297 17.2234 34.1262 16.591C34.1243 16.5886 34.1222 16.5866 34.1202 16.5842C33.6076 15.9479 32.6531 15.8139 31.9776 16.3272C31.9749 16.3294 31.9718 16.331 31.969 16.3332L31.7433 16.5071L31.2891 15.9367C31.2875 15.9346 31.2857 15.9331 31.2841 15.9311C30.8593 15.4046 30.0875 15.3269 29.564 15.7302C29.5639 15.7303 29.5636 15.7304 29.5635 15.7305C29.0292 16.1424 28.9355 16.9025 29.3541 17.4282L29.8085 17.9986L29.4216 18.2968C29.0394 17.8168 29.1386 17.9414 28.9673 17.7264C28.967 17.7262 28.9668 17.7259 28.9665 17.7256C28.5494 17.2028 27.7757 17.1088 27.2417 17.5202C26.7074 17.932 26.6135 18.6922 27.032 19.218L27.4864 19.7885L20.3351 25.3008C20.3326 25.2987 20.3302 25.297 20.3278 25.2949C17.5028 22.9342 13.8705 23.3439 12.6731 26.1263C12.4126 26.7314 11.9514 27.2873 11.3188 27.6654L13.9538 29.6361C14.8403 28.9173 16.1234 29.0784 16.8089 29.9392C17.4921 30.7972 17.3391 32.0376 16.467 32.7098C16.0562 33.0263 15.5592 33.1582 15.077 33.1218C14.9917 33.856 14.7207 34.5617 14.2753 35.1822C13.5735 36.16 12.5043 36.8107 11.3229 37.0072L11.7916 37.5959C12.2103 38.1215 12.1164 38.8818 11.5823 39.2935C11.0478 39.7054 10.2754 39.6132 9.85669 39.0873L7.16102 35.7022L2.46076 32.4367C1.86836 35.4056 3.3072 38.6162 5.56112 40.6753C8.07988 42.9708 11.9648 44.0116 14.6539 41.9389C15.9253 40.959 16.6248 39.4812 16.7526 37.8296C16.8713 36.2965 18.0442 35.0446 19.5816 34.8023C22.4956 34.3428 23.9577 31.0805 22.2299 27.6805L29.3813 22.1682L29.8356 22.7387C29.8359 22.7389 29.8361 22.7391 29.8365 22.7396C30.278 23.2927 31.1209 23.368 31.6542 22.8653C31.6547 22.8648 31.6555 22.8642 31.6561 22.8637C32.1 22.4439 32.167 21.7449 31.7707 21.2471L31.3164 20.6767L31.7032 20.3785L32.1576 20.9489C32.5688 21.4654 33.3412 21.5729 33.8832 21.1551C34.4168 20.7439 34.5119 19.9836 34.0928 19.4573L33.6387 18.8871Z" fill="#084654"/>
<path d="M18.2759 16.2509C16.9225 16.2509 7.24869 16.2509 5.82813 16.2509C2.82343 16.2509 0.366916 18.6558 0.352021 21.605C0.337005 23.44 0.322474 25.2246 0.307701 27.0361V27.038C0.301161 27.8487 0.688783 28.5306 1.2865 28.9458L9.2356 34.4684C10.2769 35.1918 11.7221 34.9509 12.4608 33.9217C13.198 32.8946 12.9492 31.4739 11.9052 30.7486C7.6001 27.7577 8.51727 28.3949 4.94487 25.913C4.97382 22.3672 4.96183 23.8382 4.97975 21.6346C4.97975 21.6346 4.97975 21.6344 4.97975 21.6343C4.98108 21.3853 5.18706 21.1843 5.44015 21.185C5.69324 21.1858 5.89788 21.3878 5.89788 21.6368V23.8996L8.72967 25.8669C9.00322 25.8928 9.50552 25.965 9.56897 25.965C10.0313 25.965 10.4467 25.6939 10.6272 25.2746C11.0446 24.3047 11.6729 23.4919 12.4948 22.8584C13.5888 22.015 14.9376 21.5694 16.395 21.5695C16.9821 21.5695 17.5723 21.642 18.155 21.7813V21.7638C18.155 21.5426 18.3123 21.3514 18.5323 21.3054C18.7524 21.2594 18.9751 21.371 19.0666 21.5732C19.1337 21.7214 19.1754 21.8951 19.1741 22.0974C19.5384 22.2365 19.8971 22.4012 20.247 22.5923L23.4129 20.152C22.5452 17.7515 20.6114 16.2509 18.2759 16.2509Z" fill="#084654"/>
</g>
<defs>
<clipPath id="clip0">
<rect width="62" height="61" fill="white"/>
</clipPath>
</defs>
</svg>
