<svg width="64" height="63" viewBox="0 0 64 63" fill="none" xmlns="http://www.w3.org/2000/svg">
<path d="M52.3389 56.6599C53.3824 56.6599 54.0085 55.8384 54.0085 55.0168C54.0085 54.1953 53.1737 53.3737 52.3389 53.3737C51.5041 53.3737 50.6694 54.1953 50.6694 55.0168C50.6694 55.8384 51.5041 56.6599 52.3389 56.6599ZM59.4345 1H4.75651C2.66956 1 1 2.6431 1 4.69697V58.303C1 60.3569 2.66956 62 4.75651 62H59.2258C61.3128 62 62.9823 60.3569 62.9823 58.303V4.69697C63.191 2.6431 61.5215 1 59.4345 1ZM60.0606 58.5084C60.0606 58.9192 59.8519 59.1246 59.4345 59.1246H4.75651C4.33912 59.1246 4.13042 58.9192 4.13042 58.5084V50.9091H60.0606V58.5084ZM60.0606 47.6229H4.13042V14.5556H60.0606V47.6229ZM60.0606 11.4747H4.13042V4.69697C4.13042 4.2862 4.33912 4.08081 4.75651 4.08081H59.2258C59.6432 4.08081 59.8519 4.2862 59.8519 4.69697V11.4747H60.0606ZM21.6608 56.6599C22.4956 56.6599 23.3303 55.8384 23.3303 55.0168C23.3303 54.1953 22.4956 53.3737 21.6608 53.3737C20.826 53.3737 19.9912 54.1953 19.9912 55.0168C19.9912 55.8384 20.826 56.6599 21.6608 56.6599ZM42.1129 6.13468C41.0694 6.13468 40.4433 6.95623 40.4433 7.77778C40.4433 8.59933 41.2781 9.42088 42.1129 9.42088C42.9477 9.42088 43.7824 8.59933 43.7824 7.77778C43.7824 6.95623 43.1563 6.13468 42.1129 6.13468ZM42.1129 56.6599C42.9477 56.6599 43.7824 55.8384 43.7824 55.0168C43.7824 54.1953 42.9477 53.3737 42.1129 53.3737C41.0694 53.3737 40.4433 54.1953 40.4433 55.0168C40.4433 55.8384 41.2781 56.6599 42.1129 56.6599ZM31.8868 56.6599C32.9303 56.6599 33.5564 55.8384 33.5564 55.0168C33.5564 54.1953 32.7216 53.3737 31.8868 53.3737C31.052 53.3737 30.2173 54.1953 30.2173 55.0168C30.2173 55.8384 31.052 56.6599 31.8868 56.6599ZM11.4347 56.6599C12.4782 56.6599 13.1043 55.8384 13.1043 55.0168C13.1043 54.1953 12.2695 53.3737 11.4347 53.3737C10.6 53.3737 9.76518 54.1953 9.76518 55.0168C9.76518 55.8384 10.6 56.6599 11.4347 56.6599ZM31.8868 6.13468C31.052 6.13468 30.2173 6.95623 30.2173 7.77778C30.2173 8.59933 31.052 9.42088 31.8868 9.42088C32.9303 9.42088 33.5564 8.59933 33.5564 7.77778C33.5564 6.95623 32.9303 6.13468 31.8868 6.13468ZM21.6608 6.13468C20.826 6.13468 19.9912 6.95623 19.9912 7.77778C19.9912 8.59933 20.826 9.42088 21.6608 9.42088C22.4956 9.42088 23.3303 8.59933 23.3303 7.77778C23.3303 6.95623 22.7043 6.13468 21.6608 6.13468ZM25.8347 42.4882C26.0434 42.6936 26.2521 42.6936 26.4608 42.6936C26.8782 42.6936 27.0868 42.4882 27.5042 42.2828L40.8607 31.8081C41.2781 31.6027 41.4868 30.9865 41.4868 30.5758C41.4868 30.165 41.2781 29.7542 40.8607 29.3434L27.5042 18.8687C27.0868 18.4579 26.4608 18.4579 25.8347 18.6633C25.2086 18.8687 24.9999 19.4848 24.9999 20.101V41.0505C24.9999 41.6667 25.2086 42.2828 25.8347 42.4882ZM28.1303 23.3872L37.5216 30.5758L28.1303 37.7643V23.3872ZM52.3389 6.13468C51.5041 6.13468 50.6694 6.95623 50.6694 7.77778C50.6694 8.59933 51.5041 9.42088 52.3389 9.42088C53.3824 9.42088 54.0085 8.59933 54.0085 7.77778C54.0085 6.95623 53.3824 6.13468 52.3389 6.13468ZM11.4347 6.13468C10.6 6.13468 9.76518 6.95623 9.76518 7.77778C9.76518 8.59933 10.6 9.42088 11.4347 9.42088C12.4782 9.42088 13.1043 8.59933 13.1043 7.77778C13.1043 6.95623 12.4782 6.13468 11.4347 6.13468Z" fill="#084654" stroke="#084654"/>
</svg>
