<svg width="62" height="49" viewBox="0 0 62 49" fill="none" xmlns="http://www.w3.org/2000/svg">
<path d="M41.8243 16.4114H57.8087L58.3623 18.6258H41.2707L41.8243 16.4114ZM30.9957 38.4075L34.0748 40.4611C34.5913 40.8042 34.9893 41.2977 35.2159 41.8752H30.9957V38.4075ZM24.3529 33.4476L26.5095 34.1652C27.8668 34.6173 28.7818 35.8871 28.7813 37.3172V41.8752H24.3529V33.4476ZM15.4962 33.0181C15.4962 31.7953 16.4874 30.8041 17.7102 30.8041H19.9246C21.1474 30.8041 22.139 31.7953 22.139 33.0181V41.8752H15.4962V33.0181ZM8.85349 37.3172C8.85302 35.8871 9.76848 34.6173 11.1252 34.1652L13.2818 33.4476V41.8752H8.85349V37.3172ZM3.56043 40.4611L6.63908 38.4075V41.8752H2.41892C2.64544 41.2977 3.04395 40.8042 3.56043 40.4611ZM61.7944 44.0892L61.6736 44.8176C61.324 46.9563 59.4733 48.5246 57.3064 48.5175H4.68502C2.51808 48.5246 0.667412 46.9563 0.317768 44.8176L0.196991 44.0892H61.7944ZM42.5306 37.4464H57.1033L56.5812 41.8752H43.0523L42.5306 37.4464ZM60.8879 29.6969V35.2325H38.7457V29.6969H60.8879ZM41.0968 25.2686H58.5353L58.2749 27.4825H41.3581L41.0968 25.2686ZM59.7807 23.0542H39.8524V20.8398H59.7807V23.0542Z" fill="#084654"/>
<path d="M18.8174 4.23305C13.9261 4.23305 9.96069 8.19849 9.96069 13.0902C9.96069 17.9815 13.9261 21.9469 18.8174 21.9469C23.7091 21.9469 27.6746 17.9815 27.6746 13.0902C27.6689 8.20084 23.7068 4.23869 18.8174 4.23305ZM23.0601 15.9188C22.7208 16.4273 22.0333 16.565 21.5248 16.2257C21.5243 16.2257 21.5243 16.2257 21.5243 16.2253L18.2032 14.0113C17.8953 13.8059 17.7102 13.4601 17.7102 13.0902V7.55466C17.7102 6.94325 18.206 6.44746 18.8174 6.44746C19.4288 6.44746 19.9246 6.94325 19.9246 7.55466V12.4976L22.7532 14.3798C23.2627 14.7181 23.4008 15.4052 23.0625 15.9146C23.062 15.916 23.061 15.9174 23.0601 15.9188Z" fill="#084654"/>
<path d="M53.1379 2.01913C53.1379 1.40772 52.6421 0.911926 52.0307 0.911926C51.4193 0.911926 50.9235 1.40772 50.9235 2.01913C50.9235 2.64135 50.6833 2.90452 50.141 3.4506C48.4859 4.78761 48.2279 7.2135 49.5653 8.86867C49.7364 9.08014 49.9291 9.27329 50.141 9.44436C50.6833 9.98715 50.9235 10.2536 50.9235 10.8758C50.9235 11.4872 51.4193 11.983 52.0307 11.983C52.6421 11.983 53.1379 11.4872 53.1379 10.8758C53.1247 9.71505 52.6012 8.61865 51.7064 7.87895C51.1641 7.33334 50.9235 7.06969 50.9235 6.44748C50.9235 5.82526 51.1641 5.56162 51.7064 5.01601C52.6012 4.2763 53.1247 3.17991 53.1379 2.01913Z" fill="#084654"/>
<path d="M59.7806 2.01913C59.7806 1.40772 59.2848 0.911926 58.6734 0.911926C58.062 0.911926 57.5662 1.40772 57.5662 2.01913C57.5662 2.64135 57.3261 2.90452 56.7838 3.4506C55.1286 4.78761 54.8706 7.2135 56.2076 8.86867C56.3787 9.08014 56.5718 9.27329 56.7838 9.44436C57.3261 9.98715 57.5662 10.2536 57.5662 10.8758C57.5662 11.4872 58.062 11.983 58.6734 11.983C59.2848 11.983 59.7806 11.4872 59.7806 10.8758C59.7675 9.71505 59.244 8.61865 58.3492 7.87895C57.8064 7.33334 57.5662 7.06969 57.5662 6.44748C57.5662 5.82526 57.8064 5.56162 58.3492 5.01601C59.244 4.2763 59.7675 3.17991 59.7806 2.01913Z" fill="#084654"/>
</svg>
