<svg width="65" height="33" viewBox="0 0 65 33" fill="none" xmlns="http://www.w3.org/2000/svg">
<path d="M60.4199 0.700836H4.67989C3.62394 0.700836 2.61125 1.12031 1.86459 1.86697C1.11793 2.61363 0.698456 3.62632 0.698456 4.68227L0.698456 28.5708C0.698456 29.6268 1.11793 30.6395 1.86459 31.3861C2.61125 32.1328 3.62394 32.5523 4.67989 32.5523H60.4199C61.4758 32.5523 62.4885 32.1328 63.2352 31.3861C63.9819 30.6395 64.4013 29.6268 64.4013 28.5708V4.68227C64.4013 3.62632 63.9819 2.61363 63.2352 1.86697C62.4885 1.12031 61.4758 0.700836 60.4199 0.700836ZM8.66131 30.5616V26.5801H48.4756V30.5616H8.66131ZM62.4106 28.5708C62.4106 29.0988 62.2009 29.6052 61.8275 29.9785C61.4542 30.3518 60.9479 30.5616 60.4199 30.5616H50.4663V24.5894H6.6706V30.5616H4.67989C4.15192 30.5616 3.64557 30.3518 3.27224 29.9785C2.89891 29.6052 2.68917 29.0988 2.68917 28.5708V4.68227C2.68917 4.1543 2.89891 3.64795 3.27224 3.27462C3.64557 2.90129 4.15192 2.69155 4.67989 2.69155H60.4199C60.9479 2.69155 61.4542 2.90129 61.8275 3.27462C62.2009 3.64795 62.4106 4.1543 62.4106 4.68227V28.5708Z" fill="#084654" stroke="#084654" stroke-width="0.5"/>
<path d="M58.4292 6.673H6.67058V8.66372H58.4292V6.673Z" fill="#084654"/>
<path d="M58.4292 12.6451H6.67058V14.6358H58.4292V12.6451Z" fill="#084654"/>
<path d="M58.4292 18.6173H6.67058V20.608H58.4292V18.6173Z" fill="#084654"/>
<path d="M56.4385 28.5709C57.5379 28.5709 58.4292 27.6796 58.4292 26.5802C58.4292 25.4807 57.5379 24.5894 56.4385 24.5894C55.339 24.5894 54.4478 25.4807 54.4478 26.5802C54.4478 27.6796 55.339 28.5709 56.4385 28.5709Z" fill="#084654"/>
</svg>
