<svg width="74" height="74" viewBox="0 0 74 74" fill="none" xmlns="http://www.w3.org/2000/svg">
<path fill-rule="evenodd" clip-rule="evenodd" d="M14 4V0H60V4H14ZM0 13H4V59H0V13ZM70 13H74V59H70V13ZM14 70V74H60V70H14ZM12 27C12 18.7157 18.7157 12 27 12H47C55.2843 12 62 18.7157 62 27V47C62 55.2843 55.2843 62 47 62H27C18.7157 62 12 55.2843 12 47V27ZM16 27C16 20.9249 20.9249 16 27 16H47C53.0751 16 58 20.9249 58 27V47C58 53.0751 53.0751 58 47 58H27C20.9249 58 16 53.0751 16 47V27Z" fill="#084654"/>
</svg>
