<svg width="54" height="60" viewBox="0 0 54 60" fill="none" xmlns="http://www.w3.org/2000/svg">
<path d="M41.2496 22.3444C40.3155 25.9159 38.1357 26.7026 36.9727 26.8604C36.2562 28.2928 34.6814 31.22 33.1061 32.6908C32.4764 33.2785 31.6581 33.7745 30.674 34.1651C29.4177 34.6636 28.0907 34.9164 26.7306 34.9164C25.3705 34.9164 24.0435 34.6636 22.7872 34.1651C21.8034 33.7748 20.9848 33.2787 20.3551 32.6908C18.7795 31.2203 17.2047 28.2928 16.4883 26.8604C15.3255 26.7026 13.1457 25.9162 12.2116 22.3444C11.712 20.4344 11.8399 18.8775 12.592 17.7166C12.9245 17.2036 13.3274 16.8542 13.7027 16.6175C13.7038 16.2363 13.7197 15.7589 13.7639 15.216C13.0883 14.2772 12.1699 12.2517 13.3074 8.97306C14.5097 5.50697 17.228 4.9717 18.5401 4.92531C18.9837 4.10072 19.8218 2.92999 21.3436 1.85368C23.0328 0.658246 25.2387 0 27.5546 0C30.4045 0 33.2722 1.00301 35.8475 2.90062C40.0229 5.97719 39.6652 12.8018 39.5628 14.0408C39.7143 15.0795 39.7563 15.9804 39.7583 16.6173C40.1335 16.8539 40.5365 17.2033 40.8689 17.7164C41.621 18.8775 41.7489 20.4342 41.2496 22.3444ZM53.4609 48.9402V58.6275C53.4609 59.3854 52.8463 60 52.0884 60H1.37249C0.6146 60 0 59.3854 0 58.6275V48.9402C0 44.9715 2.38099 41.4547 6.06585 39.9806L18.0655 35.1807C18.4108 35.0429 18.7973 35.0503 19.1369 35.203C19.4762 35.355 19.7394 35.6386 19.8657 35.9883L22.8824 44.3284L23.4797 42.6111L22.5294 40.288C22.3565 39.8648 22.4053 39.383 22.6603 39.0034C22.9153 38.6238 23.3425 38.3959 23.7998 38.3959H29.6614C30.1187 38.3959 30.5461 38.6238 30.8008 39.0034C31.0559 39.383 31.1047 39.8648 30.9318 40.288L29.9815 42.6111L30.5788 44.3284L33.5955 35.9883C33.7218 35.6386 33.985 35.355 34.3243 35.203C34.6639 35.0506 35.0506 35.0432 35.3957 35.1807L47.3953 39.9806C51.0802 41.4547 53.4609 44.9715 53.4609 48.9402ZM46.1549 49.9935C46.1549 49.2356 45.5403 48.621 44.7824 48.621H35.5675C34.8096 48.621 34.195 49.2356 34.195 49.9935V54.2729C34.195 55.0308 34.8096 55.6454 35.5675 55.6454H44.7824C45.5403 55.6454 46.1549 55.0308 46.1549 54.2729V49.9935Z" fill="#084654"/>
</svg>
