<svg width="58" height="57" viewBox="0 0 58 57" fill="none" xmlns="http://www.w3.org/2000/svg">
<path d="M5.67382 25.3903C2.54521 25.3903 0 27.9529 0 31.1031C0 34.2533 2.54521 36.8159 5.67382 36.8159C8.80254 36.8159 11.3476 34.2532 11.3476 31.1031C11.3476 27.9531 8.80254 25.3903 5.67382 25.3903Z" fill="#084654"/>
<path d="M26.4781 0C23.3494 0 20.8043 2.56268 20.8043 5.71277C20.8043 8.86297 23.3495 11.4255 26.4781 11.4255C29.6068 11.4255 32.1519 8.86285 32.1519 5.71277C32.1519 2.56268 29.6067 0 26.4781 0Z" fill="#084654"/>
<path d="M54.2163 40.6246H21.4346V36.816H54.2169C56.3033 36.816 58 35.1076 58 33.0075C58 30.9073 56.3033 29.1988 54.2169 29.1988H45.9635C45.3709 19.065 37.9051 11.4293 34.6796 11.4293C31.8521 11.4293 31.1337 13.7635 29.9292 16.2364C28.982 18.1809 28.7021 18.7437 28.0723 20.0134L21.6338 23.2529C19.8399 24.155 18.8985 26.5194 20.0635 28.5564C21.1102 30.3784 23.3495 30.9081 25.0174 30.0667L32.5826 26.2581C33.194 25.9506 33.7191 25.4561 34.1027 24.8286L36.1314 21.5037L37.4857 25.1597C37.9769 26.4851 38.2804 27.8391 38.3981 29.1988H30.4495C29.4076 32.1525 26.6121 34.2768 23.3257 34.2768C20.1371 34.2768 17.4091 32.278 16.2975 29.4616C14.8898 30.0091 13.8959 31.3731 13.884 32.9793L13.8817 32.9785C13.8817 33.386 13.8817 38.2472 13.8817 40.6246H3.78258C1.69673 40.6246 0 42.3329 0 44.4331C0 46.5333 1.7093 48.2417 3.79516 48.2417V54.5893C3.79516 55.6413 4.62913 56.4935 5.67382 56.4935C6.71861 56.4935 7.56505 55.6411 7.56505 54.5893V48.229H10.3219C9.69236 50.0147 10.4526 52.0498 12.1774 52.9181C14.0059 53.8387 16.2966 53.1414 17.2529 51.2146L18.7293 48.2417H39.0991V50.7807C39.0991 52.8809 40.7833 54.5893 42.8691 54.5893C44.955 54.5893 46.6517 52.8809 46.6517 50.7807V48.2417H50.4468V54.5893C50.4468 55.6413 51.2808 56.4935 52.3255 56.4935C53.3702 56.4935 54.2167 55.6411 54.2167 54.5893V48.2416C56.3028 48.2413 57.9993 46.5331 57.9993 44.4331C57.9994 42.3329 56.3027 40.6246 54.2163 40.6246Z" fill="#084654"/>
</svg>
