<svg width="60" height="57" viewBox="0 0 60 57" fill="none" xmlns="http://www.w3.org/2000/svg">
<path d="M9.9475 36.3893C6.2775 38.9232 4.5275 42.2525 4.37 46.6364H0C0.1725 40.5581 2.75 35.7908 7.8825 32.3941L9.9475 36.3893ZM48.3475 0C43.7175 0 40.3525 2.50282 38.0025 6.78559L46.865 23.9322C55.365 24.5074 60 18.3618 60 12.0788C60 5.34764 54.755 0 48.3475 0ZM11.18 27.7953L15.0725 35.3245L41.42 24.3675L34.63 11.2316L11.18 27.7953ZM23.0925 37.5708C24.675 39.1745 25.0025 41.8406 25.0025 44.1983V57H30V43.7941C30 39.1927 31.655 35.9592 34.3375 32.8942L23.0925 37.5708Z" fill="#084654"/>
</svg>
