<svg width="58" height="45" viewBox="0 0 58 45" fill="none" xmlns="http://www.w3.org/2000/svg">
<path d="M56.5966 0.566345H1.94231C1.42192 0.566345 1 0.988266 1 1.50866V39.2012C1 39.7216 1.42192 40.1436 1.94231 40.1436H3.82694V42.9705C3.82694 43.4909 4.24886 43.9128 4.76926 43.9128H10.4231C10.7197 43.9128 10.999 43.7731 11.177 43.5359L13.7212 40.1436H44.8176L47.3619 43.5359C47.5399 43.7731 47.8191 43.9128 48.1157 43.9128H53.7696C54.29 43.9128 54.7119 43.4909 54.7119 42.9705V40.1436H56.5966C57.1169 40.1436 57.5389 39.7216 57.5389 39.2012V1.50866C57.5389 0.988266 57.1169 0.566345 56.5966 0.566345ZM9.95199 42.0282H5.71157V40.1436H11.3655L9.95199 42.0282ZM52.8273 42.0282H48.5869L47.1734 40.1436H52.8273V42.0282ZM55.6542 38.2589H2.88463V2.45097H55.6542V38.2589Z" fill="#084654" stroke="#084654" stroke-width="0.5"/>
<path d="M45.4254 6.69141H6.75285C6.30792 6.69141 5.94717 7.05729 5.94717 7.50857V32.0235C5.94717 32.4748 6.30792 32.8406 6.75285 32.8406H45.4254C45.8704 32.8406 46.2311 32.4748 46.2311 32.0235V7.50857C46.2311 7.05729 45.8704 6.69141 45.4254 6.69141ZM44.6198 31.2063H7.55853V8.32573H44.6198V31.2063Z" fill="#084654"/>
<path d="M53.2985 25.0665H49.0581V29.307H53.2985V25.0665Z" fill="#084654"/>
<path d="M53.2985 17.9992H49.0581V22.2396H53.2985V17.9992Z" fill="#084654"/>
<path d="M53.2985 10.9318H49.0581V15.1722H53.2985V10.9318Z" fill="#084654"/>
<path d="M41.284 13.7588H39.8705V25.7733H41.284V13.7588Z" fill="#084654"/>
</svg>
