<svg width="49" height="65" viewBox="0 0 49 65" fill="none" xmlns="http://www.w3.org/2000/svg">
<path d="M22.2415 9.68414H11.2798V11.4606H22.2415V9.68414Z" fill="white"/>
<path d="M2.5235 59.7395H31.0627V34.3983C31.0627 31.1588 27.8196 28.4941 23.7333 28.4941H9.85289C5.83145 28.4941 2.5235 31.1066 2.5235 34.3983V59.7395Z" fill="white"/>
<path d="M29.052 58.172H4.46936V34.3983C4.46936 31.9948 6.86925 30.0616 9.8529 30.0616H23.7333C26.717 30.0616 29.1169 31.9948 29.1169 34.3983V58.172H29.052ZM6.41522 56.6045H27.1061V34.3983C27.1061 32.8831 25.5495 31.6291 23.6685 31.6291H9.8529C7.9719 31.6291 6.41522 32.8831 6.41522 34.3983V56.6045Z" fill="#084654"/>
<g opacity="0.3">
<g opacity="0.3">
<path opacity="0.3" d="M28.7276 25.6726L23.7981 23.0601C21.9172 22.0673 20.7496 20.3431 20.7496 18.5144V14.3866H22.2415V9.68414H19.3227V14.3866V18.5144C19.3227 20.3431 20.4902 23.2168 22.3712 24.2618L24.317 25.7248C26.198 26.7176 26.6521 28.4418 26.6521 32.0471V63.8672H28.1439C30.1546 63.8672 31.7762 62.561 31.7762 60.9412V32.0471C31.7762 28.4418 30.6086 26.7176 28.7276 25.6726Z" fill="#62345B"/>
</g>
</g>
<path d="M28.079 64.9122H5.44226C2.71806 64.9122 0.512756 63.1357 0.512756 60.9412V32.0471C0.512756 28.3896 1.61541 26.1951 4.14502 24.8366L9.07452 22.2241C10.6312 21.3881 11.5393 20.0296 11.5393 18.5143V15.4316H11.3447C10.6312 15.4316 10.0474 14.9614 10.0474 14.3866V9.68412C10.0474 9.10937 10.6312 8.63912 11.3447 8.63912H22.3063C23.0198 8.63912 23.6036 9.10937 23.6036 9.68412V14.3866C23.6036 14.9614 23.0198 15.4316 22.3063 15.4316H22.1118V18.5143C22.1118 20.0296 23.0198 21.3881 24.5765 22.2241L29.506 24.8366C32.0356 26.1951 33.1383 28.3896 33.1383 32.0471V60.9412C33.0734 63.0835 30.8681 64.9122 28.079 64.9122ZM12.5771 13.3416H12.7716C13.4851 13.3416 14.0689 13.8119 14.0689 14.3866V18.5143C14.0689 20.7088 12.7068 22.7466 10.4366 23.9483L5.50712 26.5608C4.27474 27.1878 3.04237 28.3896 3.04237 32.0471V60.9412C3.04237 61.9862 4.08016 62.8222 5.3774 62.8222H28.0142C29.3114 62.8222 30.3492 61.9862 30.3492 60.9412V32.0471C30.3492 28.3896 29.1168 27.2401 27.8845 26.5608L22.955 23.9483C20.8145 22.6943 19.5173 20.7088 19.5173 18.5143V14.3866C19.5173 13.8119 20.101 13.3416 20.8145 13.3416H21.0091V10.7291H12.5771V13.3416Z" fill="#084654"/>
<path d="M21.973 15.0659H11.4834C10.8007 15.0659 10.242 14.5956 10.242 14.0209C10.242 13.4461 10.8007 12.9759 11.4834 12.9759H21.973C22.6558 12.9759 23.2144 13.4461 23.2144 14.0209C23.2144 14.5956 22.6558 15.0659 21.973 15.0659Z" fill="#084654"/>
<path d="M26.5872 43.8033H6.8692V49.0805H26.5872V43.8033Z" fill="#084654"/>
<path d="M43.0621 63.8672H23.3441C21.3334 63.8672 19.7119 62.561 19.7119 60.9412V29.0688C19.7119 26.5608 21.4631 24.3141 24.1873 23.2168C25.29 22.7466 26.2629 22.1196 27.0413 21.3358C28.3385 19.9773 28.7925 18.2531 28.5331 16.5289L28.4682 16.0064C28.079 13.6551 28.3385 9.89313 28.9871 7.59413L29.2466 6.75814H27.7547V2.0034H38.7164V6.70589H37.2246L37.484 7.54188C38.1326 9.84088 38.3921 13.6029 38.0029 15.9541L37.9381 16.4766C37.6786 18.1486 38.1326 19.9251 39.4299 21.2836C40.1434 22.0673 41.1163 22.6943 42.2838 23.1646C45.0729 24.2618 46.7593 26.5608 46.7593 29.0166V60.889C46.7593 62.5087 45.1377 63.8672 43.0621 63.8672Z" fill="white"/>
<path d="M46.7593 34.3983H19.7119V59.7395H46.7593V34.3983Z" fill="#084654"/>
<path d="M33.2031 50.5435C36.248 50.5435 38.7164 48.5551 38.7164 46.1023C38.7164 43.6495 36.248 41.661 33.2031 41.661C30.1582 41.661 27.6899 43.6495 27.6899 46.1023C27.6899 48.5551 30.1582 50.5435 33.2031 50.5435Z" fill="white"/>
<g opacity="0.2">
<g opacity="0.2">
<path opacity="0.2" d="M42.219 23.1646C41.1163 22.6943 40.1434 22.0673 39.3651 21.2836C38.0678 19.9251 37.6138 18.2009 37.8732 16.4766L37.9381 15.9541C38.3273 13.6029 38.0678 9.84088 37.4192 7.54189L37.2246 6.70589H38.7164V2.0034H36.5111V6.70589H35.0193L35.2788 7.54189C35.9274 9.84088 36.1868 13.6029 35.7977 15.9541L35.7328 16.4766C35.4733 18.1486 35.7977 19.9774 37.2246 21.2836C39.9488 23.7393 42.3487 24.8888 42.3487 29.0166V60.889C42.3487 62.5087 40.7272 63.815 38.7164 63.815H43.127C45.1378 63.815 46.7593 62.5087 46.7593 60.889V29.0166C46.7593 26.5086 45.008 24.2618 42.219 23.1646Z" fill="#62345B"/>
</g>
</g>
<path d="M43.0621 64.9122H23.3441C20.6199 64.9122 18.4146 63.1357 18.4146 60.9412V29.0688C18.4146 26.1951 20.4253 23.5826 23.6035 22.2763C24.5116 21.9106 25.3548 21.3358 26.0034 20.7088C27.0412 19.6638 27.4952 18.1486 27.2358 16.6856L27.1709 16.1631C26.7818 13.8641 27.0412 10.2066 27.625 7.80313C26.9763 7.75088 26.4575 7.28063 26.4575 6.75814V2.0034C26.4575 1.42865 27.0412 0.958405 27.7547 0.958405H38.7163C39.4298 0.958405 40.0136 1.42865 40.0136 2.0034V6.70589C40.0136 7.22838 39.4947 7.69863 38.8461 7.75088C39.4298 10.1544 39.6244 13.8119 39.3001 16.1109L39.2352 16.6334C38.9758 18.0963 39.4298 19.6116 40.4676 20.6566C41.1162 21.3358 41.8946 21.8583 42.8675 22.2241C46.1106 23.5303 48.0565 26.1428 48.0565 29.0166V60.889C48.0565 63.0835 45.8512 64.9122 43.0621 64.9122ZM29.0519 5.66089H29.2465C29.6357 5.66089 30.0249 5.81764 30.2843 6.07889C30.5438 6.34014 30.6086 6.65364 30.5438 6.96713L30.2843 7.80313C29.7005 9.94538 29.4411 13.6551 29.7654 15.8496L29.8303 16.3721C30.1546 18.4098 29.506 20.3953 28.079 21.9106C27.2358 22.8511 26.0683 23.5826 24.771 24.1051C22.436 25.0456 21.0091 26.9266 21.0091 29.0166V60.889C21.0091 61.934 22.0468 62.77 23.3441 62.77H43.0621C44.3593 62.77 45.3971 61.934 45.3971 60.889V29.0166C45.3971 26.9266 43.9702 25.0456 41.6351 24.1051C40.3379 23.5826 39.2352 22.8511 38.3272 21.9106C36.9002 20.3953 36.2516 18.4098 36.5759 16.3721L36.6408 15.8496C36.9651 13.6551 36.7705 9.99763 36.1219 7.80313L35.8624 6.96713C35.7976 6.65364 35.8624 6.34014 36.1219 6.07889C36.3813 5.81764 36.7705 5.66089 37.1597 5.66089H37.3542V3.0484H29.0519V5.66089Z" fill="#084654"/>
<path d="M38.7163 7.75088H27.7547C27.0412 7.75088 26.4575 7.28063 26.4575 6.70589C26.4575 6.13114 27.0412 5.66089 27.7547 5.66089H38.7163C39.4298 5.66089 40.0136 6.13114 40.0136 6.70589C40.0136 7.28063 39.4298 7.75088 38.7163 7.75088Z" fill="#084654"/>
<path d="M39.819 52.0588H26.6521V54.9847H39.819V52.0588Z" fill="white"/>
<path d="M38.392 41.9223L40.9865 39.8323C36.7056 36.3838 29.7654 36.3838 25.4845 39.8323L28.079 41.9223C30.9329 39.6233 35.5381 39.6233 38.392 41.9223Z" fill="white"/>
</svg>
