<svg width="73" height="40" viewBox="0 0 73 40" fill="none" xmlns="http://www.w3.org/2000/svg">
<path d="M18.8812 16.8224H10.3098L8.35131 3.1108C8.05325 1.16875 6.262 -0.181877 4.31291 0.0651322C2.36383 0.312728 0.966846 2.0682 1.1634 4.02315L2.79155 18.6824C2.99162 20.493 4.0043 22.1135 5.54326 23.0874L0.902893 39.3226L3.21457 39.9832L7.79744 23.9417C8.11486 23.9974 8.43638 24.028 8.75849 24.0321H17.6796V39.6529H20.0828V23.8109C21.7367 23.2283 22.7295 21.5379 22.432 19.8094C22.1351 18.081 20.6349 16.8189 18.8812 16.8224ZM18.8812 21.6289H8.76377C6.92792 21.6277 5.38602 20.2477 5.18302 18.423L3.55487 3.76323C3.51438 3.41824 3.62351 3.07207 3.85468 2.81216C4.08585 2.55224 4.41676 2.4038 4.76469 2.40321C5.36901 2.40791 5.87887 2.85323 5.96629 3.45109L8.07848 18.1948C8.16356 18.7862 8.67048 19.2257 9.26835 19.2257H18.8812C19.5448 19.2257 20.0828 19.7637 20.0828 20.4273C20.0828 21.0908 19.5448 21.6289 18.8812 21.6289Z" fill="#084654"/>
<path d="M68.2672 23.0874C69.8038 22.1141 70.8153 20.4953 71.016 18.687L72.6441 4.02782C72.843 2.0717 71.4461 0.31447 69.4958 0.0668743C67.5455 -0.181308 65.7531 1.17108 65.4562 3.1143L63.5001 16.8224H54.9293C53.1756 16.8189 51.6753 18.0809 51.3779 19.8094C51.081 21.5379 52.0737 23.2282 53.7277 23.8109V39.6529H56.1309V24.032H65.0467C65.3688 24.0279 65.6903 23.9974 66.0078 23.9417L70.5906 39.9832L72.9029 39.3226L68.2672 23.0874ZM65.0467 21.6288H54.9293C54.2657 21.6288 53.7277 21.0908 53.7277 20.4272C53.7277 19.7637 54.2657 19.2256 54.9293 19.2256H64.5421C65.14 19.2256 65.6469 18.7862 65.7314 18.1948L67.8377 3.45108C67.9252 2.85321 68.4356 2.40789 69.0393 2.40319C69.3867 2.40319 69.7176 2.55105 69.9488 2.80979C70.1805 3.06853 70.2908 3.41353 70.2521 3.75852L68.6275 18.4218C68.425 20.2465 66.8831 21.6277 65.0467 21.6288Z" fill="#084654"/>
<path d="M44.1148 32.4433H40.51V7.20962H54.9293C55.5928 7.20962 56.1309 6.6716 56.1309 6.00802V1.2016C56.1309 0.538022 55.5928 0 54.9293 0H18.8812C18.2176 0 17.6796 0.538022 17.6796 1.2016V6.00802C17.6796 6.6716 18.2176 7.20962 18.8812 7.20962H33.3004V32.4433H29.6956C29.032 32.4433 28.494 32.9813 28.494 33.6449V38.4513C28.494 39.1149 29.032 39.6529 29.6956 39.6529H44.1148C44.7784 39.6529 45.3164 39.1149 45.3164 38.4513V33.6449C45.3164 32.9813 44.7784 32.4433 44.1148 32.4433ZM20.0828 4.80641V2.40321H53.7277V4.80641H20.0828ZM38.1068 7.20962V32.4433H35.7036V7.20962H38.1068ZM42.9132 37.2497H30.8972V34.8465H42.9132V37.2497Z" fill="#084654"/>
</svg>
