<svg width="54" height="54" viewBox="0 0 54 54" fill="none" xmlns="http://www.w3.org/2000/svg">
<mask id="path-1-inside-1" fill="white">
<path d="M49.6697 42.4828V15.798H46.5048V21.1975H44.0408V12.7757L40.4944 10.4665V7.60321H37.3295V10.4665L33.7831 12.7757V21.1975H31.0772V11.5467C31.0772 9.2594 29.9232 7.16362 27.9898 5.94085L26.8692 5.23264V1.81604H23.7043V5.23264L22.5841 5.94126C20.6506 7.16362 19.4963 9.25898 19.4963 11.5467V21.1971H16.5238V0H2.48533V3.16488H9.89985L2.1096 19.4449C1.32024 21.0945 0.902893 22.9332 0.902893 24.762C0.902893 31.5549 6.42928 37.0808 13.2217 37.0808H13.3589V42.4828C10.8899 43.1754 9.07341 45.445 9.07341 48.132C9.07341 51.3677 11.706 53.9999 14.9413 53.9999C17.6287 53.9999 19.8979 52.1834 20.5905 49.7144H42.4381C43.1307 52.1834 45.4003 53.9999 48.0873 53.9999C51.323 53.9999 53.9552 51.3677 53.9552 48.132C53.9552 45.445 52.1388 43.1754 49.6697 42.4828ZM36.948 14.4916L38.9119 13.2128L40.8759 14.4916V21.1975H36.948V14.4916ZM22.6611 11.5467C22.6611 10.3507 23.2647 9.25528 24.2757 8.61587L25.2867 7.97647L26.2981 8.61587C27.3092 9.25528 27.9123 10.3507 27.9123 11.5467V21.1971H22.6611V11.5467ZM13.2217 33.916C8.17404 33.916 4.06777 29.8097 4.06777 24.762C4.06777 23.4029 4.378 22.0367 4.96426 20.8107L13.3589 3.26788V33.916H13.2217ZM14.9413 50.835C13.4508 50.835 12.2383 49.6225 12.2383 48.132C12.2383 46.6414 13.4508 45.4289 14.9413 45.4289C16.4319 45.4289 17.6444 46.6414 17.6444 48.132C17.6444 49.6225 16.4319 50.835 14.9413 50.835ZM28.1789 46.5495C26.4362 46.5495 25.0181 45.1319 25.0181 43.3892C25.0181 41.6465 26.4362 40.2288 28.1789 40.2288H37.3044C37.7394 40.2288 38.0933 40.5827 38.0933 41.0178C38.0933 41.4528 37.7394 41.8067 37.3044 41.8067H27.2968V44.9716H37.3044C37.7394 44.9716 38.0933 45.3255 38.0933 45.7606C38.0933 46.1956 37.7394 46.5495 37.3044 46.5495H28.1789ZM25.0181 33.9036C25.0181 32.1609 26.4362 30.7428 28.1789 30.7428H37.3044C37.7394 30.7428 38.0933 31.0967 38.0933 31.5318C38.0933 31.9669 37.7394 32.3208 37.3044 32.3208H27.2968V35.486H37.3044C37.7394 35.486 38.0933 35.8395 38.0933 36.2746C38.0933 36.7096 37.7394 37.0635 37.3044 37.0635H28.1789C26.4362 37.064 25.0181 35.6463 25.0181 33.9036ZM42.4381 46.5495H41.1791C41.231 46.2945 41.2582 46.0308 41.2582 45.7606C41.2582 44.8719 40.9632 44.0504 40.4664 43.3892C40.9632 42.7284 41.2582 41.9069 41.2582 41.0178C41.2582 40.1287 40.9632 39.3076 40.466 38.6464C40.9632 37.9852 41.2582 37.1641 41.2582 36.275C41.2582 35.3859 40.9632 34.5648 40.4664 33.9036C40.9632 33.2424 41.2582 32.4209 41.2582 31.5322C41.2582 29.352 39.4842 27.5784 37.3044 27.5784H28.1789C24.691 27.5784 21.8532 30.4157 21.8532 33.9036C21.8532 35.7909 22.685 37.4867 24.0001 38.6464C22.685 39.8065 21.8532 41.5023 21.8532 43.3892C21.8532 44.5399 22.1639 45.6189 22.7032 46.5495H20.5905C20.0393 44.5844 18.4889 43.034 16.5238 42.4828V24.362H46.5048V42.4828C44.5397 43.034 42.9894 44.5844 42.4381 46.5495ZM48.0873 50.835C46.5967 50.835 45.3842 49.6225 45.3842 48.132C45.3842 46.6414 46.5967 45.4289 48.0873 45.4289C49.5779 45.4289 50.7903 46.6414 50.7903 48.132C50.7903 49.6225 49.5779 50.835 48.0873 50.835Z"/>
</mask>
<path d="M49.6697 42.4828V15.798H46.5048V21.1975H44.0408V12.7757L40.4944 10.4665V7.60321H37.3295V10.4665L33.7831 12.7757V21.1975H31.0772V11.5467C31.0772 9.2594 29.9232 7.16362 27.9898 5.94085L26.8692 5.23264V1.81604H23.7043V5.23264L22.5841 5.94126C20.6506 7.16362 19.4963 9.25898 19.4963 11.5467V21.1971H16.5238V0H2.48533V3.16488H9.89985L2.1096 19.4449C1.32024 21.0945 0.902893 22.9332 0.902893 24.762C0.902893 31.5549 6.42928 37.0808 13.2217 37.0808H13.3589V42.4828C10.8899 43.1754 9.07341 45.445 9.07341 48.132C9.07341 51.3677 11.706 53.9999 14.9413 53.9999C17.6287 53.9999 19.8979 52.1834 20.5905 49.7144H42.4381C43.1307 52.1834 45.4003 53.9999 48.0873 53.9999C51.323 53.9999 53.9552 51.3677 53.9552 48.132C53.9552 45.445 52.1388 43.1754 49.6697 42.4828ZM36.948 14.4916L38.9119 13.2128L40.8759 14.4916V21.1975H36.948V14.4916ZM22.6611 11.5467C22.6611 10.3507 23.2647 9.25528 24.2757 8.61587L25.2867 7.97647L26.2981 8.61587C27.3092 9.25528 27.9123 10.3507 27.9123 11.5467V21.1971H22.6611V11.5467ZM13.2217 33.916C8.17404 33.916 4.06777 29.8097 4.06777 24.762C4.06777 23.4029 4.378 22.0367 4.96426 20.8107L13.3589 3.26788V33.916H13.2217ZM14.9413 50.835C13.4508 50.835 12.2383 49.6225 12.2383 48.132C12.2383 46.6414 13.4508 45.4289 14.9413 45.4289C16.4319 45.4289 17.6444 46.6414 17.6444 48.132C17.6444 49.6225 16.4319 50.835 14.9413 50.835ZM28.1789 46.5495C26.4362 46.5495 25.0181 45.1319 25.0181 43.3892C25.0181 41.6465 26.4362 40.2288 28.1789 40.2288H37.3044C37.7394 40.2288 38.0933 40.5827 38.0933 41.0178C38.0933 41.4528 37.7394 41.8067 37.3044 41.8067H27.2968V44.9716H37.3044C37.7394 44.9716 38.0933 45.3255 38.0933 45.7606C38.0933 46.1956 37.7394 46.5495 37.3044 46.5495H28.1789ZM25.0181 33.9036C25.0181 32.1609 26.4362 30.7428 28.1789 30.7428H37.3044C37.7394 30.7428 38.0933 31.0967 38.0933 31.5318C38.0933 31.9669 37.7394 32.3208 37.3044 32.3208H27.2968V35.486H37.3044C37.7394 35.486 38.0933 35.8395 38.0933 36.2746C38.0933 36.7096 37.7394 37.0635 37.3044 37.0635H28.1789C26.4362 37.064 25.0181 35.6463 25.0181 33.9036ZM42.4381 46.5495H41.1791C41.231 46.2945 41.2582 46.0308 41.2582 45.7606C41.2582 44.8719 40.9632 44.0504 40.4664 43.3892C40.9632 42.7284 41.2582 41.9069 41.2582 41.0178C41.2582 40.1287 40.9632 39.3076 40.466 38.6464C40.9632 37.9852 41.2582 37.1641 41.2582 36.275C41.2582 35.3859 40.9632 34.5648 40.4664 33.9036C40.9632 33.2424 41.2582 32.4209 41.2582 31.5322C41.2582 29.352 39.4842 27.5784 37.3044 27.5784H28.1789C24.691 27.5784 21.8532 30.4157 21.8532 33.9036C21.8532 35.7909 22.685 37.4867 24.0001 38.6464C22.685 39.8065 21.8532 41.5023 21.8532 43.3892C21.8532 44.5399 22.1639 45.6189 22.7032 46.5495H20.5905C20.0393 44.5844 18.4889 43.034 16.5238 42.4828V24.362H46.5048V42.4828C44.5397 43.034 42.9894 44.5844 42.4381 46.5495ZM48.0873 50.835C46.5967 50.835 45.3842 49.6225 45.3842 48.132C45.3842 46.6414 46.5967 45.4289 48.0873 45.4289C49.5779 45.4289 50.7903 46.6414 50.7903 48.132C50.7903 49.6225 49.5779 50.835 48.0873 50.835Z" fill="#084654" stroke="white" stroke-width="1.4" stroke-linejoin="round" mask="url(#path-1-inside-1)"/>
</svg>
