<svg width="60" height="52" viewBox="0 0 60 52" fill="none" xmlns="http://www.w3.org/2000/svg">
<path d="M52.872 22.9234V23.0416L52.9869 23.0692C56.8116 23.9893 59.6628 27.4371 59.6625 31.5395V43.9238C59.6625 44.8235 58.9332 45.5528 58.0336 45.5528H53.0219H52.8719V45.7028V50.0055C52.8719 50.9052 52.1425 51.6345 51.2429 51.6345C50.3432 51.6345 49.6139 50.9052 49.6139 50.0055V45.7028V45.5528H49.4639H10.4458H10.2958V45.7028V50.0055C10.2958 50.9052 9.56644 51.6345 8.66677 51.6345C7.76711 51.6345 7.03778 50.9052 7.03778 50.0055V45.7028V45.5528H6.88778H1.8761C0.976431 45.5528 0.247107 44.8235 0.247107 43.9238V31.5395C0.247107 27.4371 3.09826 23.9893 6.92298 23.0692L7.0379 23.0416V22.9234V6.31964C7.0379 3.0262 9.71732 0.346564 13.0107 0.346564H46.8989C50.1923 0.346564 52.872 3.02621 52.872 6.31964V22.9234ZM49.464 22.8264H49.614V22.6764V6.31964C49.614 4.82251 48.3962 3.60466 46.899 3.60466H13.0107C11.5137 3.60466 10.2959 4.82252 10.2959 6.31964V22.6762V22.8262H10.4459H16.325H16.475V22.6762V19.8697C16.475 15.3026 20.1909 11.5865 24.7582 11.5865H35.152C39.7191 11.5865 43.4352 15.3024 43.4352 19.8697V22.6764V22.8264H43.5852H49.464ZM40.0272 22.8262H40.1772V22.6762V19.8697C40.1772 17.0987 37.9228 14.8444 35.1518 14.8445H24.7579C21.9868 14.8445 19.7327 17.0986 19.7327 19.8697V22.6762V22.8262H19.8827H40.0272ZM3.50509 42.1448V42.2948H3.65509H56.2546H56.4046V42.1448V31.5395C56.4046 28.5314 53.9575 26.0843 50.9494 26.0843H8.96022C5.95212 26.0843 3.50509 28.5314 3.50509 31.5395V42.1448Z" fill="#084654" stroke="white" stroke-width="0.3"/>
</svg>
