<svg width="58" height="58" viewBox="0 0 58 58" fill="none" xmlns="http://www.w3.org/2000/svg">
<path d="M35.0417 12.0834H14.5V45.9167H19.3334V33.8334H35.0417C41.0834 33.8334 45.9166 29 45.9166 22.9584C45.9166 16.9169 41.0834 12.0834 35.0417 12.0834ZM35.0417 29H19.3334V16.9166H35.0417C38.425 16.9166 41.0834 19.5749 41.0834 22.9583C41.0834 26.3417 38.4249 29 35.0417 29Z" fill="#084654"/>
<path d="M50.75 0H7.25C3.14169 0 0 3.14169 0 7.25V50.75C0 54.8583 3.14169 58 7.25 58H50.75C54.8583 58 58 54.8583 58 50.75V7.25C58 3.14169 54.8583 0 50.75 0ZM53.1666 50.75C53.1666 52.2 52.2 53.1666 50.75 53.1666H7.25C5.8 53.1666 4.83337 52.2 4.83337 50.75V7.25C4.83337 5.8 5.8 4.83337 7.25 4.83337H50.75C52.2 4.83337 53.1666 5.8 53.1666 7.25V50.75Z" fill="#084654"/>
</svg>
