<svg width="63" height="65" viewBox="0 0 63 65" fill="none" xmlns="http://www.w3.org/2000/svg">
<path d="M51.1875 31.2305C51.8667 31.2305 52.418 30.6617 52.418 29.9609C52.418 29.2602 51.8667 28.6914 51.1875 28.6914C50.5083 28.6914 49.957 29.2602 49.957 29.9609C49.957 30.6617 50.5083 31.2305 51.1875 31.2305Z" fill="#084654"/>
<path d="M57.3398 11.4258C57.3398 5.12573 52.3718 0 46.2656 0H11.8125C8.42006 0 5.66016 2.84752 5.66016 6.34766V47.7344C5.66016 48.4356 6.21098 49.0039 6.89062 49.0039H8.12109V52.8125C8.12109 53.5137 8.67192 54.082 9.35156 54.082C10.0312 54.082 10.582 53.5137 10.582 52.8125V49.0039H15.5039V58.6523C15.5039 59.3536 16.0547 59.9219 16.7344 59.9219H20.4258V63.7305C20.4258 64.4317 20.9766 65 21.6562 65C22.3359 65 22.8867 64.4317 22.8867 63.7305V59.9219H27.8086V63.7305C27.8086 64.4317 28.3594 65 29.0391 65C29.7187 65 30.2695 64.4317 30.2695 63.7305V59.9219H35.1914V63.7305C35.1914 64.4317 35.7422 65 36.4219 65C37.1015 65 37.6523 64.4317 37.6523 63.7305V59.9219H42.5742V63.7305C42.5742 64.4317 43.125 65 43.8047 65C44.4843 65 45.0352 64.4317 45.0352 63.7305V59.9219H49.957V63.7305C49.957 64.4317 50.5079 65 51.1875 65C51.8671 65 52.418 64.4317 52.418 63.7305V59.9219H56.1094C56.789 59.9219 57.3398 59.3536 57.3398 58.6523C57.3398 57.0431 57.3398 14.1315 57.3398 11.4258ZM17.9648 39.0649C20.5613 40.9508 23.7831 40.7391 26.2383 38.4286C28.0037 36.7673 30.1974 36.7673 31.9629 38.4286C33.3149 39.7006 34.8987 40.3369 36.4834 40.3364C38.0671 40.3364 39.6519 39.7001 41.0039 38.4286C42.7694 36.7673 44.9626 36.7673 46.7285 38.4286C49.1452 40.7024 52.3036 40.9419 54.8784 39.1507V43.535C54.6141 43.7274 54.3564 43.9382 54.1113 44.1698C52.3454 45.8306 50.1522 45.8306 48.3867 44.1698C45.6826 41.6257 42.0493 41.6257 39.3457 44.1698C37.5798 45.8306 35.3866 45.8306 33.6211 44.1698C30.917 41.6257 27.2837 41.6257 24.5801 44.1698C22.8141 45.8311 20.6209 45.8311 18.8545 44.1688C18.5695 43.901 18.2715 43.66 17.9648 43.4462V39.0649ZM54.8789 11.4258V35.9178C54.6141 36.1102 54.3569 36.321 54.1113 36.5526C52.3459 38.2134 50.1522 38.2134 48.3867 36.5526C45.6831 34.0086 42.0498 34.0086 39.3457 36.5526C37.5802 38.2134 35.3866 38.2134 33.6211 36.5526C30.9174 34.0086 27.2842 34.0086 24.5801 36.5526C22.8146 38.2139 20.6209 38.2139 18.8545 36.5516C18.5695 36.2838 18.272 36.0428 17.9648 35.829V6.34766C17.9648 4.95564 17.5323 3.63205 16.7339 2.53906H46.2656C51.0149 2.53906 54.8789 6.52569 54.8789 11.4258ZM8.12109 6.34766C8.12109 4.24747 9.77694 2.53906 11.8125 2.53906C13.8509 2.53906 15.5039 4.244 15.5039 6.34766V46.4648H8.12109V6.34766ZM17.9648 57.3828C17.9648 55.7131 17.9648 47.8217 17.9648 46.6821C20.5613 48.568 23.7831 48.3562 26.2383 46.0458C28.0037 44.3845 30.1974 44.3845 31.9629 46.0458C33.3149 47.3178 34.8987 47.9541 36.4834 47.9536C38.0671 47.9536 39.6519 47.3173 41.0039 46.0458C42.7694 44.3845 44.9626 44.3845 46.7285 46.0458C49.1452 48.3195 52.3036 48.5591 54.8784 46.7678V57.3828H17.9648Z" fill="#084654"/>
<path d="M51.1875 26.1523C51.8671 26.1523 52.418 25.584 52.418 24.8828V11.4258C52.418 10.7246 51.8671 10.1562 51.1875 10.1562C50.5079 10.1562 49.957 10.7246 49.957 11.4258V24.8828C49.957 25.584 50.5079 26.1523 51.1875 26.1523Z" fill="#084654"/>
</svg>
