<svg width="64" height="35" viewBox="0 0 64 35" fill="none" xmlns="http://www.w3.org/2000/svg">
<path d="M59.0208 8.73979H55.7677C54.6707 6.44602 52.9471 4.50943 50.7961 3.15378C48.6451 1.79812 46.1544 1.07874 43.6118 1.07874C41.0692 1.07874 38.5785 1.79812 36.4275 3.15378C34.2765 4.50943 32.5529 6.44602 31.456 8.73979H5.12306C4.10202 8.73979 3.1228 9.1454 2.40082 9.86739C1.67883 10.5894 1.27322 11.5686 1.27322 12.5896L1.27322 29.9139C1.27322 30.9349 1.67883 31.9142 2.40082 32.6362C3.1228 33.3581 4.10202 33.7637 5.12306 33.7637H59.0208C60.0418 33.7637 61.0211 33.3581 61.743 32.6362C62.465 31.9142 62.8706 30.9349 62.8706 29.9139V12.5896C62.8706 11.5686 62.465 10.5894 61.743 9.86739C61.0211 9.1454 60.0418 8.73979 59.0208 8.73979ZM43.6214 2.96504C45.9057 2.96504 48.1387 3.6424 50.038 4.91148C51.9373 6.18056 53.4176 7.98435 54.2918 10.0947C55.166 12.2051 55.3947 14.5274 54.949 16.7678C54.5034 19.0081 53.4034 21.0661 51.7882 22.6813C50.173 24.2965 48.115 25.3965 45.8746 25.8421C43.6343 26.2878 41.312 26.0591 39.2016 25.1849C37.0912 24.3108 35.2874 22.8304 34.0184 20.9311C32.7493 19.0318 32.0719 16.7988 32.0719 14.5146C32.0719 11.4514 33.2887 8.51377 35.4547 6.34781C37.6207 4.18186 40.5583 2.96504 43.6214 2.96504ZM60.9457 29.9139C60.9457 30.4244 60.7429 30.914 60.3819 31.275C60.0209 31.636 59.5313 31.8388 59.0208 31.8388H5.12306C4.61254 31.8388 4.12293 31.636 3.76194 31.275C3.40095 30.914 3.19814 30.4244 3.19814 29.9139V12.5896C3.19814 12.0791 3.40095 11.5895 3.76194 11.2285C4.12293 10.8675 4.61254 10.6647 5.12306 10.6647H30.7052C30.1019 12.6766 29.9773 14.8017 30.3413 16.8704C30.7053 18.9391 31.5479 20.894 32.8018 22.5791C34.0557 24.2642 35.6862 25.6328 37.5631 26.5757C39.44 27.5186 41.5114 28.0096 43.6118 28.0096C45.7123 28.0096 47.7836 27.5186 49.6605 26.5757C51.5374 25.6328 53.1679 24.2642 54.4218 22.5791C55.6757 20.894 56.5183 18.9391 56.8824 16.8704C57.2464 14.8017 57.1217 12.6766 56.5184 10.6647H59.0208C59.5313 10.6647 60.0209 10.8675 60.3819 11.2285C60.7429 11.5895 60.9457 12.0791 60.9457 12.5896V29.9139Z" fill="#084654" stroke="#084654" stroke-width="2"/>
<path d="M16.6726 14.5146H7.04799V16.4395H16.6726V14.5146Z" fill="#084654"/>
<path d="M16.6726 20.2892H7.04799V22.2142H16.6726V20.2892Z" fill="#084654"/>
<path d="M16.6726 26.0641H7.04799V27.989H16.6726V26.0641Z" fill="#084654"/>
<path d="M43.6215 22.2143C42.0986 22.2143 40.6099 21.7627 39.3437 20.9166C38.0775 20.0706 37.0906 18.8681 36.5079 17.4611C35.9251 16.0542 35.7726 14.506 36.0697 13.0125C36.3668 11.5189 37.1001 10.1469 38.177 9.0701C39.2538 7.99328 40.6257 7.25996 42.1193 6.96286C43.6129 6.66577 45.1611 6.81825 46.568 7.40102C47.9749 7.98379 49.1774 8.97068 50.0235 10.2369C50.8696 11.5031 51.3211 12.9917 51.3211 14.5146C51.3211 16.5567 50.5099 18.5151 49.0659 19.9591C47.622 21.4031 45.6635 22.2143 43.6215 22.2143ZM43.6215 8.73983C42.4793 8.73983 41.3628 9.07852 40.4132 9.71306C39.4635 10.3476 38.7233 11.2495 38.2863 12.3047C37.8492 13.3599 37.7348 14.521 37.9577 15.6412C38.1805 16.7614 38.7305 17.7903 39.5381 18.598C40.3457 19.4056 41.3747 19.9556 42.4948 20.1784C43.615 20.4012 44.7762 20.2868 45.8314 19.8498C46.8866 19.4127 47.7885 18.6725 48.423 17.7229C49.0575 16.7732 49.3962 15.6567 49.3962 14.5146C49.3962 12.983 48.7878 11.5142 47.7048 10.4312C46.6218 9.34824 45.153 8.73983 43.6215 8.73983Z" fill="#084654"/>
</svg>
