<svg width="61" height="61" viewBox="0 0 61 61" fill="none" xmlns="http://www.w3.org/2000/svg">
<path d="M45.8786 28.8038C45.1978 27.8557 44.91 26.6662 45.1155 25.4682L45.525 23.0801L43.7903 21.389C43.7639 21.3634 43.74 21.336 43.7144 21.3098C30.4386 32.3846 28.9286 50.1372 29.0732 58.8523C29.0786 59.1699 29.3224 59.4324 29.6388 59.4618C29.9549 59.4912 30.2427 59.278 30.3066 58.9668C33.9687 41.1315 40.8944 32.7019 45.8786 28.8038Z" fill="#084654"/>
<path d="M19.8436 16.8942L15.8374 17.791L14.3049 21.5997C14.2771 21.6688 14.2457 21.7358 14.2147 21.803C20.4674 30.6487 23.7239 48.7087 25.0257 57.8059C25.0563 58.0193 25.2464 58.1727 25.4614 58.1582C25.6764 58.1437 25.844 57.9659 25.8457 57.7505C26.0041 38.1284 23.0024 25.0362 19.9728 16.8608C19.9297 16.8715 19.8874 16.8844 19.8436 16.8942Z" fill="#084654"/>
<path d="M47.2423 48.6655L46.6746 47.8846C46.2152 47.2527 45.9413 46.5331 45.8533 45.7941C41.4832 46.9596 34.9094 49.9419 32.809 57.485C32.6956 57.8923 32.8931 58.3222 33.276 58.5014C33.6591 58.6806 34.1158 58.557 34.3558 58.2089C36.6478 54.885 40.7677 50.4957 46.9119 49.6044C46.9152 49.5949 46.9176 49.5852 46.921 49.5754L47.2423 48.6655Z" fill="#084654"/>
<path d="M15.9922 41.0481C15.5926 41.607 15.061 42.0768 14.4216 42.4094L13.5653 42.8548L13.4467 43.8126C13.4109 44.1011 13.3465 44.3803 13.2593 44.6491C16.9285 48.7937 19.6324 54.4868 21.2664 58.5745C21.3759 58.8485 21.675 58.9954 21.9591 58.9155C22.2431 58.8354 22.4213 58.5543 22.3719 58.2631C20.925 49.7199 18.3944 44.3695 15.9922 41.0481Z" fill="#084654"/>
<path d="M49.7954 21.6927L49.0325 26.1401C49.0021 26.3169 49.0748 26.4958 49.2201 26.6013C49.3022 26.6609 49.3995 26.6913 49.4973 26.6913C49.5724 26.6913 49.6477 26.6734 49.7167 26.637L53.7108 24.5373L57.7047 26.637C57.7737 26.6734 57.849 26.6913 57.9241 26.6913C58.0219 26.6913 58.1192 26.6609 58.2013 26.6013C58.3466 26.4958 58.4193 26.3169 58.3889 26.1401L57.626 21.6927L60.8573 18.5429C60.9859 18.4175 61.0322 18.2301 60.9767 18.0594C60.9213 17.8887 60.7736 17.7643 60.596 17.7385L56.1305 17.0897L54.1335 13.0433C54.054 12.8824 53.89 12.7804 53.7106 12.7804C53.5312 12.7804 53.3672 12.8824 53.2878 13.0433L51.2907 17.0897L46.8252 17.7385C46.6476 17.7643 46.4999 17.8887 46.4445 18.0594C46.389 18.2301 46.4353 18.4175 46.5637 18.5429L49.7954 21.6927Z" fill="#084654"/>
<path d="M18.9757 13.0159C19.1509 12.9767 19.2886 12.8414 19.3309 12.6669C19.3733 12.4925 19.3131 12.3093 19.1754 12.194L14.4241 8.21876L15.0054 2.05132C15.0223 1.87268 14.936 1.6998 14.7834 1.60561C14.7075 1.55891 14.6217 1.53546 14.536 1.53546C14.449 1.53546 14.3621 1.55951 14.2856 1.6074L9.03664 4.89768L3.35048 2.43921C3.29027 2.41318 3.22669 2.40046 3.1635 2.40046C3.05361 2.40046 2.94491 2.43881 2.85807 2.51253C2.72116 2.62878 2.66234 2.81259 2.70606 2.98666L4.21329 8.99533L0.117828 13.6432C-0.000803493 13.7779 -0.0327962 13.9683 0.0355609 14.1342C0.103918 14.3004 0.260504 14.4132 0.439544 14.4254L6.6199 14.8488L9.77486 20.1801C9.86011 20.3241 10.0149 20.4116 10.1806 20.4116C10.1926 20.4116 10.2045 20.4112 10.2166 20.4102C10.3956 20.3967 10.5512 20.2826 10.6184 20.1161L12.9308 14.3691L18.9757 13.0159Z" fill="#084654"/>
<path d="M60.0611 46.7988C60.0352 46.6211 59.9106 46.4737 59.7399 46.4183L56.8348 45.4754L55.9646 42.5475C55.9135 42.3755 55.7691 42.2473 55.5922 42.2171C55.5656 42.2125 55.539 42.2103 55.5125 42.2103C55.3631 42.2103 55.2206 42.2815 55.131 42.4049L53.3364 44.8767L50.283 44.7996C50.279 44.7996 50.2751 44.7994 50.2711 44.7994C50.0962 44.7994 49.9353 44.8963 49.8538 45.0515C49.7703 45.2105 49.7842 45.403 49.8898 45.5481L51.6859 48.0187L50.6689 50.899C50.6091 51.0683 50.6506 51.2567 50.776 51.3853C50.8662 51.4777 50.9884 51.5276 51.1136 51.5276C51.1623 51.5276 51.2116 51.52 51.2595 51.5045L54.1643 50.5596L56.5894 52.4168C56.6732 52.481 56.7744 52.514 56.8761 52.514C56.9472 52.514 57.0186 52.4979 57.0849 52.4653C57.2459 52.3858 57.3478 52.2219 57.3476 52.0422L57.3467 48.9878L59.8624 47.2554C60.0098 47.1535 60.0869 46.9764 60.0611 46.7988Z" fill="#084654"/>
<path d="M12.5878 38.8837C12.747 38.8008 12.8456 38.6349 12.8418 38.4553C12.838 38.2758 12.7327 38.1141 12.57 38.038L9.80288 36.7444L9.29994 33.7317C9.27033 33.5546 9.14295 33.4098 8.97107 33.3579C8.92616 33.3444 8.88026 33.3378 8.83495 33.3378C8.70638 33.3378 8.5808 33.3905 8.49038 33.4875L6.40509 35.7194L3.38426 35.2667C3.36082 35.2632 3.33757 35.2616 3.31432 35.2616C3.16131 35.2616 3.01605 35.3361 2.92722 35.4641C2.82469 35.6115 2.81495 35.8042 2.90179 35.9614L4.38001 38.6345L3.01605 41.3676C2.93597 41.5282 2.95385 41.7203 3.06235 41.8634C3.15256 41.9822 3.29206 42.0498 3.43792 42.0498C3.46772 42.0498 3.49773 42.047 3.52754 42.0412L6.52651 41.4614L8.7044 43.6031C8.79401 43.6913 8.91344 43.7384 9.03525 43.7384C9.08731 43.7384 9.13958 43.7299 9.19025 43.7122C9.35975 43.6532 9.48096 43.503 9.50302 43.3249L9.87839 40.2936L12.5878 38.8837Z" fill="#084654"/>
<path d="M32.6334 13.3187L32.2667 12.4259L31.3233 12.2218C30.6188 12.0694 29.9825 11.7562 29.45 11.3224C27.9296 15.3663 26.8651 21.6211 27.9847 31.0292C28.0449 31.5355 28.7835 31.5295 28.8316 31.022C29.2455 26.6579 30.3122 19.6012 33.0356 14.0778C32.88 13.8411 32.7441 13.5882 32.6334 13.3187Z" fill="#084654"/>
<path d="M33.9785 2.5014L34.2869 5.54031L31.9583 7.5171C31.8214 7.63335 31.7624 7.81696 31.8061 7.99123C31.8497 8.1653 31.9883 8.29963 32.1638 8.33759L35.1493 8.9834L36.3098 11.8089C36.3779 11.975 36.5345 12.0879 36.7135 12.1002C36.7245 12.101 36.7352 12.1014 36.7459 12.1014C36.9128 12.1014 37.0686 12.0128 37.1535 11.8671L38.6903 9.22742L41.7362 8.99692C41.9152 8.9834 42.071 8.86934 42.138 8.70282C42.205 8.5363 42.1718 8.34613 42.0522 8.2124L40.0165 5.93515L40.7385 2.96718C40.781 2.79271 40.7206 2.6093 40.5829 2.49405C40.4964 2.42171 40.3887 2.38396 40.28 2.38396C40.2157 2.38396 40.1509 2.39707 40.0899 2.4241L37.295 3.65632L34.6952 2.05251C34.6193 2.00561 34.5335 1.98236 34.4476 1.98236C34.3608 1.98236 34.2737 2.00641 34.1972 2.05429C34.0452 2.14948 33.9604 2.32276 33.9785 2.5014Z" fill="#084654"/>
</svg>
