<svg width="53" height="53" viewBox="0 0 53 53" fill="none" xmlns="http://www.w3.org/2000/svg">
<path d="M48.5833 0H4.41667C3.24572 0.00140261 2.12314 0.467179 1.29516 1.29516C0.467179 2.12314 0.00140261 3.24572 0 4.41667V43.2833C0.00140261 44.4543 0.467179 45.5769 1.29516 46.4048C2.12314 47.2328 3.24572 47.6986 4.41667 47.7H5.3V52.1167C5.3 52.3509 5.39307 52.5756 5.55872 52.7413C5.72438 52.9069 5.94906 53 6.18333 53H13.25C13.4843 53 13.709 52.9069 13.8746 52.7413C14.0403 52.5756 14.1333 52.3509 14.1333 52.1167V47.7H38.8667V52.1167C38.8667 52.3509 38.9597 52.5756 39.1254 52.7413C39.291 52.9069 39.5157 53 39.75 53H46.8167C47.0509 53 47.2756 52.9069 47.4413 52.7413C47.6069 52.5756 47.7 52.3509 47.7 52.1167V47.7H48.5833C49.7543 47.6986 50.8769 47.2328 51.7048 46.4048C52.5328 45.5769 52.9986 44.4543 53 43.2833V4.41667C52.9986 3.24572 52.5328 2.12314 51.7048 1.29516C50.8769 0.467179 49.7543 0.00140261 48.5833 0ZM12.3667 51.2333H7.06667V47.7H12.3667V51.2333ZM45.9333 51.2333H40.6333V47.7H45.9333V51.2333ZM51.2333 43.2833C51.2333 43.9862 50.9541 44.6602 50.4572 45.1572C49.9602 45.6541 49.2862 45.9333 48.5833 45.9333H4.41667C3.71384 45.9333 3.03981 45.6541 2.54283 45.1572C2.04586 44.6602 1.76667 43.9862 1.76667 43.2833V4.41667C1.76667 3.71384 2.04586 3.03981 2.54283 2.54283C3.03981 2.04586 3.71384 1.76667 4.41667 1.76667H48.5833C49.2862 1.76667 49.9602 2.04586 50.4572 2.54283C50.9541 3.03981 51.2333 3.71384 51.2333 4.41667V43.2833Z" fill="#084654"/>
<path d="M47.7 17.6667V13.25C47.7 12.7815 47.5139 12.3321 47.1826 12.0008C46.8512 11.6695 46.4019 11.4833 45.9333 11.4833V6.18333C45.9333 5.94906 45.8403 5.72438 45.6746 5.55872C45.509 5.39307 45.2843 5.3 45.05 5.3H6.18333C5.94906 5.3 5.72438 5.39307 5.55872 5.55872C5.39307 5.72438 5.3 5.94906 5.3 6.18333V41.5167C5.3 41.7509 5.39307 41.9756 5.55872 42.1413C5.72438 42.3069 5.94906 42.4 6.18333 42.4H45.05C45.2843 42.4 45.509 42.3069 45.6746 42.1413C45.8403 41.9756 45.9333 41.7509 45.9333 41.5167V36.2167C46.4019 36.2167 46.8512 36.0305 47.1826 35.6992C47.5139 35.3679 47.7 34.9185 47.7 34.45V30.0333C47.7 29.5648 47.5139 29.1154 47.1826 28.7841C46.8512 28.4528 46.4019 28.2667 45.9333 28.2667V19.4333C46.4019 19.4333 46.8512 19.2472 47.1826 18.9159C47.5139 18.5846 47.7 18.1352 47.7 17.6667ZM45.9333 17.6667H44.1667V13.25H45.9333V17.6667ZM45.9333 34.45H44.1667V30.0333H45.9333V34.45ZM44.1667 28.2667C43.6981 28.2667 43.2488 28.4528 42.9174 28.7841C42.5861 29.1154 42.4 29.5648 42.4 30.0333V34.45C42.4 34.9185 42.5861 35.3679 42.9174 35.6992C43.2488 36.0305 43.6981 36.2167 44.1667 36.2167V40.6333H7.06667V7.06667H44.1667V11.4833C43.6981 11.4833 43.2488 11.6695 42.9174 12.0008C42.5861 12.3321 42.4 12.7815 42.4 13.25V17.6667C42.4 18.1352 42.5861 18.5846 42.9174 18.9159C43.2488 19.2472 43.6981 19.4333 44.1667 19.4333V28.2667Z" fill="#084654"/>
<path d="M16.7833 15.9C15.211 15.9 13.6739 16.3663 12.3665 17.2398C11.0592 18.1134 10.0402 19.355 9.43849 20.8077C8.83677 22.2603 8.67934 23.8588 8.98609 25.401C9.29284 26.9431 10.05 28.3597 11.1618 29.4715C12.2737 30.5833 13.6902 31.3405 15.2324 31.6472C16.7745 31.954 18.373 31.7966 19.8257 31.1948C21.2783 30.5931 22.52 29.5742 23.3935 28.2668C24.2671 26.9594 24.7333 25.4224 24.7333 23.85C24.731 21.7422 23.8927 19.7215 22.4023 18.2311C20.9118 16.7407 18.8911 15.9023 16.7833 15.9ZM20.6046 28.7013L19.7566 27.2332L18.2267 28.1165L19.0756 29.5872C18.6226 29.7682 18.1496 29.8942 17.6667 29.9627V28.2667H15.9V29.9627C15.4171 29.8942 14.9441 29.7682 14.4911 29.5872L15.34 28.1165L13.81 27.2332L12.962 28.7013C12.5797 28.3993 12.234 28.0536 11.9321 27.6713L13.4002 26.8233L12.5168 25.2934L11.0417 26.1467C10.8623 25.692 10.7378 25.2175 10.6707 24.7333H12.3667V22.9667H10.6707C10.7393 22.4838 10.865 22.0109 11.0452 21.5578L12.5168 22.4066L13.4002 20.8767L11.9321 20.0287C12.234 19.6464 12.5797 19.3007 12.962 18.9987L13.81 20.4668L15.34 19.5835L14.4911 18.1127C14.9441 17.9318 15.4171 17.8058 15.9 17.7373V19.4333H17.6667V17.7373C18.1496 17.8058 18.6226 17.9318 19.0756 18.1127L18.2267 19.5835L19.7566 20.4668L20.6046 18.9987C20.9872 19.3005 21.3329 19.6462 21.6346 20.0287L20.1665 20.8767L21.0498 22.4066L22.5215 21.5578C22.7017 22.0109 22.8274 22.4838 22.896 22.9667H21.2V24.7333H22.896C22.8289 25.2175 22.7043 25.692 22.525 26.1467L21.0534 25.2978L20.17 26.8277L21.6381 27.6757C21.335 28.0569 20.9882 28.4011 20.6046 28.7013Z" fill="#084654"/>
<path d="M16.7833 21.2C16.2592 21.2 15.7469 21.3554 15.3111 21.6466C14.8753 21.9378 14.5356 22.3517 14.335 22.8359C14.1345 23.3201 14.082 23.8529 14.1842 24.367C14.2865 24.881 14.5389 25.3532 14.9095 25.7238C15.2801 26.0944 15.7523 26.3468 16.2663 26.4491C16.7804 26.5513 17.3132 26.4989 17.7974 26.2983C18.2817 26.0977 18.6955 25.7581 18.9867 25.3223C19.2779 24.8865 19.4333 24.3741 19.4333 23.85C19.4333 23.1472 19.1541 22.4731 18.6572 21.9762C18.1602 21.4792 17.4862 21.2 16.7833 21.2ZM16.7833 24.7333C16.6086 24.7333 16.4378 24.6815 16.2926 24.5845C16.1473 24.4874 16.0341 24.3494 15.9672 24.188C15.9004 24.0266 15.8829 23.849 15.917 23.6777C15.951 23.5063 16.0352 23.3489 16.1587 23.2254C16.2823 23.1019 16.4396 23.0177 16.611 22.9836C16.7823 22.9496 16.96 22.967 17.1214 23.0339C17.2828 23.1008 17.4207 23.214 17.5178 23.3592C17.6149 23.5045 17.6667 23.6753 17.6667 23.85C17.6667 24.0843 17.5736 24.309 17.4079 24.4746C17.2423 24.6403 17.0176 24.7333 16.7833 24.7333Z" fill="#084654"/>
</svg>
