<svg width="62" height="65" viewBox="0 0 62 65" fill="none" xmlns="http://www.w3.org/2000/svg">
<path d="M45.9655 0C39.3379 0 33.3517 4.89017 31 11.3956C28.6483 4.89017 22.6621 0 16.0345 0C7.49238 0 0 8.10008 0 17.3333V32.5C0 32.7873 0.112623 33.0629 0.313093 33.266C0.513563 33.4692 0.785458 33.5833 1.06897 33.5833H2.13793V53.0833C2.14161 56.2427 3.38164 59.2716 5.58601 61.5056C7.79039 63.7396 10.7791 64.9963 13.8966 65H16.0345C19.1519 64.9963 22.1406 63.7396 24.345 61.5056C26.5494 59.2716 27.7894 56.2427 27.7931 53.0833V33.5833H33.1379V53.0833C33.1416 56.2427 34.3816 59.2716 36.586 61.5056C38.7904 63.7396 41.7791 64.9963 44.8966 65H47.0345C50.1519 64.9963 53.1407 63.7396 55.345 61.5056C57.5494 59.2716 58.7894 56.2427 58.7931 53.0833V33.5833H60.931C61.2145 33.5833 61.4864 33.4692 61.6869 33.266C61.8874 33.0629 62 32.7873 62 32.5V17.3333C62 8.10008 54.5076 0 45.9655 0ZM2.13793 31.4167V26.8363C7.69655 23.5647 18.2077 19.6571 29.931 26.8212V31.4167H2.13793ZM8.55172 33.5833H21.3793V50.9167C21.3793 52.6406 20.7036 54.2939 19.5008 55.5129C18.2979 56.7318 16.6666 57.4167 14.9655 57.4167C13.2645 57.4167 11.6331 56.7318 10.4303 55.5129C9.22746 54.2939 8.55172 52.6406 8.55172 50.9167V33.5833ZM2.13793 17.3333C2.13809 16.8344 2.16307 16.3358 2.21276 15.8394C7.69655 12.6284 18.1724 8.72733 29.8551 15.8243C29.9057 16.3256 29.9311 16.8293 29.931 17.3333V18.616C25.3072 16.2116 20.1606 15.0253 14.9655 15.1667V17.3333C23.5354 17.3333 28.5521 20.228 29.931 21.1478V24.3187C18.4364 17.8717 8.15193 21.1012 2.13793 24.3577V17.3333ZM32.069 21.1478C33.4479 20.228 38.4646 17.3333 47.0345 17.3333V15.1667C41.8394 15.0253 36.6928 16.2116 32.069 18.616V17.3333C32.0691 16.8344 32.0941 16.3358 32.1438 15.8394C37.6276 12.6284 48.1035 8.72733 59.7862 15.8243C59.8368 16.3256 59.8621 16.8293 59.8621 17.3333V24.3187C48.3686 17.8717 38.083 21.1012 32.069 24.3577V21.1478ZM45.9655 2.16667C52.0105 2.16667 57.4441 6.89325 59.2367 13.0249C48.3482 7.228 38.5982 10.0328 32.6804 13.0823C34.456 6.9225 39.9023 2.16667 45.9655 2.16667ZM16.0345 2.16667C22.0795 2.16667 27.513 6.89325 29.3057 13.0249C18.4161 7.228 8.66717 10.0328 2.74938 13.0823C4.52493 6.9225 9.97131 2.16667 16.0345 2.16667ZM25.6552 53.0833C25.6521 55.6682 24.6375 58.1463 22.8339 59.9741C21.0303 61.8019 18.5851 62.8302 16.0345 62.8333H13.8966C11.3459 62.8302 8.90069 61.8019 7.09713 59.9741C5.29358 58.1463 4.27897 55.6682 4.27586 53.0833V33.5833H6.41379V50.9167C6.41379 53.2152 7.31478 55.4196 8.91854 57.0449C10.5223 58.6702 12.6975 59.5833 14.9655 59.5833C17.2336 59.5833 19.4087 58.6702 21.0125 57.0449C22.6163 55.4196 23.5172 53.2152 23.5172 50.9167V33.5833H25.6552V53.0833ZM56.6552 53.0833C56.6521 55.6682 55.6375 58.1463 53.8339 59.9741C52.0303 61.8019 49.5851 62.8302 47.0345 62.8333H44.8966C42.3459 62.8302 39.9007 61.8019 38.0971 59.9741C36.2936 58.1463 35.279 55.6682 35.2759 53.0833V33.5833H37.4138V50.9167C37.4138 53.2152 38.3148 55.4196 39.9185 57.0449C41.5223 58.6702 43.6975 59.5833 45.9655 59.5833C48.2336 59.5833 50.4087 58.6702 52.0125 57.0449C53.6163 55.4196 54.5172 53.2152 54.5172 50.9167V33.5833H56.6552V53.0833ZM39.5517 33.5833H52.3793V50.9167C52.3793 52.6406 51.7036 54.2939 50.5008 55.5129C49.2979 56.7318 47.6666 57.4167 45.9655 57.4167C44.2645 57.4167 42.6331 56.7318 41.4303 55.5129C40.2275 54.2939 39.5517 52.6406 39.5517 50.9167V33.5833ZM32.069 31.4167V26.8363C37.6276 23.5647 48.1398 19.6571 59.8621 26.8212V31.4167H32.069Z" fill="#084654"/>
</svg>
