<svg width="65" height="52" viewBox="0 0 65 52" fill="none" xmlns="http://www.w3.org/2000/svg">
<path d="M62.9169 0.18808H1.68313C1.00166 0.18808 0.448578 0.741159 0.448578 1.42263V41.5505C0.448578 42.232 1.00166 42.785 1.68313 42.785H26.4334V45.7085H19.9545C19.273 45.7085 18.7199 46.2616 18.7199 46.943V49.9158C18.7199 50.5973 19.273 51.1504 19.9545 51.1504H44.6455C45.327 51.1504 45.8801 50.5973 45.8801 49.9158V46.943C45.8801 46.2616 45.327 45.7085 44.6455 45.7085H38.1666V42.785H62.9169C63.5984 42.785 64.1515 42.232 64.1515 41.5505V1.42263C64.1515 0.741159 63.5984 0.18808 62.9169 0.18808ZM43.411 48.6813H21.189V48.1776H27.668H36.9419H43.4209V48.6813H43.411ZM35.6975 45.7085H28.8927V42.785H35.6975V45.7085ZM61.6823 40.3159H36.9321H27.6581H2.91768V2.65718H61.6823V40.3159Z" fill="#084654"/>
<path d="M5.37699 39.19H59.2232C59.9047 39.19 60.4577 38.637 60.4577 37.9555V5.01766C60.4577 4.33618 59.9047 3.7831 59.2232 3.7831H5.37699C4.69552 3.7831 4.14244 4.33618 4.14244 5.01766V37.9555C4.14244 38.637 4.69552 39.19 5.37699 39.19ZM6.61154 6.25221H57.9886V36.7209H6.61154V6.25221Z" fill="#084654"/>
</svg>
