<svg width="76" height="36" viewBox="0 0 76 36" fill="none" xmlns="http://www.w3.org/2000/svg">
<path d="M2.45835 29.5536H8.5171C8.86214 33.1707 11.9056 36 15.6088 36C19.3109 36 22.3544 33.1707 22.6994 29.5536H57.3246C57.6697 33.1707 60.7131 36 64.4163 36C68.1195 36 71.163 33.1707 71.508 29.5536H74.9855V29.3961C75.5844 29.1223 76 28.5182 76 27.8152V24.7729C76 24.0699 75.5844 23.4658 74.9855 23.192V3.25959C74.9855 1.45921 73.5283 0 71.7304 0H24.0872C22.8958 0 21.7999 0.651915 21.2292 1.69824L16.9857 9.49084C16.5463 10.297 15.7878 10.8805 14.8959 11.0967L6.82339 13.0612C5.53221 13.3752 4.56112 14.4443 4.37124 15.7623L3.49237 21.8393L1.83337 22.6063C1.10532 22.9432 0.586682 23.6136 0.444544 24.4045L0.0398319 26.6569C-0.232508 28.1661 0.926295 29.5536 2.45835 29.5536ZM70.6595 18.0505C70.6595 17.8202 70.7941 17.6116 71.0046 17.5181L71.9008 17.1161C72.286 16.9433 72.7211 17.2258 72.7211 17.6496V21.1634C72.7211 21.4861 72.4607 21.7469 72.1384 21.7469H71.2422C70.9199 21.7469 70.6595 21.4861 70.6595 21.1634V18.0505ZM35.213 18.8513C35.213 19.3609 34.7996 19.7748 34.2907 19.7748C33.7818 19.7748 33.3684 19.3609 33.3684 18.8513V17.4388C33.3684 16.9292 33.7818 16.5153 34.2907 16.5153C34.5446 16.5153 34.7757 16.6185 34.9428 16.7858C35.1099 16.9531 35.213 17.1846 35.213 17.4388V18.8513ZM68.7759 29.5525C68.7759 29.5536 68.7748 29.5536 68.7748 29.5536C68.4439 31.6647 66.6157 33.2837 64.4163 33.2837C62.217 33.2837 60.3887 31.6647 60.0578 29.5536C60.022 29.3298 60.0035 29.0994 60.0035 28.8658C60.0035 26.4288 61.9837 24.4469 64.4163 24.4469C65.4167 24.4469 66.3411 24.7827 67.0822 25.3466C68.1434 26.1539 68.8291 27.4316 68.8291 28.8658C68.8291 29.0994 68.8106 29.3287 68.7759 29.5525ZM38.2662 2.71632H68.8128V11.7704C68.8128 12.7711 68.0023 13.5816 67.0041 13.5816H40.382C39.2134 13.5816 38.2662 12.6331 38.2662 11.4629V2.71632ZM19.3662 10.7914L23.6108 2.99991C23.7063 2.82498 23.8886 2.71632 24.0872 2.71632H35.3215V11.1739C35.3215 12.5038 34.3742 13.5816 33.2057 13.5816H22.005C21.3073 13.5816 20.6552 13.1905 20.2603 12.5353L19.2903 10.9251C19.3163 10.8805 19.3413 10.836 19.3662 10.7914ZM15.6088 24.4469C18.0414 24.4469 20.0205 26.4288 20.0205 28.8658C20.0205 29.0994 20.0021 29.3298 19.9662 29.5536C19.6364 31.6647 17.8081 33.2837 15.6088 33.2837C13.4084 33.2837 11.5801 31.6647 11.2503 29.5536C11.2145 29.3298 11.196 29.0994 11.196 28.8658C11.196 26.4288 13.1751 24.4469 15.6088 24.4469ZM5.89786 20.1486L6.19733 17.7485C6.28521 17.0433 6.88306 16.5153 7.59267 16.5153H8.22089C9.10627 16.5153 9.77139 17.3258 9.59995 18.1961L9.1258 20.5963C8.9956 21.2558 8.41728 21.7306 7.74674 21.7306H7.29211C6.44688 21.7306 5.79262 20.9885 5.89786 20.1486Z" fill="#084654"/>
<path d="M14.2308 27.0096C14.3394 27.1114 14.5231 27.0936 14.658 27.0022C15.2286 26.6092 15.9879 26.6091 16.5585 27.0022C16.6934 27.0937 16.877 27.1114 16.9856 27.0096C17.1423 26.8528 17.2988 26.6959 17.4555 26.539C17.564 26.4384 17.4807 26.1757 17.2387 26.0094C16.2597 25.335 14.9568 25.335 13.9778 26.0094C13.7358 26.1756 13.6525 26.4384 13.761 26.539C13.9176 26.6959 14.0743 26.8528 14.2308 27.0096Z" fill="#084654"/>
<path d="M16.9856 30.7202C16.877 30.6184 16.6933 30.6362 16.5584 30.7276C15.9878 31.1206 15.2285 31.1207 14.6579 30.7276C14.523 30.6361 14.3394 30.6184 14.2307 30.7202C14.074 30.8771 13.9175 31.0339 13.7608 31.1908C13.6523 31.2914 13.7356 31.5541 13.9776 31.7204C14.9566 32.3948 16.2595 32.3948 17.2385 31.7204C17.4805 31.5543 17.5638 31.2914 17.4553 31.1908C17.2988 31.034 17.1423 30.8771 16.9856 30.7202Z" fill="#084654"/>
<path d="M17.4683 27.9134C17.8608 28.4848 17.8608 29.2451 17.4683 29.8166C17.377 29.9517 17.3593 30.1355 17.4609 30.2443C17.6175 30.4012 17.7742 30.558 17.9309 30.7149C18.0313 30.8236 18.2937 30.7401 18.4597 30.4978C19.1332 29.5174 19.1332 28.2127 18.4597 27.2323C18.2938 26.9901 18.0313 26.9066 17.9309 27.0153C17.7742 27.1722 17.6176 27.3289 17.4609 27.4858C17.3593 27.5945 17.3771 27.7783 17.4683 27.9134Z" fill="#084654"/>
<path d="M13.2855 30.7148C13.4422 30.5579 13.5988 30.4011 13.7555 30.2442C13.8571 30.1355 13.8393 29.9515 13.7481 29.8165C13.3556 29.245 13.3555 28.4847 13.7481 27.9133C13.8394 27.7782 13.8571 27.5944 13.7555 27.4855C13.5989 27.3286 13.4422 27.1718 13.2855 27.0149C13.1851 26.9063 12.9227 26.9897 12.7567 27.232C12.0832 28.2124 12.0832 29.517 12.7567 30.4975C12.9226 30.74 13.1852 30.8234 13.2855 30.7148Z" fill="#084654"/>
<path d="M63.0388 27.0096C63.1474 27.1114 63.3311 27.0936 63.466 27.0022C64.0366 26.6092 64.7959 26.6091 65.3665 27.0022C65.5014 27.0937 65.6849 27.1114 65.7936 27.0096C65.9502 26.8528 66.1069 26.6959 66.2636 26.539C66.3721 26.4384 66.2887 26.1757 66.0468 26.0094C65.0678 25.335 63.765 25.335 62.7859 26.0094C62.544 26.1756 62.4606 26.4384 62.5691 26.539C62.7256 26.6959 62.8823 26.8528 63.0388 27.0096Z" fill="#084654"/>
<path d="M65.7936 30.7202C65.6849 30.6184 65.5013 30.6362 65.3664 30.7276C64.7958 31.1206 64.0365 31.1207 63.4659 30.7276C63.331 30.6361 63.1475 30.6184 63.0387 30.7202C62.8821 30.8771 62.7255 31.0339 62.5688 31.1908C62.4603 31.2914 62.5436 31.5541 62.7856 31.7204C63.7646 32.3948 65.0675 32.3948 66.0465 31.7204C66.2885 31.5543 66.3718 31.2914 66.2633 31.1908C66.1069 31.034 65.9503 30.8771 65.7936 30.7202Z" fill="#084654"/>
<path d="M66.7389 27.0152C66.5822 27.1721 66.4256 27.3288 66.269 27.4857C66.1673 27.5945 66.1851 27.7785 66.2763 27.9135C66.6688 28.4849 66.6688 29.2453 66.2763 29.8167C66.185 29.9518 66.1673 30.1356 66.269 30.2444C66.4255 30.4013 66.5822 30.5581 66.7389 30.715C66.8393 30.8237 67.1017 30.7402 67.2677 30.4979C67.9412 29.5176 67.9412 28.2128 67.2677 27.2325C67.1018 26.99 66.8392 26.9065 66.7389 27.0152Z" fill="#084654"/>
<path d="M62.5561 29.8165C62.1636 29.2451 62.1635 28.4848 62.5561 27.9134C62.6474 27.7783 62.6651 27.5945 62.5635 27.4856C62.4069 27.3287 62.2502 27.1719 62.0936 27.015C61.9931 26.9064 61.7307 26.9898 61.5647 27.2321C60.8913 28.2125 60.8913 29.5171 61.5647 30.4976C61.7306 30.7399 61.9931 30.8233 62.0936 30.7147C62.2502 30.5578 62.4068 30.401 62.5635 30.2441C62.6651 30.1354 62.6473 29.9516 62.5561 29.8165Z" fill="#084654"/>
</svg>
