<svg width="64" height="46" viewBox="0 0 64 46" fill="none" xmlns="http://www.w3.org/2000/svg">
<path d="M25.2146 34.5037C25.9475 34.5037 26.5417 33.9095 26.5417 33.1766C26.5417 32.4436 25.9475 31.8495 25.2146 31.8495C24.4816 31.8495 23.8875 32.4436 23.8875 33.1766C23.8875 33.9095 24.4816 34.5037 25.2146 34.5037Z" fill="#084654"/>
<path d="M35.8312 34.5037C36.5642 34.5037 37.1583 33.9095 37.1583 33.1766C37.1583 32.4436 36.5642 31.8495 35.8312 31.8495C35.0983 31.8495 34.5041 32.4436 34.5041 33.1766C34.5041 33.9095 35.0983 34.5037 35.8312 34.5037Z" fill="#084654"/>
<path d="M46.4477 34.5037C47.1806 34.5037 47.7748 33.9095 47.7748 33.1766C47.7748 32.4436 47.1806 31.8495 46.4477 31.8495C45.7148 31.8495 45.1206 32.4436 45.1206 33.1766C45.1206 33.9095 45.7148 34.5037 46.4477 34.5037Z" fill="#084654"/>
<path d="M55.7376 0H42.6327C32.0084 0 22.4571 5.90313 17.7062 15.4051L12.0713 26.6724C6.76196 30.1083 2.83774 35.0662 0.770503 41.2648L0.0680695 43.3746C-0.0666693 43.7789 0.000637859 44.2234 0.252076 44.5694C0.500901 44.9154 0.900016 45.1202 1.32775 45.1202H62.3729C63.1064 45.1202 63.7 44.5266 63.7 43.7931V7.96228C63.7 3.57164 60.1282 0 55.7376 0ZM61.0458 42.4661H3.16806L3.28986 42.1032C3.55249 41.3156 3.85606 40.555 4.18438 39.8119H61.0458V42.4661ZM61.0458 37.1578H5.56748C10.5482 28.7661 20.1373 23.8871 32.2469 23.8871H61.0458V37.1578ZM45.121 15.9248H39.8127C36.8864 15.9248 34.5044 18.3054 34.5044 21.2331H32.2468C29.0676 21.2331 26.0571 21.5633 23.2262 22.1701L24.8287 18.9664C28.2215 12.1781 35.0434 7.9624 42.6326 7.9624H55.7374V21.2331H50.429C50.4293 18.3054 48.0473 15.9248 45.121 15.9248ZM47.7752 21.233H37.1587C37.1587 19.7699 38.3485 18.5789 39.8128 18.5789H45.1211C46.5854 18.5789 47.7752 19.7699 47.7752 21.233ZM61.0458 21.233H58.3917V7.9624C58.3917 6.49931 57.2019 5.30831 55.7376 5.30831H42.6327C34.0301 5.30831 26.2983 10.0865 22.4546 17.7794L19.8043 23.078C18.5375 23.4803 17.3131 23.9398 16.1418 24.468L20.0805 16.5924C24.3804 7.99475 33.0219 2.65409 42.6327 2.65409H55.7375C58.6638 2.65409 61.0458 5.03473 61.0458 7.9624V21.233Z" fill="#084654"/>
</svg>
