<svg width="67" height="57" viewBox="0 0 67 57" fill="none" xmlns="http://www.w3.org/2000/svg">
<path d="M5.08352 34.7117L8.3953 47.8348C9.08093 50.5469 11.9132 52.5423 15.1305 52.5423H15.334V55.1356C15.334 55.5808 15.7661 56 16.2826 56H24.4757C24.7742 55.9991 25.0544 55.8757 25.2302 55.6673L27.8793 52.5423H39.1223L41.7709 55.6673C41.9467 55.8757 42.2269 55.9991 42.5254 56H50.7185C51.235 56 51.6671 55.5808 51.6671 55.1356V52.5423H51.8706C55.0879 52.5423 57.9202 50.5469 58.6063 47.8348L61.9181 34.7252C64.3809 34.433 66.1602 32.5443 65.9886 30.4044C65.8169 28.2645 63.7527 26.6055 61.2664 26.6095H51.5987C51.4057 25.5551 50.3584 24.7758 49.1218 24.7654H35.7552C34.5186 24.7758 33.4719 25.5551 33.2788 26.6095H11.5939V7.33912C11.5939 4.72919 14.0457 2.6136 17.0705 2.6136C20.0953 2.6136 22.5472 4.72919 22.5472 7.33912V10.1278H21.2391C19.2412 10.1305 17.6194 11.5221 17.6048 13.2456V14.5076H17.0617C16.8159 14.5053 16.5795 14.5886 16.4052 14.7385C16.231 14.8884 16.1339 15.0924 16.1355 15.3044V17.9585C16.1308 18.4038 16.5456 18.768 17.0617 18.7721H29.9926C30.5175 18.7712 30.9469 18.411 30.9626 17.9585V15.3044C30.9454 14.8551 30.5138 14.5004 29.9926 14.5076H29.3596V13.2456C29.3675 12.423 28.9949 11.632 28.3249 11.0471C27.6555 10.4619 26.7434 10.1309 25.7901 10.1278H24.4173V7.33912C24.4173 3.8382 21.1279 1 17.0705 1C13.0131 1 9.72377 3.8382 9.72377 7.33912V26.6095H5.73471C3.24944 26.601 1.18316 28.2582 1.01149 30.3972C0.839304 32.5367 2.62068 34.424 5.08352 34.7117ZM29.0925 17.1585H18.0056V16.1212H29.0925V17.1585ZM27.4896 13.2456V14.5076H19.4749V13.2456C19.4885 12.4127 20.2738 11.7432 21.2391 11.7414H25.7901C26.2472 11.7441 26.6844 11.9048 27.0033 12.1876C27.3226 12.4699 27.4979 12.8512 27.4896 13.2456ZM24.0014 54.3864H17.2041V52.5423H25.5616L24.0014 54.3864ZM49.797 54.3864H43.0002L41.4395 52.5423H49.797V54.3864ZM56.779 47.5115C56.2661 49.4988 54.2301 50.9161 51.8706 50.9287H15.1305C12.771 50.9161 10.735 49.4988 10.2221 47.5115L7.00735 34.7928H33.2334V42.7968C33.2334 43.2421 33.6607 43.5523 34.1778 43.5523H50.6992C51.2157 43.5523 51.6671 43.2421 51.6671 42.7968V34.7928H59.9938L56.779 47.5115ZM35.1035 40.4403H49.797V41.9387H35.1035V40.4403ZM64.13 30.7011C64.1289 32.0662 62.849 33.1738 61.2664 33.1792H51.6671V28.2231H61.2664C62.849 28.2281 64.1289 29.3356 64.13 30.7011ZM35.7552 26.379H49.1218C49.4829 26.3768 49.7808 26.6212 49.797 26.9319V38.8267H35.1035V26.9319C35.1087 26.6248 35.3993 26.3781 35.7552 26.379ZM5.73471 28.2231H33.2334V33.1792H5.73471C4.14848 33.1792 2.86279 32.0694 2.86279 30.7011C2.86279 29.3325 4.14848 28.2231 5.73471 28.2231Z" fill="#084654" stroke="#084654" stroke-width="0.5"/>
</svg>
