<svg width="64" height="53" viewBox="0 0 64 53" fill="none" xmlns="http://www.w3.org/2000/svg">
<path d="M0 14.0155C8.18933 5.5105 19.504 0.25 32 0.25C44.4987 0.25 55.8107 5.5105 64 14.0155L58.5627 19.6593C51.7653 12.6033 42.3733 8.23525 32 8.23525C21.6267 8.23525 12.2347 12.6033 5.43733 19.6593L0 14.0155H0ZM15.2533 29.8548C19.5387 25.4028 25.4587 22.6518 32 22.6518C38.5413 22.6518 44.4613 25.4028 48.7467 29.8548L54.328 24.0588C48.6133 18.1236 40.72 14.4539 32 14.4539C23.28 14.4539 15.3867 18.1236 9.672 24.0588L15.2533 29.8548ZM25.008 39.9846C26.7973 38.1261 29.2693 36.979 32 36.979C34.728 36.979 37.2027 38.1261 38.992 39.9846L44.4773 34.2884C41.2853 30.973 36.8747 28.9229 32.0027 28.9229C27.1307 28.9229 22.72 30.9756 19.528 34.2884L25.008 39.9846ZM32 42.6543C29.168 42.6543 26.872 44.9144 26.872 47.7021C26.872 50.4899 29.168 52.75 32 52.75C34.832 52.75 37.128 50.4899 37.128 47.7021C37.128 44.9144 34.832 42.6543 32 42.6543Z" fill="#084654"/>
</svg>
