<svg width="64" height="63" viewBox="0 0 64 63" fill="none" xmlns="http://www.w3.org/2000/svg">
<path d="M14.066 17.6384C16.5069 16.7952 17.8262 14.0606 17.0128 11.5305C16.1994 9.00029 13.5613 7.63269 11.1205 8.47583C8.67959 9.31898 7.36025 12.0536 8.17364 14.5838C8.98703 17.1139 11.6251 18.4815 14.066 17.6384Z" fill="#084654"/>
<path d="M13.6949 0H11.496V4.26633H13.6949V0Z" fill="#084654"/>
<path d="M20.7228 3.01648L17.8125 6.03323L19.3674 7.64494L22.2776 4.62819L20.7228 3.01648Z" fill="#084654"/>
<path d="M19.3678 18.3231L17.813 19.9348L20.7233 22.9515L22.2781 21.3398L19.3678 18.3231Z" fill="#084654"/>
<path d="M13.6949 21.8448H11.496V26.1112H13.6949V21.8448Z" fill="#084654"/>
<path d="M5.82285 18.464L2.91257 21.4808L4.4674 23.0925L7.37768 20.0757L5.82285 18.464Z" fill="#084654"/>
<path d="M4.11575 11.9166H0V14.1959H4.11575V11.9166Z" fill="#084654"/>
<path d="M4.46621 3.02006L2.91138 4.63177L5.82165 7.64852L7.37648 6.0368L4.46621 3.02006Z" fill="#084654"/>
<path d="M25.1909 11.9166H21.0752V14.1959H25.1909V11.9166Z" fill="#084654"/>
<path d="M58.6173 47.6006C59.4296 47.5998 60.2108 47.9242 60.7977 48.5063C60.8083 48.4514 60.8202 48.3979 60.8294 48.3444C60.9084 47.9008 60.9478 47.4506 60.9473 46.9996V41.8399C60.9469 41.5376 60.8309 41.2477 60.6247 41.034C60.4184 40.8202 60.1388 40.6999 59.8472 40.6996H54.074V21.4881H50.4414L48.2889 23.8154L46.0384 26.2374V21.4908H42.4072L29.3689 35.5289C28.1695 36.1423 26.986 36.7928 25.7814 37.4075C27.2932 35.4713 28.9916 33.7244 31.1971 32.488L25.8648 27.1088C20.449 30.1456 18.0834 36.2603 14.0576 40.6941H8.11898C7.97457 40.6941 7.83159 40.7236 7.69819 40.7809C7.5648 40.8382 7.44361 40.9222 7.34156 41.0282C7.23951 41.1341 7.15861 41.2598 7.10347 41.3981C7.04833 41.5365 7.02003 41.6847 7.02021 41.8344V47.0064C7.02003 47.9847 7.20577 48.9534 7.56681 49.8573C7.92784 50.7612 8.45711 51.5824 9.12438 52.2743C9.79165 52.9661 10.5839 53.5148 11.4557 53.8893C12.3276 54.2637 13.2621 54.4564 14.2059 54.4564H47.0617V50.8885C47.0624 50.0196 47.3957 49.1866 47.9884 48.5722C48.5811 47.9578 49.3848 47.6123 50.223 47.6116L58.6173 47.6006ZM15.2835 51.8848H14.2059C12.9574 51.8844 11.76 51.3705 10.8766 50.4559C9.9933 49.5412 9.49618 48.3006 9.49442 47.0064H11.6933C11.6933 47.6979 11.9583 48.3611 12.43 48.85C12.9017 49.339 13.5415 49.6137 14.2085 49.6137H15.2861L15.2835 51.8848ZM19.4747 36.742C21.3452 34.0057 23.1258 31.4026 25.596 29.6214L26.3241 30.3501L27.4401 31.4767L28.0927 32.134L28.1351 32.1779C25.4345 34.3049 23.5269 37.096 21.6736 39.8131C21.4706 40.1113 21.268 40.4068 21.0659 40.6996H16.6219C17.6425 39.4206 18.5652 38.0717 19.4747 36.742ZM24.345 51.8848H17.8067V49.6055H24.345V51.8848ZM23.4183 40.6996C25.1393 39.9997 26.7755 39.1352 28.3866 38.2803C31.2673 36.7543 34.0089 35.3011 36.9914 34.9073L37.746 37.2854L38.0955 38.3901C35.759 38.8017 33.6197 39.691 31.5651 40.7051L23.4183 40.6996ZM42.4072 30.1415V40.6941H36.9094C38.1392 40.3426 39.4067 40.1522 40.6823 40.1273L39.8999 37.6573L39.1479 35.2723L38.3656 32.8023C36.922 32.8334 35.4897 33.0722 34.1095 33.5117L42.4138 24.5701L42.4072 30.1415ZM46.0397 40.6941V29.3044L50.4441 24.5646V40.6941H46.0397Z" fill="#084654"/>
<path d="M60.6905 52.1716H59.7174V50.8775C59.7174 50.5751 59.6015 50.2851 59.3952 50.0712C59.1889 49.8573 58.9091 49.7372 58.6174 49.7372H50.223C49.9313 49.7372 49.6514 49.8573 49.4451 50.0712C49.2388 50.2851 49.1229 50.5751 49.1229 50.8775V60.1498C49.1229 60.9058 49.4126 61.6307 49.9282 62.1652C50.4439 62.6997 51.1433 63 51.8725 63H56.9679C57.6971 63 58.3965 62.6997 58.9121 62.1652C59.4278 61.6307 59.7174 60.9058 59.7174 60.1498V59.0287H60.6905C61.5682 59.0287 62.41 58.6673 63.0307 58.0239C63.6513 57.3805 64 56.5079 64 55.5981C64 54.6882 63.6513 53.8156 63.0307 53.1723C62.41 52.5289 61.5682 52.1675 60.6905 52.1675V52.1716ZM58.2665 52.1263C58.2662 52.4282 58.1503 52.7177 57.9443 52.9313C57.7383 53.1448 57.4591 53.2649 57.1678 53.2653H51.6726C51.3811 53.2653 51.1015 53.1453 50.8952 52.9317C50.6889 52.7182 50.5729 52.4285 50.5725 52.1263C50.5725 51.9766 50.601 51.8284 50.6563 51.6901C50.7116 51.5518 50.7926 51.4262 50.8948 51.3204C50.997 51.2146 51.1182 51.1308 51.2517 51.0736C51.3852 51.0165 51.5282 50.9871 51.6726 50.9873H57.1678C57.3121 50.9873 57.4549 51.0168 57.5882 51.074C57.7216 51.1313 57.8427 51.2152 57.9447 51.3209C58.0467 51.4267 58.1277 51.5522 58.1829 51.6904C58.2381 51.8286 58.2665 51.9767 58.2665 52.1263ZM60.6905 56.7494H59.7174V54.4523H60.6905C60.9843 54.4523 61.2662 54.5733 61.474 54.7887C61.6817 55.0041 61.7985 55.2962 61.7985 55.6008C61.7985 55.9054 61.6817 56.1976 61.474 56.413C61.2662 56.6284 60.9843 56.7494 60.6905 56.7494Z" fill="#084654"/>
</svg>
