<svg width="25" height="61" viewBox="0 0 25 61" fill="none" xmlns="http://www.w3.org/2000/svg">
<path d="M4.52037 47.2294C4.52037 48.4112 8.09408 49.3718 12.5005 49.3718C16.9079 49.3718 20.4796 48.4112 20.4796 47.2294C20.4796 46.2936 18.2394 45.4998 15.1226 45.207C15.1835 44.8399 15.1775 44.561 15.1775 44.561C15.1775 44.561 14.5058 41.3916 15.4015 39.5538C16.3001 37.719 15.9633 34.9911 15.7393 34.6021C15.5134 34.2122 15.2355 32.1551 15.7393 31.3186C16.2432 30.484 16.4131 28.5937 16.691 25.704C16.9709 22.8134 16.1702 22.2508 16.1702 22.2508V19.8613H16.691C18.3724 19.7501 18.5963 16.3018 18.8202 14.7449C19.0471 13.1869 20.1677 11.7401 18.8202 9.90334C17.4757 8.06854 14.2239 7.39972 14.2239 7.39972L14.2809 5.73064C14.2809 5.73064 15.1505 5.00724 15.0676 2.50263C14.9806 0 12.8654 0 12.8654 0H12.1366C12.1366 0 10.0214 0 9.93742 2.50362C9.85345 5.00823 10.7221 5.73163 10.7221 5.73163L10.7781 7.39972C10.7781 7.39972 7.52729 8.06755 6.18177 9.90334C4.83626 11.7391 5.95686 13.1869 6.18177 14.7449C6.40769 16.3008 6.63161 19.7491 8.31301 19.8613H8.83482V22.2508C8.83482 22.2508 8.03311 22.8144 8.31301 25.704C8.59191 28.5937 8.75985 30.484 9.26466 31.3186C9.76848 32.1541 9.48758 34.2112 9.26466 34.6031C9.03875 34.9931 8.70286 37.72 9.60054 39.5548C10.4982 41.3906 9.82546 44.5601 9.82546 44.5601C9.82546 44.5601 9.81846 44.8409 9.87944 45.208C6.76157 45.5018 4.52037 46.2936 4.52037 47.2294Z" fill="#084654"/>
<path d="M21.5183 51.8853C21.8051 51.5311 21.9561 51.1163 21.9431 50.632C21.8941 48.6166 21.0494 48.1761 20.8145 48.0917C18.8382 49.9017 13.4901 50.0128 12.2266 50.0128C11.008 50.0128 6.00484 49.9027 3.8766 48.2723C3.53972 48.5472 3.09089 49.1823 3.0549 50.6291C3.0439 51.1133 3.19285 51.5261 3.47775 51.8814C1.32852 52.4708 0 53.2706 0 54.1498V58.3235C0 58.3235 2.46511 61.1605 13.2272 60.9928C23.9894 60.8261 25 57.5743 25 57.5743V53.9275H24.957C24.7551 53.1377 23.4785 52.4262 21.5183 51.8853Z" fill="#084654"/>
</svg>
