<svg width="69" height="40" viewBox="0 0 69 40" fill="none" xmlns="http://www.w3.org/2000/svg">
<path fill-rule="evenodd" clip-rule="evenodd" d="M7.62341 39.8497H61.6857C65.4935 39.8497 68.6098 36.7343 68.6098 32.9255V7.33727C68.6098 3.52938 65.4945 0.413086 61.6857 0.413086H7.62341C3.81551 0.413086 0.699219 3.52847 0.699219 7.33727V32.9255C0.699219 36.7334 3.8146 39.8497 7.62341 39.8497ZM52.8161 14.8045C52.8161 14.4738 52.8634 14.1904 52.9591 13.9553C53.0548 13.7202 53.1869 13.5252 53.3564 13.3703C53.5259 13.2163 53.7291 13.1042 53.9687 13.0341C54.2075 12.9639 54.4672 12.9293 54.746 12.9293C55.0257 12.9293 55.2827 12.9621 55.5178 13.0286C55.7528 13.0951 55.957 13.2017 56.1301 13.3484C56.3032 13.4951 56.4372 13.6883 56.5328 13.9271C56.6285 14.1658 56.6795 14.4583 56.6868 14.8036C56.6795 15.149 56.6276 15.4415 56.5328 15.6802C56.4372 15.9189 56.3032 16.1121 56.1301 16.2588C55.957 16.4055 55.7528 16.5121 55.5178 16.5786C55.2827 16.6452 55.0248 16.678 54.746 16.678C54.4662 16.678 54.2075 16.6452 53.9687 16.5786C53.73 16.5121 53.5259 16.4055 53.3564 16.2588C53.1869 16.1121 53.0548 15.9189 52.9591 15.6802C52.8634 15.4415 52.8161 15.149 52.8161 14.8036V14.8045ZM54.0954 14.8045C54.0954 15.4369 54.3122 15.7531 54.746 15.7531C54.9738 15.7531 55.1378 15.6848 55.2371 15.549C55.3364 15.4132 55.3893 15.1645 55.3966 14.8045C55.3893 14.4519 55.3355 14.205 55.2371 14.0656C55.1378 13.9261 54.9747 13.856 54.746 13.856C54.5182 13.856 54.3523 13.9261 54.2494 14.0656C54.1464 14.205 54.0954 14.4519 54.0954 14.8045ZM57.2937 18.8958C57.2937 18.565 57.3411 18.2817 57.4367 18.0466C57.5324 17.8115 57.6645 17.6165 57.834 17.4625C58.0035 17.3085 58.2067 17.1955 58.4463 17.1263C58.6851 17.0561 58.9448 17.0215 59.2236 17.0215C59.5033 17.0215 59.7603 17.0543 59.9954 17.1208C60.2305 17.1873 60.4346 17.2939 60.6077 17.4406C60.7808 17.5873 60.9148 17.7805 61.0105 18.0192C61.1061 18.258 61.1572 18.5505 61.1645 18.8958C61.1572 19.2412 61.1052 19.5337 61.0105 19.7724C60.9148 20.0111 60.7808 20.2043 60.6077 20.351C60.4346 20.4977 60.2305 20.6043 59.9954 20.6708C59.7603 20.7373 59.5024 20.7701 59.2236 20.7701C58.9439 20.7701 58.6851 20.7373 58.4463 20.6708C58.2076 20.6043 58.0035 20.4977 57.834 20.351C57.6645 20.2043 57.5324 20.0111 57.4367 19.7724C57.3411 19.5337 57.2937 19.2412 57.2937 18.8958ZM58.573 18.8958C58.573 19.5282 58.7899 19.8444 59.2236 19.8444C59.4514 19.8444 59.6154 19.776 59.7147 19.6403C59.8141 19.5045 59.8669 19.2557 59.8751 18.8958C59.8678 18.5432 59.8141 18.2962 59.7147 18.1568C59.6154 18.0174 59.4523 17.9473 59.2236 17.9473C58.9958 17.9473 58.83 18.0174 58.727 18.1568C58.624 18.2962 58.573 18.5432 58.573 18.8958ZM59.7202 12.9074L60.5257 13.6355L54.1728 20.9369L53.3673 20.176L59.7202 12.9083V12.9074ZM39.4852 27.4292C39.4852 27.0984 39.5326 26.815 39.6283 26.5799C39.724 26.3449 39.8561 26.1499 40.0256 25.9949C40.1951 25.841 40.3983 25.7289 40.6379 25.6587C40.8766 25.5886 41.1363 25.5539 41.4152 25.5539C41.6949 25.5539 41.9519 25.5867 42.1869 25.6533C42.422 25.7198 42.6261 25.8264 42.7993 25.9731C42.9724 26.1198 43.1063 26.313 43.202 26.5517C43.2977 26.7904 43.3487 27.0829 43.356 27.4283C43.3487 27.7736 43.2968 28.0661 43.202 28.3048C43.1063 28.5436 42.9724 28.7367 42.7993 28.8834C42.6261 29.0301 42.422 29.1368 42.1869 29.2033C41.9519 29.2698 41.694 29.3026 41.4152 29.3026C41.1354 29.3026 40.8766 29.2698 40.6379 29.2033C40.3992 29.1368 40.1951 29.0301 40.0256 28.8834C39.8561 28.7367 39.724 28.5436 39.6283 28.3048C39.5326 28.0661 39.4852 27.7736 39.4852 27.4283V27.4292ZM40.7646 27.4292C40.7646 28.0615 40.9814 28.3777 41.4152 28.3777C41.643 28.3777 41.807 28.3094 41.9063 28.1736C42.0056 28.0379 42.0585 27.7891 42.0658 27.4292C42.0585 27.0765 42.0047 26.8296 41.9063 26.6902C41.807 26.5508 41.6439 26.4806 41.4152 26.4806C41.1874 26.4806 41.0215 26.5508 40.9186 26.6902C40.8156 26.8296 40.7646 27.0765 40.7646 27.4292ZM43.9629 31.5205C43.9629 31.1897 44.0102 30.9063 44.1059 30.6712C44.2016 30.4361 44.3337 30.2411 44.5032 30.0871C44.6727 29.9331 44.8759 29.8202 45.1155 29.7509C45.3543 29.6807 45.614 29.6461 45.8928 29.6461C46.1725 29.6461 46.4295 29.6789 46.6646 29.7454C46.8997 29.812 47.1038 29.9186 47.2769 30.0653C47.45 30.212 47.584 30.4051 47.6796 30.6439C47.7753 30.8826 47.8263 31.1751 47.8336 31.5205C47.8263 31.8658 47.7744 32.1583 47.6796 32.397C47.584 32.6358 47.45 32.8289 47.2769 32.9756C47.1038 33.1223 46.8997 33.2289 46.6646 33.2955C46.4295 33.362 46.1716 33.3948 45.8928 33.3948C45.613 33.3948 45.3543 33.362 45.1155 33.2955C44.8768 33.2289 44.6727 33.1223 44.5032 32.9756C44.3337 32.8289 44.2016 32.6358 44.1059 32.397C44.0102 32.1583 43.9629 31.8658 43.9629 31.5205ZM45.2422 31.5205C45.2422 32.1528 45.4591 32.469 45.8928 32.469C46.1206 32.469 46.2846 32.4007 46.3839 32.2649C46.4832 32.1291 46.5361 31.8804 46.5443 31.5205C46.537 31.1678 46.4832 30.9209 46.3839 30.7815C46.2846 30.6421 46.1215 30.5719 45.8928 30.5719C45.665 30.5719 45.4991 30.6421 45.3962 30.7815C45.2932 30.9209 45.2422 31.1678 45.2422 31.5205ZM46.3894 25.5321L47.1949 26.2601L40.842 33.5615L40.0365 32.8007L46.3894 25.533V25.5321ZM43.2485 11.1415H43.4335C43.5838 11.1597 43.7196 11.2199 43.8153 11.3101C44.043 11.5242 44.0312 11.6035 44.1478 11.8395L44.4285 12.4208C44.4932 12.5557 44.557 12.6742 44.6208 12.8035L45.1729 13.9544C45.223 14.0546 45.2331 14.0355 45.3625 14.0528L47.1147 14.3107C47.2878 14.3371 47.4436 14.3617 47.6149 14.3854C47.7726 14.4073 47.9539 14.43 48.0961 14.4783C48.3731 14.5731 48.558 14.8237 48.5799 15.1052V15.221C48.5681 15.3686 48.5107 15.5207 48.3986 15.6583L46.3648 17.6857C46.4058 17.8616 46.8368 20.4066 46.8368 20.5569C46.8368 20.9979 46.4878 21.316 46.1397 21.316H45.9957C45.7014 21.316 43.4863 19.9619 43.3296 19.9619C43.2658 19.9619 42.6289 20.3273 42.4822 20.4066L41.3468 21.0153C40.9924 21.1893 40.9322 21.316 40.5195 21.316C40.1723 21.316 39.8224 20.9706 39.8224 20.6189C39.8224 20.3155 40.0001 19.4316 40.0538 19.1072C40.1085 18.7801 40.2297 17.9627 40.2944 17.6857C40.206 17.6265 40.0766 17.478 39.9919 17.3932L38.2515 15.6465C38.0957 15.4478 38.0793 15.3485 38.0793 15.1216C38.0793 14.8155 38.3144 14.5694 38.5768 14.4701C38.7217 14.4155 40.391 14.1822 40.5623 14.1585C40.7336 14.1348 40.8885 14.1111 41.0625 14.0838C41.3578 14.0382 41.4243 14.0783 41.4862 13.9535C41.6129 13.6993 41.7295 13.4414 41.8607 13.179C41.8963 13.1088 41.9245 13.0532 41.9564 12.9876L42.6052 11.6263C42.761 11.3147 43.0098 11.1698 43.2512 11.1415H43.2485ZM56.6832 23.7917H56.8682C57.0185 23.8099 57.1543 23.87 57.2499 23.9602C57.4777 24.1744 57.4659 24.2537 57.5825 24.4897L57.8632 25.071C57.9279 25.2059 57.9917 25.3243 58.0554 25.4537L58.6076 26.6045C58.6577 26.7048 58.6678 26.6856 58.7972 26.703L60.5494 26.9608C60.7225 26.9872 60.8783 27.0118 61.0496 27.0355C61.2073 27.0574 61.3886 27.0802 61.5307 27.1285C61.8078 27.2232 61.9927 27.4738 62.0146 27.7554V27.8711C62.0027 28.0187 61.9453 28.1709 61.8333 28.3085L59.7995 30.3359C59.8405 30.5118 60.2715 33.0567 60.2715 33.2071C60.2715 33.6481 59.9225 33.9661 59.5744 33.9661H59.4304C59.1361 33.9661 56.921 32.6121 56.7643 32.6121C56.7005 32.6121 56.0636 32.9775 55.9169 33.0567L54.7815 33.6654C54.4271 33.8394 54.3669 33.9661 53.9541 33.9661C53.607 33.9661 53.2571 33.6208 53.2571 33.269C53.2571 32.9656 53.4348 32.0817 53.4885 31.7574C53.5432 31.4302 53.6644 30.6129 53.7291 30.3359C53.6407 30.2767 53.5113 30.1281 53.4266 30.0434L51.6862 28.2966C51.5304 28.098 51.514 27.9987 51.514 27.7718C51.514 27.4656 51.749 27.2196 52.0115 27.1203C52.1564 27.0656 53.8257 26.8323 53.997 26.8086C54.1683 26.785 54.3232 26.7613 54.4972 26.7339C54.7924 26.6884 54.859 26.7285 54.9209 26.6036C55.0476 26.3494 55.1642 26.0915 55.2954 25.8291C55.331 25.7589 55.3592 25.7034 55.3911 25.6378L56.0399 24.2764C56.1957 23.9648 56.4444 23.8199 56.6859 23.7917H56.6832ZM7.29629 17.1837V19.8362C7.29629 20.5852 7.66897 21.1893 8.37879 21.1893H18.0147V16.913H22.2372V21.1893H31.8731C32.2458 21.1893 32.4845 21.0025 32.674 20.7993C32.8782 20.5806 32.9556 20.2398 32.9556 19.8362V17.1837C32.9556 16.4347 32.5829 15.8305 31.8731 15.8305H8.37879C7.68081 15.8305 7.29629 16.4265 7.29629 17.1837ZM9.56972 10.4171V10.7415C9.56972 12.7926 12.2067 14.3426 13.9225 14.7253C14.7089 14.9011 15.7722 14.8018 16.6616 14.8018C16.5304 14.6223 15.8369 14.3644 15.4397 14.1293C14.5932 13.6282 13.9143 13.2273 13.21 12.5156C12.1675 11.4632 12.2432 10.2695 13.5316 9.55968C14.3909 9.08586 15.2756 9.92599 16.0128 10.4171L18.1778 11.9871C17.9035 12.5056 17.5354 14.8018 19.1519 14.8018H21.1009C22.7183 14.8018 22.3493 12.5047 22.075 11.9871L24.2081 10.439C24.9398 9.9515 25.8437 9.10317 26.6875 9.54055C27.0993 9.75377 27.76 10.3679 27.76 10.9584C27.76 11.5762 27.5713 11.9707 27.0711 12.4892C26.4597 13.1225 25.0027 14.1202 24.2108 14.4464C23.9967 14.5348 23.7079 14.6433 23.5921 14.8018C25.5767 14.8018 26.4096 15.0232 28.2994 13.9334C29.2817 13.3676 30.684 12.2587 30.684 10.7415C30.684 9.95697 30.5838 9.6745 30.2339 8.97287L29.688 8.11088C28.5372 6.59374 26.9882 5.39096 25.4947 7.28442L23.7088 9.5041C23.5019 9.76379 23.306 9.98795 23.0992 10.2476L22.2089 11.3611C22.0659 11.5424 22.0203 11.5725 21.9146 11.7712C21.6094 11.7001 21.5483 11.5543 21.1027 11.5543H19.1537C18.7081 11.5543 18.6471 11.7001 18.3418 11.7712C18.2061 11.5142 16.2688 9.14327 15.9727 8.78152L14.7863 7.31541C13.9052 6.21923 12.974 5.91581 11.7593 6.8671C11.3712 7.17144 10.6996 7.91042 10.4162 8.33868C10.0445 8.90089 9.57155 9.67632 9.57155 10.418L9.56972 10.4171ZM10.2194 22.1861H29.7081C30.2083 22.1861 30.6175 22.5953 30.6175 23.0955V33.0558C30.6175 33.5561 30.2083 33.9652 29.7081 33.9652H22.2372V23.4199H18.0147V33.9652H10.2194C9.71916 33.9652 9.31003 33.5561 9.31003 33.0558V23.0955C9.31003 22.5953 9.71916 22.1861 10.2194 22.1861Z" fill="#254652"/>
</svg>
