<svg width="73" height="47" viewBox="0 0 73 47" fill="none" xmlns="http://www.w3.org/2000/svg">
<path fill-rule="evenodd" clip-rule="evenodd" d="M28.8576 42.4371C28.8576 39.6362 32.5515 39.4953 32.5515 42.4371C32.5515 44.5614 28.8576 44.5847 28.8576 42.4371ZM25.1637 42.1528C23.9309 42.1528 23.0327 41.5665 23.0327 40.306C23.0327 39.0905 24.2214 38.4443 24.8377 37.7068C25.5098 36.9027 26.0312 35.9018 27.4369 35.9018C28.719 35.9018 29.1419 36.9732 29.1419 38.0328C29.1419 38.9826 28.0126 39.7902 27.4696 40.3387C26.877 40.9376 26.2407 42.1528 25.1637 42.1528ZM22.3223 37.4642C19.8389 37.4642 19.8385 35.243 20.6496 34.3708C20.9717 34.0243 21.0544 33.853 21.3615 33.5199C22.0628 32.7591 22.4046 32.3496 23.4587 32.3496C24.0506 32.3496 24.7282 32.8529 24.9716 33.2541C25.3535 33.8849 25.2866 34.5397 24.9838 35.1497C24.794 35.5328 23.1516 37.4646 22.3223 37.4646V37.4642ZM16.9234 31.2128C16.9234 30.7096 17.4684 29.3657 18.6284 29.3657C21.4974 29.3657 21.4974 33.0596 18.6284 33.0596C18.1823 33.0596 17.6814 32.78 17.4625 32.5205C17.3046 32.3331 16.9234 31.492 16.9234 31.2124V31.2128ZM28.8576 26.0982C28.3568 26.0982 27.1526 25.6218 27.1526 24.8197L32.3141 13.3584C33.6005 10.806 33.1981 11.6487 37.3208 9.98264C38.3737 9.55698 39.2376 9.25654 40.3051 8.84702C42.8087 7.88624 42.9981 7.92719 45.1413 8.6781L51.3242 10.8777C53.2651 11.514 52.6366 11.2856 54.194 14.4011C54.5137 15.0401 59.5094 24.9083 59.6874 25.6722L54.9173 29.9949C54.5688 30.267 54.4794 30.4214 54.1463 30.6446C53.8951 30.2694 40.2823 16.5743 39.2282 15.869C39.305 14.9476 39.529 15.5981 39.2282 14.3062C38.6812 14.1786 37.0341 14.0219 36.3868 14.0219C35.93 15.9816 36.5002 17.7654 34.3518 21.7901C33.5481 23.2954 32.2889 24.659 30.8575 25.5418C30.2744 25.9017 29.8263 26.0982 28.8568 26.0982H28.8576ZM27.5787 8.76512C26.145 8.76512 25.1098 8.94665 23.8753 9.03997C20.5626 9.2908 21.599 9.10848 17.6322 14.7314L15.1602 18.2265C14.8459 18.6805 14.6561 18.9774 14.3443 19.3995C13.88 20.0276 11.2402 23.4832 11.2402 24.2515C11.2402 25.4206 12.0734 25.8659 13.3358 27.1283C13.9702 27.7627 15.1472 29.0798 15.7866 29.5082C15.4744 30.8486 15.0794 31.6208 15.8941 32.9525C16.443 33.8499 17.3723 34.6228 18.7702 34.6228C18.0705 36.0805 19.2443 38.9712 21.7537 39.0271C20.6012 41.429 23.3595 45.4982 27.2948 42.8631C28.3056 44.9702 28.5855 45.5628 31.273 45.5628C32.0739 45.5628 31.432 45.2379 32.3141 45.6466C33.7801 46.3263 35.6371 45.9735 36.3876 44.8524C35.0696 42.8844 34.1144 43.6424 34.1144 41.4428C34.7786 41.8878 36.045 43.3026 36.7073 43.9645C38.6655 45.9227 38.3024 46.131 40.934 46.131C42.5082 46.131 43.9793 44.6843 44.6279 43.7156C44.3325 43.518 37.2401 36.6566 37.2401 36.1857C37.2401 34.8681 39.0612 37.0831 39.7617 37.784L44.7346 42.7568C45.5497 43.5719 46.2072 44.7103 47.7536 44.7103C49.0262 44.7103 50.0996 44.1216 50.7765 43.4707C51.2266 43.038 51.3711 42.7529 51.768 42.3312C53.4198 40.575 52.4693 40.5462 48.7836 36.8606C48.2627 36.3396 44.9122 33.208 44.9122 32.7761C44.9122 31.5093 46.4785 33.4187 47.0786 34.0192L51.3407 38.2813C52.6815 39.6221 52.7355 40.1639 54.2889 40.1639C55.9257 40.1639 57.8406 38.0734 57.8406 36.47C57.8406 33.0493 56.5506 33.5321 55.2835 31.6393L59.9343 27.4815C61.5455 25.8596 61.8779 26.501 59.9244 22.5937C59.3952 21.5353 58.9179 20.5812 58.4088 19.5629L53.7868 10.4036C53.3501 9.79915 51.3593 9.23528 50.5422 8.95964C49.3629 8.56194 48.3351 8.16188 47.2027 7.75275C44.7802 6.87742 43.1469 6.03988 40.5465 7.09989L35.0917 9.17503C31.7829 10.3666 33.8348 10.3626 31.7187 9.59793C30.4945 9.15574 29.2841 8.76552 27.5787 8.76552V8.76512Z" fill="#254652"/>
<path fill-rule="evenodd" clip-rule="evenodd" d="M5.98315 20.2731C4.98103 20.2731 4.70421 19.6045 4.70421 18.8524C4.70421 17.2545 7.26171 17.1478 7.26171 18.9946C7.26171 19.6967 6.68524 20.2731 5.98315 20.2731ZM0.158203 19.5628C1.84469 20.4551 4.9637 23.2295 6.46906 23.6268C9.29274 24.3722 10.7918 21.6804 12.3204 19.3643C13.0292 18.2901 13.7131 17.425 14.4219 16.3512L17.6551 11.7702C18.6187 10.4727 20.4749 8.26018 20.4749 6.63393C20.4749 4.52415 19.0435 3.69252 17.7461 2.82781L13.7974 0.0986328C13.3135 0.453414 5.90283 11.1788 5.24642 12.1482C4.68216 12.9814 4.09821 13.7209 3.53867 14.5604C2.96298 15.4243 0.325947 18.9363 0.158597 19.5628H0.158203Z" fill="#254652"/>
<path fill-rule="evenodd" clip-rule="evenodd" d="M65.9391 21.4096C65.9391 19.5424 68.4966 19.4857 68.4966 21.4096C68.4966 23.1233 65.9391 23.0288 65.9391 21.4096ZM54.7152 7.20224C54.7152 9.16869 55.9402 10.9304 56.8939 12.8378L61.7242 22.4988C62.4251 23.9006 63.2642 25.956 65.6552 25.956C66.7695 25.956 68.493 24.8925 69.3963 24.4404C70.604 23.8364 71.7506 23.2969 72.9008 22.6882L62.3873 1.51904L57.8882 3.69774C57.1318 4.07575 56.3899 4.32697 55.8095 4.88691C55.2862 5.39132 54.7148 6.245 54.7148 7.20224H54.7152Z" fill="#254652"/>
</svg>
