<svg width="49" height="47" viewBox="0 0 49 47" fill="none" xmlns="http://www.w3.org/2000/svg">
<path fill-rule="evenodd" clip-rule="evenodd" d="M24.307 0.730469H25.1448C25.8216 0.81369 26.443 1.08554 26.8758 1.4961C27.9077 2.46146 27.8522 2.82209 28.3793 3.88732L29.6498 6.5171C29.9438 7.12739 30.2323 7.66555 30.5208 8.2481L33.0175 13.4522C33.2449 13.9071 33.2893 13.8184 33.8719 13.896L41.8001 15.0611C42.5879 15.1832 43.2869 15.2941 44.0637 15.3996C44.7794 15.4994 45.6005 15.5993 46.2385 15.8212C47.4924 16.254 48.3246 17.3858 48.43 18.6563V19.1833C48.3745 19.8546 48.1193 20.5371 47.6089 21.164L38.4046 30.3349C38.5933 31.1339 40.5406 42.6461 40.5406 43.3285C40.5406 45.3258 38.9594 46.7628 37.3838 46.7628H36.7347C35.4031 46.7628 25.3778 40.6377 24.6676 40.6377C24.3791 40.6377 21.4941 42.291 20.8339 42.6516L15.6964 45.4035C14.093 46.1913 13.8212 46.7628 11.9515 46.7628C10.3814 46.7628 8.79462 45.2038 8.79462 43.6059C8.79462 42.2355 9.59909 38.2354 9.84321 36.7651C10.0873 35.2838 10.6366 31.5888 10.9306 30.3349C10.5312 30.0686 9.94307 29.3973 9.56026 29.0145L1.68755 21.1141C0.982946 20.2153 0.905273 19.7659 0.905273 18.7395C0.905273 17.3525 1.9705 16.2373 3.15779 15.7935C3.81801 15.5438 11.3634 14.4897 12.1401 14.3843C12.9168 14.2788 13.6159 14.1679 14.4037 14.0458C15.7408 13.8405 16.0404 14.0236 16.3233 13.4577C16.8948 12.3093 17.4274 11.1386 18.0155 9.9569C18.1764 9.64066 18.304 9.38545 18.4483 9.0914L21.3832 2.93305C22.0878 1.52384 23.214 0.86917 24.307 0.736017V0.730469ZM15.0306 9.47977C15.53 9.47977 16.0016 9.60182 16.4177 9.81265C16.0237 10.6282 15.652 11.4327 15.2526 12.2316C14.9696 12.7975 14.67 12.6144 13.3329 12.8197C12.878 12.8918 12.4508 12.9584 12.018 13.0194C11.9903 12.8585 11.9792 12.6921 11.9792 12.5257C11.9792 10.839 13.344 9.47422 15.0306 9.47422V9.47977ZM8.86675 34.1021C7.44089 33.8469 6.35902 32.5986 6.35902 31.1006C6.35902 30.2684 6.6919 29.5138 7.23007 28.9646L8.04008 29.7746C8.4229 30.1574 9.00545 30.8287 9.41046 31.095C9.27176 31.6998 9.06648 32.876 8.87229 34.0965L8.86675 34.1021ZM27.3973 43.5227C26.898 44.5269 25.8605 45.2148 24.6676 45.2148C23.4859 45.2148 22.4595 44.538 21.9546 43.556C23.0421 42.9512 24.4679 42.169 24.6676 42.169C24.884 42.169 25.9659 42.7349 27.3973 43.5282V43.5227ZM42.2384 28.9479C42.7876 29.4972 43.126 30.2628 43.126 31.1006C43.126 32.5986 42.0442 33.8469 40.6128 34.1021C40.3409 32.5264 40.1301 31.3391 40.0746 31.1006L42.2328 28.9479H42.2384ZM34.2602 9.47422C35.9468 9.47422 37.3117 10.839 37.3117 12.5257C37.3117 12.6921 37.295 12.8585 37.2728 13.0194L34.9371 12.6755C34.3546 12.6033 34.3046 12.6865 34.0827 12.2316L32.9121 9.79046C33.3226 9.58518 33.7776 9.47422 34.2658 9.47422H34.2602ZM30.9924 28.3654C30.9924 28.8259 30.948 29.1754 30.8482 29.414C30.7539 29.6525 30.6263 29.7746 30.4654 29.7746H28.9175V32.9425C28.9175 33.0313 28.8897 33.109 28.8342 33.1755C28.7843 33.2421 28.6844 33.2976 28.5513 33.3475C28.4126 33.3864 28.2406 33.4252 28.0187 33.4474C27.8023 33.4696 27.5193 33.4807 27.1809 33.4807C26.8536 33.4807 26.5817 33.4696 26.3598 33.4474C26.1379 33.4252 25.9603 33.3864 25.8272 33.3475C25.6996 33.3032 25.6053 33.2477 25.5553 33.1755C25.5054 33.109 25.4832 33.0257 25.4832 32.9425V29.7746H18.8033C18.6813 29.7746 18.5648 29.7579 18.4649 29.7302C18.365 29.6969 18.2818 29.6248 18.2097 29.5138C18.1431 29.3973 18.0932 29.2364 18.0599 29.0256C18.0266 28.8148 18.0155 28.5318 18.0155 28.1767C18.0155 27.8882 18.0211 27.6386 18.0322 27.4278C18.0488 27.2169 18.071 27.0227 18.0987 26.8508C18.132 26.6788 18.1764 26.5179 18.2319 26.3625C18.2929 26.2127 18.365 26.0518 18.4594 25.8798L23.8798 16.315C23.9242 16.2373 24.0019 16.1652 24.1128 16.1097C24.2238 16.0487 24.3736 16.0043 24.5622 15.9599C24.7564 15.9211 25.0061 15.8933 25.3001 15.8711C25.5942 15.8545 25.9603 15.8434 26.3764 15.8434C26.8369 15.8434 27.2308 15.8545 27.5582 15.8767C27.8855 15.8989 28.1463 15.9377 28.3405 15.9876C28.5346 16.032 28.6789 16.0986 28.7677 16.1652C28.8564 16.2373 28.9008 16.3205 28.9008 16.4259V26.9284H30.4487C30.593 26.9284 30.715 27.0394 30.8149 27.2613C30.9203 27.4832 30.9702 27.8494 30.9702 28.3654H30.9924ZM25.4887 18.9115H25.461L20.8728 26.9284H25.4887V18.9115Z" fill="#254652"/>
</svg>
