<svg width="103" height="16" viewBox="0 0 103 16" fill="none" xmlns="http://www.w3.org/2000/svg">
<path fill-rule="evenodd" clip-rule="evenodd" d="M95.1044 0H1.30598C0.587673 0 0 0.587673 0 1.30603C0 2.02433 0.587798 2.61201 1.30598 2.61201H93.8012V4.82202V11.5247L90.3644 7.48456C89.4405 6.3985 87.209 7.38899 88.6495 9.08302L93.9933 15.365C94.7179 16.2169 95.613 16.204 96.3198 15.3723L101.567 9.19862C102.909 7.62056 101.054 6.18561 99.816 7.64259L96.4105 11.6493V4.82201V1.75876V1.30463C96.4105 0.587087 95.8234 0 95.1058 0C95.1056 0 95.1053 5.97068e-08 95.1051 1.79107e-07C95.1049 5.97072e-08 95.1047 0 95.1044 0Z" fill="#D8B164" fill-opacity="0.5"/>
</svg>
