<svg width="38" height="49" viewBox="0 0 38 49" fill="none" xmlns="http://www.w3.org/2000/svg">
<path fill-rule="evenodd" clip-rule="evenodd" d="M6.48568 39.7501C6.48568 39.0602 6.83008 38.7158 7.51998 38.7158H23.3302C24.866 38.7158 24.6178 40.7844 23.1824 40.7844H7.66784C7.03546 40.7844 6.48568 40.329 6.48568 39.7501ZM11.4197 44.8589L11.5167 45.5002H11.5436L11.6513 44.8538L12.3733 42.6447H13.1491L11.7483 46.4434H11.2202L9.80872 42.6447H10.6653L11.4197 44.8593V44.8589ZM13.4994 42.6443H14.2376V46.4161H13.4994V42.6443ZM16.5868 45.4028C16.5868 45.2878 16.5448 45.1945 16.4603 45.1226C16.3759 45.0507 16.2701 44.9851 16.1425 44.9261C16.0149 44.8667 15.8766 44.8058 15.7276 44.7428C15.5787 44.6801 15.4404 44.6027 15.3128 44.5112C15.1852 44.4198 15.0794 44.3055 14.995 44.169C14.9105 44.0326 14.8685 43.8582 14.8685 43.6465C14.8685 43.4633 14.8991 43.3044 14.9599 43.1698C15.0212 43.0352 15.1082 42.9227 15.2214 42.8331C15.3346 42.7431 15.4684 42.6768 15.6229 42.6336C15.7774 42.5905 15.95 42.5691 16.1403 42.5691C16.3593 42.5691 16.5658 42.5879 16.7597 42.6255C16.9537 42.6631 17.1134 42.7181 17.2391 42.79L17.0075 43.4094C16.9286 43.3593 16.8099 43.3132 16.6521 43.2719C16.4939 43.2306 16.3235 43.21 16.1403 43.21C15.9677 43.21 15.8357 43.2443 15.7442 43.3125C15.6528 43.3807 15.6067 43.4725 15.6067 43.5872C15.6067 43.6948 15.6487 43.7848 15.7332 43.8567C15.8176 43.9286 15.9234 43.995 16.051 44.0562C16.1786 44.1174 16.3169 44.1801 16.4659 44.2446C16.6148 44.3092 16.7531 44.3873 16.8807 44.4791C17.0083 44.5706 17.1141 44.6838 17.1985 44.8188C17.283 44.9533 17.325 45.1215 17.325 45.3224C17.325 45.5234 17.2918 45.6967 17.2254 45.8424C17.1591 45.9876 17.0658 46.109 16.9452 46.2059C16.825 46.3029 16.6794 46.3748 16.5086 46.4216C16.3379 46.4685 16.1502 46.4917 15.9456 46.4917C15.676 46.4917 15.4389 46.4666 15.2343 46.4161C15.0296 46.366 14.8788 46.3154 14.7818 46.2653L15.0189 45.6348C15.0584 45.6561 15.1096 45.6797 15.1723 45.7048C15.235 45.7299 15.3062 45.7535 15.3851 45.7749C15.464 45.7963 15.5477 45.8143 15.6355 45.8287C15.7236 45.8431 15.8143 45.8501 15.9076 45.8501C16.1266 45.8501 16.2948 45.8132 16.4113 45.7395C16.5282 45.6657 16.5864 45.5536 16.5864 45.4028H16.5868ZM19.6742 45.5806H18.5157L18.2303 46.4157H17.492L18.8497 42.617H19.394L20.7517 46.4157H19.9758L19.6742 45.5806ZM18.7044 44.988H19.5127L19.2325 44.1473L19.1193 43.5547H19.0924L18.9792 44.1528L18.7044 44.988ZM10.2759 18.4771C9.70658 18.313 9.17818 18.1216 8.69956 17.9077C9.65754 16.9468 10.8224 16.1928 12.1218 15.7171C11.3991 16.4269 10.7711 17.3679 10.2759 18.4771ZM8.69956 31.1726C9.18556 30.9554 9.72243 30.7622 10.3013 30.5963C10.8168 31.7346 11.4728 32.6929 12.228 33.402C10.8858 32.9289 9.68335 32.1597 8.69919 31.173L8.69956 31.1726ZM9.90053 25.0509H14.8408V29.1239C13.3854 29.1593 12.0093 29.3452 10.7737 29.6508C10.2693 28.3134 9.95621 26.7419 9.90053 25.0509ZM5.97166 25.0509H9.08305C9.1391 26.809 9.4669 28.4495 9.99862 29.864C9.3301 30.0668 8.71173 30.3061 8.15457 30.5767C6.88612 29.0657 6.0845 27.1501 5.97203 25.0509H5.97166ZM19.929 29.6508C18.6934 29.3452 17.3173 29.1593 15.8619 29.1239V25.0509H20.8022C20.7465 26.7419 20.4334 28.3138 19.929 29.6508ZM22.5481 30.5764C21.991 30.3057 21.3722 30.0664 20.7041 29.8636C21.2358 28.4495 21.5632 26.8086 21.6197 25.0505H24.731C24.6186 27.1497 23.817 29.0653 22.5485 30.5764H22.5481ZM20.4014 30.5959C20.9803 30.7618 21.5175 30.9551 22.0031 31.1722C21.019 32.1593 19.8165 32.9285 18.4744 33.4012C19.2295 32.6922 19.8859 31.7342 20.401 30.5955L20.4014 30.5959ZM15.8619 33.9001V29.9403C17.2074 29.9727 18.4784 30.1324 19.6178 30.3942C18.717 32.3404 17.3796 33.6568 15.8619 33.9001ZM11.0849 30.3942C12.2243 30.1328 13.4953 29.9727 14.8408 29.9403V33.9001C13.3231 33.6568 11.9857 32.3404 11.0849 30.3942ZM8.15457 18.5036C8.70583 18.7713 9.31682 19.0084 9.97686 19.2097C9.45178 20.6279 9.13098 22.271 9.08157 24.0295H5.97166C6.08413 21.9303 6.88576 20.0147 8.1542 18.5036H8.15457ZM10.7512 19.4236C11.9924 19.7326 13.3766 19.9203 14.8408 19.9561V24.0291H9.89832C9.94699 22.3385 10.2538 20.7651 10.7512 19.4236ZM20.8044 24.0291H15.8619V19.9561C17.3261 19.9203 18.7103 19.7326 19.9515 19.4236C20.4493 20.7651 20.7557 22.3385 20.8044 24.0291ZM24.7307 24.0291H21.6208C21.5714 22.2706 21.2506 20.6275 20.7255 19.2094C21.3855 19.0081 21.9969 18.771 22.5478 18.5033C23.8162 20.0143 24.6178 21.9299 24.7303 24.0291H24.7307ZM22.0031 17.9074C21.5245 18.1212 20.9961 18.3126 20.4268 18.4767C19.9316 17.3675 19.304 16.4265 18.5809 15.7167C19.88 16.1924 21.0448 16.9468 22.0031 17.9074ZM19.6451 18.6791C18.4987 18.9443 17.2181 19.1065 15.8619 19.1393V15.1603C15.9706 15.1662 16.0787 15.1739 16.1864 15.1832C17.5846 15.5537 18.8081 16.841 19.6451 18.6791ZM14.8408 15.1603V19.1393C13.485 19.1065 12.2044 18.9443 11.058 18.6791C11.895 16.841 13.1185 15.5537 14.5171 15.1832C14.6248 15.1736 14.7328 15.1662 14.8412 15.1603H14.8408ZM11.9529 2.36631C12.7656 2.36631 31.9147 7.54814 33.952 8.14623C37.3326 9.13813 36.2669 9.31586 34.6209 15.8734L30.553 31.0141C30.4191 31.4643 30.2731 32.0926 30.1588 32.541L29.8613 33.5734C29.5309 34.4934 30.1293 32.9282 29.7779 33.7855L29.6839 33.9872C29.6839 31.2618 29.8561 12.4376 29.5991 11.4648C29.1986 9.95045 28.015 9.30627 26.1429 9.30627L9.14536 9.31143L10.1273 5.41722C10.4831 4.19745 10.5477 2.36668 11.9525 2.36668L11.9529 2.36631ZM7.66784 9.31106C4.46096 9.31106 0.427734 8.61379 0.427734 12.414V45.9552C0.427734 47.4655 1.72494 48.7627 3.23528 48.7627H27.0246C27.7314 48.7627 28.1717 48.5474 28.6326 48.1543C30.8487 46.2649 28.8963 42.7903 29.8255 39.2999C30.6857 36.069 31.6728 32.7349 32.4619 29.5247C33.6209 24.8105 35.2009 19.6463 36.3912 14.8366C37.1191 11.8963 38.8945 8.52197 36.0143 7.26532C35.1692 6.89659 33.7068 6.54813 32.6994 6.29518C30.3303 5.70041 28.0703 5.04075 25.8107 4.46626C23.6525 3.91721 13.2037 0.88916 11.9522 0.88916C9.2593 0.88916 8.96321 4.06065 8.28953 6.68346C8.08894 7.46444 7.68554 8.47809 7.66711 9.3118L7.66784 9.31106Z" fill="#254652"/>
</svg>
