<svg width="68" height="47" viewBox="0 0 68 47" fill="none" xmlns="http://www.w3.org/2000/svg">
<path fill-rule="evenodd" clip-rule="evenodd" d="M34.0319 0.731624C41.2731 0.731624 47.7321 4.07667 51.9507 9.30512H56.7251C62.7092 9.30512 67.6049 14.2008 67.6049 20.1849V28.0605C67.6049 34.0446 62.7092 38.9403 56.7251 38.9403H51.3175C47.1001 43.7355 40.9196 46.7628 34.0307 46.7628C27.1419 46.7628 20.9625 43.7355 16.7439 38.9403H11.5802C8.23627 38.9403 5.23208 37.4116 3.23198 35.0175H3.23083V35.0164C1.65247 33.1272 0.699219 30.6996 0.699219 28.0605V26.2742V20.1849C0.699219 19.2559 0.817075 18.3524 1.04008 17.4892V17.4881C2.08115 13.444 5.40424 10.2919 9.53847 9.49808L9.53963 9.49693H9.54309C10.2029 9.37098 10.8834 9.30397 11.579 9.30397H16.1096C20.3281 4.07552 26.7871 0.730469 34.0284 0.730469L34.0319 0.731624ZM28.8404 42.7672C28.8404 42.8261 28.8381 42.8758 28.8335 42.9162C28.8277 42.9567 28.8196 42.989 28.8104 43.0145C28.8 43.0399 28.7872 43.0584 28.7722 43.0676C28.7572 43.078 28.7399 43.0826 28.7225 43.0826H26.4128C26.3319 43.0826 26.2707 43.0595 26.2268 43.0133C26.1828 42.9671 26.162 42.8989 26.162 42.8099V42.6771C26.162 42.6355 26.1644 42.5996 26.169 42.5661C26.1748 42.5315 26.1828 42.4991 26.1944 42.4633C26.2071 42.4286 26.2244 42.3917 26.2475 42.3512C26.2718 42.3108 26.3007 42.2622 26.3342 42.2056L27.8548 39.7942H26.3481C26.3238 39.7942 26.303 39.7884 26.2857 39.778C26.2683 39.7665 26.2545 39.7491 26.2429 39.7249C26.2314 39.7006 26.2233 39.6682 26.2187 39.6278C26.214 39.5874 26.2117 39.5388 26.2117 39.4822C26.2117 39.4221 26.214 39.3713 26.2187 39.3297C26.2233 39.2869 26.2325 39.2546 26.2429 39.2292C26.2545 39.2038 26.2683 39.1853 26.2857 39.176C26.3019 39.1656 26.3227 39.161 26.3481 39.161H28.5122C28.5954 39.161 28.6555 39.1818 28.6948 39.2246C28.7341 39.2673 28.7537 39.3274 28.7537 39.4036V39.5527C28.7537 39.607 28.7514 39.6544 28.7468 39.6937C28.741 39.733 28.7318 39.7711 28.7191 39.8081C28.7064 39.845 28.689 39.8832 28.6659 39.9236C28.644 39.9629 28.6151 40.0091 28.5816 40.0646L27.0864 42.4425H28.7237C28.7618 42.4425 28.7907 42.4668 28.8115 42.5153C28.8312 42.5638 28.8416 42.647 28.8416 42.766L28.8404 42.7672ZM33.2739 41.0767C33.2739 41.4014 33.2334 41.6915 33.1526 41.948C33.0717 42.2045 32.9515 42.4229 32.7921 42.5996C32.6326 42.7787 32.435 42.9151 32.2005 43.0087C31.9648 43.1023 31.6932 43.1496 31.3836 43.1496C31.0785 43.1496 30.8128 43.1092 30.5863 43.0295C30.3587 42.9497 30.1692 42.8296 30.0178 42.6643C29.8664 42.5014 29.7532 42.2934 29.6781 42.0416C29.603 41.7897 29.5649 41.4904 29.5649 41.1449C29.5649 40.8283 29.6053 40.5429 29.6862 40.2899C29.7671 40.0368 29.8872 39.8219 30.0467 39.644C30.2061 39.466 30.4037 39.3297 30.6383 39.2361C30.874 39.1414 31.1467 39.094 31.4575 39.094C31.7545 39.094 32.0156 39.1333 32.2432 39.2118C32.4697 39.2904 32.6603 39.4117 32.8117 39.5758C32.9642 39.7387 33.0798 39.9444 33.1572 40.194C33.2346 40.4436 33.2739 40.737 33.2739 41.0767ZM32.4362 41.1172C32.4362 40.9115 32.42 40.7243 32.3877 40.5556C32.3553 40.3869 32.301 40.2425 32.2236 40.1223C32.1462 40.0022 32.0422 39.9097 31.9139 39.8427C31.7845 39.778 31.6239 39.7445 31.4298 39.7445C31.2345 39.7445 31.0716 39.7815 30.941 39.8554C30.8093 39.9282 30.703 40.0276 30.6221 40.1512C30.5412 40.2737 30.4846 40.4181 30.4511 40.5822C30.4176 40.7474 30.4014 40.9208 30.4014 41.1056C30.4014 41.3194 30.4176 41.5124 30.4499 41.6822C30.4823 41.8532 30.5366 41.9988 30.6129 42.1201C30.6891 42.2415 30.792 42.3327 30.9214 42.3974C31.0508 42.461 31.2126 42.4922 31.4078 42.4922C31.6031 42.4922 31.766 42.4564 31.8966 42.3824C32.0283 42.3096 32.1346 42.2103 32.2155 42.0855C32.2964 41.9607 32.353 41.8151 32.3865 41.6487C32.42 41.4823 32.4362 41.3044 32.4362 41.116V41.1172ZM37.6196 42.803C37.6196 42.8492 37.6115 42.8908 37.5953 42.9278C37.5791 42.9636 37.5572 42.9937 37.5294 43.0191C37.5029 43.0433 37.4705 43.0607 37.4335 43.0722C37.3954 43.0838 37.3584 43.0884 37.3203 43.0884H36.9806C36.909 43.0884 36.8477 43.0815 36.7969 43.0676C36.746 43.0537 36.6987 43.0272 36.6548 42.9902C36.6097 42.9532 36.5693 42.9024 36.5288 42.8377C36.4884 42.7741 36.4433 42.6921 36.3925 42.5904L35.4196 40.7578C35.363 40.6481 35.3063 40.5302 35.2474 40.4043C35.1885 40.2783 35.1365 40.1547 35.0903 40.0368H35.0845C35.0926 40.1824 35.0995 40.3269 35.103 40.4724C35.1076 40.6157 35.1088 40.7659 35.1088 40.9184V42.9705C35.1088 42.9902 35.1041 43.0087 35.0926 43.0248C35.081 43.0399 35.0614 43.0537 35.0348 43.0653C35.0082 43.0768 34.9713 43.0849 34.9239 43.0907C34.8777 43.0965 34.8176 43.1 34.7448 43.1C34.6731 43.1 34.6142 43.0965 34.568 43.0907C34.5218 43.0849 34.4848 43.0768 34.4594 43.0653C34.4328 43.0549 34.4143 43.041 34.4051 43.0248C34.3947 43.0087 34.3901 42.9902 34.3901 42.9705V39.4476C34.3901 39.3528 34.4178 39.2812 34.4733 39.2338C34.5276 39.1864 34.5969 39.1622 34.6778 39.1622H35.1053C35.1815 39.1622 35.2474 39.1679 35.2994 39.1818C35.3526 39.1957 35.3988 39.2165 35.4404 39.2465C35.482 39.2765 35.5213 39.3193 35.5571 39.3724C35.5929 39.4256 35.631 39.4926 35.6692 39.5712L36.4306 41.0051C36.4757 41.0918 36.5184 41.1773 36.5623 41.2616C36.6062 41.346 36.6478 41.4292 36.6871 41.5124C36.7276 41.5967 36.7668 41.6787 36.805 41.7596C36.8443 41.8417 36.8812 41.9214 36.917 42.0023H36.9205C36.9147 41.8601 36.909 41.7122 36.9055 41.5597C36.902 41.4061 36.9009 41.2593 36.9009 41.1195V39.28C36.9009 39.2604 36.9067 39.2419 36.9194 39.2257C36.9309 39.2107 36.9517 39.1957 36.9794 39.183C37.0083 39.1702 37.0453 39.1622 37.0927 39.1575C37.1389 39.1518 37.199 39.1506 37.2718 39.1506C37.3411 39.1506 37.3989 39.1529 37.4451 39.1575C37.4913 39.1622 37.5271 39.1714 37.5525 39.183C37.578 39.1957 37.5965 39.2095 37.6057 39.2257C37.6161 39.2419 37.6207 39.2604 37.6207 39.28V42.803H37.6196ZM41.2361 42.7695C41.2361 42.8284 41.2338 42.877 41.2292 42.9174C41.2234 42.9567 41.2165 42.989 41.2061 43.0121C41.1957 43.0364 41.183 43.0549 41.168 43.0653C41.153 43.0768 41.1356 43.0815 41.1183 43.0815H39.1517C39.0858 43.0815 39.0292 43.0618 38.9842 43.0225C38.9391 42.9833 38.916 42.9197 38.916 42.8307V39.4129C38.916 39.3239 38.9391 39.2604 38.9842 39.2211C39.0292 39.1818 39.0858 39.1622 39.1517 39.1622H41.1079C41.1252 39.1622 41.1426 39.1668 41.1564 39.1772C41.1703 39.1876 41.1818 39.2049 41.1922 39.2303C41.2015 39.2557 41.2096 39.2881 41.2154 39.3274C41.22 39.3678 41.2223 39.4175 41.2223 39.4787C41.2223 39.5354 41.22 39.5827 41.2154 39.6232C41.2107 39.6625 41.2026 39.6948 41.1922 39.7179C41.1818 39.7422 41.1691 39.7607 41.1564 39.7711C41.1426 39.7826 41.1252 39.7873 41.1079 39.7873H39.7098V40.7428H40.8884C40.9068 40.7428 40.923 40.7486 40.938 40.759C40.9531 40.7706 40.9658 40.7867 40.9762 40.811C40.9866 40.8341 40.9935 40.8641 40.9993 40.9046C41.0039 40.9439 41.0062 40.9912 41.0062 41.0467C41.0062 41.1056 41.0039 41.1542 40.9993 41.1923C40.9935 41.2304 40.9866 41.2616 40.9762 41.2847C40.9658 41.309 40.9531 41.3252 40.938 41.3344C40.923 41.3448 40.9068 41.3494 40.8884 41.3494H39.7098V42.4529H41.1171C41.1356 42.4529 41.1518 42.4587 41.1668 42.4691C41.1818 42.4806 41.1946 42.498 41.205 42.5222C41.2154 42.5465 41.2223 42.5777 41.2281 42.617C41.2327 42.6574 41.235 42.7059 41.235 42.7649L41.2361 42.7695ZM29.3939 5.68392C29.3939 5.74516 29.3916 5.796 29.3869 5.83644C29.3812 5.87803 29.3731 5.91039 29.3615 5.93581C29.35 5.96007 29.3372 5.97856 29.3245 5.99011C29.3107 6.00282 29.2933 6.0086 29.276 6.0086H27.9923V7.06353H29.1963C29.2148 7.06353 29.2309 7.06815 29.2448 7.07855C29.2598 7.0878 29.2714 7.10513 29.2829 7.12939C29.2945 7.15481 29.3014 7.18601 29.3072 7.22645C29.313 7.26689 29.3153 7.31773 29.3153 7.37782C29.3153 7.4379 29.3118 7.48874 29.3072 7.52918C29.3026 7.56962 29.2945 7.60198 29.2829 7.62971C29.2714 7.65513 29.2587 7.67361 29.2448 7.68517C29.2309 7.69672 29.2148 7.70135 29.1963 7.70135H27.9923V9.16185C27.9923 9.1838 27.9865 9.20344 27.9738 9.21962C27.9622 9.23464 27.9403 9.2485 27.9091 9.26006C27.8779 9.27161 27.8363 9.2797 27.7866 9.28548C27.7358 9.29126 27.6711 9.29472 27.5925 9.29472C27.5162 9.29472 27.4515 9.29126 27.4007 9.28548C27.3487 9.2797 27.3083 9.27161 27.2782 9.26006C27.2482 9.24966 27.2262 9.23579 27.2135 9.21962C27.1996 9.20344 27.1939 9.1838 27.1939 9.16185V5.60766C27.1939 5.51869 27.217 5.45514 27.262 5.41585C27.3071 5.37656 27.3637 5.35692 27.4307 5.35692H29.2783C29.2956 5.35692 29.313 5.36154 29.3268 5.3731C29.3407 5.38465 29.3523 5.40198 29.3638 5.4274C29.3754 5.45167 29.3835 5.48633 29.3892 5.52909C29.3939 5.57184 29.3962 5.62268 29.3962 5.68276L29.3939 5.68392ZM33.3906 9.17455C33.3906 9.19651 33.386 9.215 33.3779 9.23002C33.3698 9.24504 33.3513 9.25775 33.3213 9.26815C33.2901 9.27739 33.2473 9.28432 33.1884 9.28895C33.1295 9.29357 33.0497 9.29472 32.9492 9.29472C32.8649 9.29472 32.7967 9.29241 32.747 9.28895C32.6962 9.28432 32.6557 9.27739 32.6268 9.26584C32.5979 9.25428 32.5771 9.24157 32.5644 9.22308C32.5529 9.20575 32.5425 9.18495 32.5344 9.16069L32.1808 8.2837C32.1381 8.18433 32.0976 8.09536 32.0572 8.0191C32.0167 7.94168 31.9717 7.87698 31.922 7.82614C31.8723 7.77414 31.8145 7.73601 31.7498 7.70943C31.6863 7.68401 31.61 7.67015 31.5257 7.67015H31.2761V9.16762C31.2761 9.18727 31.2703 9.20575 31.2565 9.22193C31.2426 9.23811 31.2218 9.25197 31.1918 9.26237C31.1617 9.27161 31.1213 9.2797 31.0704 9.28663C31.0207 9.29241 30.956 9.29588 30.8786 9.29588C30.8024 9.29588 30.7377 9.29241 30.6868 9.28663C30.6348 9.28086 30.5944 9.27277 30.5643 9.26237C30.5343 9.25197 30.5123 9.2381 30.5008 9.22308C30.4881 9.20691 30.4823 9.18842 30.4823 9.16878V5.60881C30.4823 5.51984 30.5054 5.45629 30.5505 5.41701C30.5955 5.37772 30.6522 5.35808 30.718 5.35808H31.7337C31.8365 5.35808 31.922 5.36039 31.9879 5.36385C32.0537 5.36848 32.115 5.3731 32.1693 5.37888C32.3264 5.40198 32.4685 5.44011 32.5945 5.49442C32.7204 5.54757 32.8279 5.61921 32.9157 5.70703C33.0035 5.79484 33.0705 5.89883 33.1167 6.01784C33.163 6.13801 33.1861 6.27551 33.1861 6.4315C33.1861 6.56206 33.1699 6.68108 33.1364 6.78969C33.1029 6.8983 33.0532 6.99421 32.9885 7.07855C32.9238 7.1629 32.8452 7.23685 32.7493 7.29925C32.6546 7.3628 32.5459 7.41248 32.4246 7.45177C32.4836 7.4795 32.5379 7.51416 32.5899 7.5546C32.6419 7.59504 32.6904 7.64473 32.7354 7.7025C32.7805 7.76027 32.8244 7.82498 32.8649 7.90008C32.9053 7.97288 32.9446 8.05723 32.9827 8.14966L33.3143 8.92382C33.3444 9.00008 33.3652 9.05554 33.3744 9.09252C33.3848 9.12718 33.3894 9.15607 33.3894 9.17571L33.3906 9.17455ZM32.3611 6.51238C32.3611 6.38297 32.3322 6.2732 32.2733 6.18539C32.2143 6.09642 32.1184 6.03286 31.9844 5.99705C31.944 5.98665 31.8989 5.97971 31.8469 5.97278C31.7949 5.967 31.7244 5.96354 31.6331 5.96354H31.2749V7.07393H31.6817C31.7949 7.07393 31.8931 7.06007 31.9786 7.03234C32.0641 7.00576 32.1346 6.96763 32.1912 6.91795C32.2478 6.86942 32.2906 6.80933 32.3183 6.74116C32.3461 6.67299 32.3611 6.59673 32.3611 6.51122V6.51238ZM36.7368 8.96311C36.7368 9.02203 36.7345 9.07056 36.7299 9.111C36.7241 9.15029 36.7172 9.18264 36.7068 9.20575C36.6964 9.23002 36.6836 9.2485 36.6686 9.2589C36.6536 9.27046 36.6363 9.27508 36.6189 9.27508H34.6523C34.5865 9.27508 34.5299 9.25544 34.4848 9.21615C34.4397 9.17687 34.4166 9.11332 34.4166 9.02435V5.6065C34.4166 5.51753 34.4397 5.45398 34.4848 5.41469C34.5299 5.37541 34.5865 5.35577 34.6523 5.35577H36.6085C36.6259 5.35577 36.6432 5.36039 36.6571 5.37079C36.6709 5.38119 36.6825 5.39852 36.6929 5.42394C36.7021 5.44936 36.7102 5.48171 36.716 5.521C36.7206 5.56144 36.7229 5.61112 36.7229 5.67236C36.7229 5.72898 36.7206 5.77635 36.716 5.81679C36.7114 5.85608 36.7033 5.88843 36.6929 5.91154C36.6825 5.93581 36.6698 5.95429 36.6571 5.96469C36.6432 5.97625 36.6259 5.98087 36.6085 5.98087H35.2104V6.93643H36.389C36.4075 6.93643 36.4237 6.94221 36.4387 6.95261C36.4537 6.96416 36.4664 6.98034 36.4768 7.0046C36.4872 7.02771 36.4941 7.05776 36.4999 7.0982C36.5046 7.13748 36.5069 7.18486 36.5069 7.24032C36.5069 7.29925 36.5046 7.34778 36.4999 7.38591C36.4941 7.42404 36.4872 7.45523 36.4768 7.47834C36.4664 7.50261 36.4537 7.51878 36.4387 7.52803C36.4237 7.53843 36.4075 7.54305 36.389 7.54305H35.2104V8.64651H36.6178C36.6363 8.64651 36.6524 8.65229 36.6675 8.66269C36.6825 8.67424 36.6952 8.69157 36.7056 8.71584C36.716 8.7401 36.7229 8.7713 36.7287 8.81059C36.7333 8.85103 36.7356 8.89956 36.7356 8.95848L36.7368 8.96311ZM40.2055 8.96311C40.2055 9.02203 40.2032 9.07056 40.1985 9.111C40.1928 9.15029 40.1858 9.18264 40.1754 9.20575C40.165 9.23002 40.1523 9.2485 40.1373 9.2589C40.1223 9.27046 40.105 9.27508 40.0876 9.27508H38.121C38.0552 9.27508 37.9986 9.25544 37.9535 9.21615C37.9084 9.17687 37.8853 9.11332 37.8853 9.02435V5.6065C37.8853 5.51753 37.9084 5.45398 37.9535 5.41469C37.9986 5.37541 38.0552 5.35577 38.121 5.35577H40.0772C40.0946 5.35577 40.1119 5.36039 40.1258 5.37079C40.1396 5.38119 40.1512 5.39852 40.1616 5.42394C40.1708 5.44936 40.1789 5.48171 40.1847 5.521C40.1893 5.56144 40.1916 5.61112 40.1916 5.67236C40.1916 5.72898 40.1893 5.77635 40.1847 5.81679C40.1801 5.85608 40.172 5.88843 40.1616 5.91154C40.1512 5.93581 40.1385 5.95429 40.1258 5.96469C40.1119 5.97625 40.0946 5.98087 40.0772 5.98087H38.6791V6.93643H39.8577C39.8762 6.93643 39.8923 6.94221 39.9074 6.95261C39.9224 6.96416 39.9351 6.98034 39.9455 7.0046C39.9559 7.02771 39.9628 7.05776 39.9686 7.0982C39.9732 7.13748 39.9755 7.18486 39.9755 7.24032C39.9755 7.29925 39.9732 7.34778 39.9686 7.38591C39.9628 7.42404 39.9559 7.45523 39.9455 7.47834C39.9351 7.50261 39.9224 7.51878 39.9074 7.52803C39.8923 7.53843 39.8762 7.54305 39.8577 7.54305H38.6791V8.64651H40.0865C40.105 8.64651 40.1211 8.65229 40.1362 8.66269C40.1512 8.67424 40.1639 8.69157 40.1743 8.71584C40.1847 8.7401 40.1916 8.7713 40.1974 8.81059C40.202 8.85103 40.2043 8.89956 40.2043 8.95848L40.2055 8.96311ZM26.5514 16.1269C24.2035 17.0028 25.4688 20.4588 28.4383 19.4812C30.9595 18.6516 29.5291 15.0154 26.5514 16.1269ZM25.6097 31.4056L29.38 31.4148L29.3858 20.7961L25.6791 20.7719L25.6086 31.4044L25.6097 31.4056ZM9.45875 31.4044L13.1955 31.4287L14.9056 22.735L16.4851 31.3674L20.3085 31.431L23.8222 16.7509L19.6302 16.7486L18.3847 24.9697L17.1922 18.7383C16.7162 16.2829 17.5366 16.7486 12.9806 16.7555L11.4357 24.95L10.1832 16.7486H5.97735L9.45759 31.4021L9.45875 31.4044ZM56.2814 16.1836C53.6908 17.532 55.7915 20.5373 58.4271 19.4281C60.8639 18.402 58.9089 14.8167 56.2814 16.1836ZM55.394 31.4368L59.2001 31.4194L59.2047 20.8031L55.4853 20.7592L55.394 31.4356V31.4368ZM40.336 18.8584L40.3545 31.4356L44.4009 31.4275L44.4183 26.9443L52.1887 26.9397L52.2407 23.4803L44.4795 23.4837H44.3258L44.3859 20.223L53.0576 20.2103L53.0981 16.8168L40.3303 16.7416L40.3349 18.8596L40.336 18.8584ZM42.112 11.9904C37.0176 13.1724 35.1284 18.4679 35.1296 22.9465C35.1296 27.4239 36.1013 32.0526 30.5019 36.2562H53.3557H56.7274C61.229 36.2562 64.9219 32.5633 64.9219 28.0617V20.1861C64.9219 15.6844 61.229 11.9916 56.7274 11.9916H53.8214H42.112V11.9904Z" fill="#254652"/>
</svg>
