<svg width="169" height="59" fill="none" xmlns="http://www.w3.org/2000/svg"><path fill-rule="evenodd" clip-rule="evenodd" d="M152.823 12.726l7.554 3.368c-.56-.012-.998-.148-1.479-.297-.22-.068-.449-.139-.703-.202-10.73-2.678-20.505-4.625-31.742-6.197-3.294-.462-14.973-1.849-18.38-1.932l-.675-.015h-.001c-1.347-.028-3.097-.065-4.258-.224-.65-.09-1.429-.093-2.227-.096-.872-.004-1.766-.008-2.534-.125-1.847-.28-4.802-.212-7.367-.153-.977.022-1.897.043-2.678.043-15.026 0-32.99 1.325-46.833 3.942-.981.186-1.964.356-2.94.526-1.909.33-3.794.657-5.602 1.088l-12.34 2.797a85.37 85.37 0 00-1.796.477c-.733.2-1.444.394-2.15.559.51-.699 5.45-2.626 7.148-3.288l.486-.19c7.924-3.19 16.543-6.089 24.899-8.058 36.002-8.484 70.007-5.466 103.618 7.978zm7.554 3.368v.191l.224-.16-.224-.032zm-57.727 7.834c2.213-.057 3.457-.089 3.502 1.938.27-.18.529-.375.789-.57 1.016-.764 2.046-1.537 3.81-1.537 2.362 0 4.455.802 4.982 3.065.286-.209.482-.46.695-.732.343-.44.728-.932 1.598-1.382 1.845-.954 2.427-.954 4.309-.951h.296c3.717 0 6.131 3.127 6.131 6.897v12.455h-5.365V30.465c0-3.514-5.557-3.283-5.557.191v12.455h-5.364V31.039c0-5.043-5.749-2.7-5.749-1.34V43.11h-5.365V23.95c.46 0 .89-.011 1.288-.022zM11.986 25.07c.258.893.603 1.851.945 2.797.21.58.417 1.157.602 1.711.09.268.215.618.355 1.008.43 1.199.996 2.776 1.059 3.519h-5.94l2.98-9.035zM.001 43.11c.395 0 .875.023 1.39.048 1.64.08 3.637.178 4.377-.413.59-.47 1.623-3.428 1.705-4.426h9.005c1.168 5.011 1.807 4.985 5.199 4.847.65-.026 1.4-.056 2.275-.056l-8.815-23.76H8.814L2.18 37.05c-.121.339-.346.91-.607 1.575C.923 40.279.051 42.502 0 43.109h.001zm88.179-7.243c-2.87.858-3.076 3.794.153 3.794h.001c1.386 0 2.147-.425 2.929-1.095.799-.686.783-1.086.738-2.2a26.312 26.312 0 01-.027-1.112c-.352.169-.73.185-1.226.207-.617.026-1.414.06-2.568.406zm-3.68-6.362c-1.512 0-2.415-1.724-2.683-2.873.319-.214.604-.416.876-.608.97-.685 1.764-1.247 3.262-1.77 5.21-1.815 11.191.234 11.191 6.784V43.11c-.364 0-.694 0-.992.002h-.002c-1.983.005-2.602.007-2.902-.301-.137-.14-.208-.345-.31-.642-.088-.252-.198-.572-.392-.976-.244.164-.477.328-.706.489-1.36.956-2.574 1.81-5.043 1.81-5.242 0-6.798-4.452-5.427-7.342 1.63-3.437 7-4.154 10.6-4.154 0-1.662-.176-4.024-2.299-4.024-2.135 0-2.982.546-3.664.986-.462.298-.849.547-1.509.547zM65.34 43.111h5.364v-8.814h8.24c0-.683.025-1.315.049-1.877.069-1.665.113-2.722-.624-2.722h-7.664v-5.94h9.772V19.35H65.341v23.76zm93.608 5.346c-.607.324-1.401.297-2.718.252a55.443 55.443 0 00-1.985-.042h-.001c.149-.64.575-1.5.941-2.24.15-.304.291-.588.398-.829a84.22 84.22 0 011.025-2.205c.529-1.104.758-1.584.738-2.052-.015-.36-.177-.714-.464-1.339l-.212-.467-6.258-15.586c.238 0 .559-.004.926-.01 1.485-.02 3.729-.05 4.291.158.901.335 1.932 3.68 2.861 6.692v.001c.639 2.071 1.229 3.985 1.695 4.655.053-.645.436-1.703.738-2.54v-.001c.093-.257.178-.494.244-.69.606-1.813 1.024-3.233 1.352-4.346.636-2.161.93-3.16 1.596-3.61.572-.388 1.418-.37 2.992-.334a81.87 81.87 0 001.892.025c-.021.957-4.348 11.668-5.268 13.944l-.001.002v.002l-.15.37a247.079 247.079 0 00-1.978 5.11l-.001.002c-1.238 3.283-1.729 4.586-2.653 5.078zM42.155 24.142a5.04 5.04 0 00-1.099.15c-.162.034-.34.073-.556.112-.2.036-.368.057-.51.075-.278.036-.45.057-.556.153-.17.154-.167.499-.159 1.399v.005c.002.226.005.487.005.789 0 .343.04.463.097.631.028.085.061.182.095.327l.02.005c.565.131.778.181.993.197.13.009.262.006.473 0 .188-.004.44-.01.813-.01v9.773c0 7.832 8.827 6.101 10.347 3.832-.22-.82-1.476-2.643-2.107-3.066a2.286 2.286 0 00-.29.118c-.763.342-2.584 1.157-2.584-.884v-9.773h4.598v-3.832h-4.598v-4.79c-.578 0-1.066-.01-1.481-.018-2.346-.047-2.356-.047-2.851 2.009a27.67 27.67 0 01-.227.857c-.184.668-.373 1.356-.422 1.942l-.001-.001zm-14.78-.213c2.423-.058 3.418-.082 3.475 2.512v-.001l1.236-1.447c.33-.307 1.132-.876 1.471-1.018 1.485-.623 2.864-.403 4 .357 0 .867-.329 3.893-.575 4.408-.605.29-1.148.201-1.719.108-.646-.107-1.33-.219-2.18.209-.764.384-1.85 1.727-1.85 2.748v11.306H26.06V23.95c.478 0 .916-.011 1.315-.02zM142.75 43.111h5.365v-23.76h-5.365v23.76zm-4.407 0h-5.365V23.949h5.365v19.162zm-3.066-20.12c4.606 0 3.534-5.364.766-5.364-4.658 0-3.507 5.365-.766 5.365zM83.383 56.523c.051 1.602.055 1.702-.99 1.725V52.5c.763.017.77.027.99.414.033.059.07.126.117.203.19.316.381.667.576 1.025v.002h.001c.423.78.867 1.596 1.381 2.188V52.5h.767v5.748c-.937-.02-1.238-.636-1.67-1.52-.22-.448-.473-.964-.859-1.508a3.533 3.533 0 00-.287-.355l-.058-.066c0 .712.018 1.276.032 1.723v.001zm43.464-.957v-2.107h.958c.448 0 .766.318.766.766v.383c0 .797-.874.958-1.724.958zm-.959-2.49c0 1.175-.023 2.082-.041 2.782-.059 2.294-.061 2.367 1 2.39v-1.916c1.12 0 1.282.573 1.429 1.092.122.43.233.824.87.824.747 0 .499-.37.254-.737h-.001l-.002-.004-.028-.042-.022-.032-.047-.073c-.08-.127-.154-.237-.223-.339-.224-.329-.391-.575-.507-1.072 1.497-.4 1.509-3.45-1.341-3.45-.136 0-.261-.002-.375-.005-.667-.015-.966-.021-.966.58v.001zm-24.909.383v2.107c.851 0 1.725-.16 1.725-.958v-.383c0-.448-.318-.766-.766-.766h-.959zm-.19 4.787c-.494-.003-.768-.005-.768-.572l.001-.002V52.5h1.341c2.755 0 2.923 3.027 1.341 3.449.111.477.295.744.473 1.002.219.319.43.625.485 1.297-1.105-.024-1.222-.502-1.338-.974-.116-.474-.231-.942-1.345-.942v1.916l-.19-.002zm-9.582-.955h-.767v-3.832h.575c1.08 0 1.533.901 1.533 1.916 0 .81-.597 1.917-1.341 1.917v-.001zm-1.725.958h.458c.936-.004 1.883-.058 2.57-.613 1.655-1.337 1.335-5.136-1.878-5.136h-1.15v5.75h.001zm-56.096-.116c-.12.102-.324.106-.668.112l-.143.003V52.5l.14.002c.35.007.556.01.674.113.167.145.162.487.151 1.308-.003.246-.007.536-.007.876h1.917c0-.339-.004-.627-.007-.873-.011-.823-.015-1.166.151-1.31.119-.104.324-.108.675-.114l.07-.001.07-.001v5.748l-.144-.003c-.344-.006-.548-.01-.667-.112-.174-.149-.169-.506-.157-1.384v-.001c.004-.276.009-.603.009-.99h-1.917c0 .387.005.714.009.99v.001c.012.878.017 1.235-.157 1.384zm73.341-5.057v4.598c0 .334.162.499.482.575h2.966v-.959h-2.491v-1.533h2.107v-.958h-2.107v-1.34h2.491l-.003-.142c-.005-.337-.009-.54-.111-.663-.156-.187-.544-.18-1.527-.166-.336.006-.742.012-1.233.012-.44 0-.574.134-.574.574v.002zM55.949 57.41c-.01.57-.014.773-.498.838l-.001.001h-2.948V52.5h3.257v.958h-2.3v1.34c.468 0 .815-.006 1.075-.011.54-.01.705-.014.805.066.044.035.075.086.12.16.028.046.062.102.108.168l-.031.121c-.045.177-.073.288-.143.358-.12.12-.364.115-1.024.105-.242-.004-.54-.01-.91-.01v1.534h2.492l-.002.12zm-15.902-2.035c0-2.87 2.491-2.405 2.491-.575v1.15c0 1.88-2.49 2.238-2.49-.574v-.001zm1.712 2.874h-.697c-1.02-.204-1.972-1.274-1.972-2.874 0-3.831 4.407-3.759 4.407-.383 0 2.068-.812 3.065-1.738 3.258v-.001zm80.489-3.45c0-1.797-2.491-2.339-2.491.575v.001c0 2.842 2.491 2.48 2.491.575V54.8zm-1.489 3.449h.685l.001.001c.937-.19 1.761-1.193 1.761-3.257 0-.716-.158-1.156-.483-1.625-1.192-1.72-3.924-.917-3.924 2.007 0 1.615.945 2.676 1.96 2.874zm-42.773-4.406c.013.587.385 1.903.575 2.299H77.22c.013-.58.072-.796.215-1.317a7.39 7.39 0 00.087-.36c.07-.316.076-.338.463-.622h.001zm-1.916 4.406c.549 0 .615-.429.692-.928a5.58 5.58 0 01.075-.413h1.916c.038.16.067.303.093.428.155.764.185.913 1.248.913-.229-.986-.546-1.932-.863-2.878-.316-.944-.632-1.887-.861-2.87h-1.15l-1.38 4.583c-.028.079-.061.16-.094.241-.19.464-.376.924.325.924zm-9.611-2.63c-.667-.113-1.311-.222-1.311-1.585h.001c0-1.87 1.853-1.834 3.481-.928l-.607.736c-.999-.668-1.03-.658-1.47-.513a5.207 5.207 0 01-.447.13v1.15l.237.054c.49.111 1.223.277 1.557.451 1.367.712 1.112 2.991-.763 3.136h-.386c-.507-.035-1.107-.211-1.805-.58l.394-.76c1.024.54 1.77.884 2.491-.193-.21-.9-.8-1-1.372-1.098zm72.075-1.584c0 .727.133 1.266 1.116 1.568.104.032.25.057.41.084.505.086 1.157.197 1.157.647 0 1.8-1.785.918-2.339.645-.077-.038-.13-.065-.152-.07l-.011.043-.001.001c-.066.25-.085.321-.122.382-.015.024-.033.047-.058.079a3.29 3.29 0 00-.19.26c1.972 1.045 3.832.651 3.832-1.15 0-1.333-1.165-1.585-2.289-1.828a23.3 23.3 0 01-.394-.088v-.958c.948-.502 1.18-.324 1.385-.167.195.15.365.28 1.106-.216-.841-1.255-3.45-1.068-3.45.767zm-23.951 1.697c-.77-.136-1.724-.303-1.724-1.697v-.001c0-1.835 2.609-2.022 3.45-.767-.741.496-.911.366-1.107.216-.204-.157-.436-.335-1.384.167v.958c.129.03.26.059.392.087h.001c1.124.244 2.289.496 2.289 1.83 0 1.8-1.859 2.194-3.832 1.15.093-.139.151-.211.19-.262a.772.772 0 00.041-.052l.007-.01a.139.139 0 00.01-.016c.038-.06.057-.133.123-.383l.012-.044c.021.006.075.032.152.07.554.274 2.339 1.156 2.339-.644 0-.434-.437-.51-.959-.602zm18.012-2.273h.958v4.79c1.046-.023 1.046-.042.993-2.268-.015-.641-.034-1.464-.034-2.522h1.341V52.5h-3.258c-.819 0-.819.958 0 .958zm-85.458 0h-1.341V52.5h3.257c.39 0 .402.03.458.164.022.055.052.126.117.22l-.042.163c-.038.159-.063.258-.125.32-.102.101-.307.1-.853.094a37.855 37.855 0 00-.513-.003v4.79c-1.046-.023-1.045-.042-.993-2.268.015-.64.035-1.464.035-2.522zm11.88-.383v4.599c0 .334.162.498.482.574h2.966v-.958h-2.491V52.5l-.123.002h-.07c-.493.004-.765.006-.765.572v.001z" fill="#fff"/></svg>