<svg width="30" height="44" viewBox="0 0 30 44" fill="none" xmlns="http://www.w3.org/2000/svg">
<path fill-rule="evenodd" clip-rule="evenodd" d="M14.8587 44C14.6309 44 14.4306 43.882 14.3155 43.704C8.63334 34.8928 0 26.1614 0 14.8587C0 6.65239 6.65239 0 14.8587 0C23.0649 0 29.7173 6.65239 29.7173 14.8587C29.7173 26.1614 21.0839 34.8928 15.4019 43.704C15.2868 43.882 15.0865 44 14.8587 44ZM14.9548 8.93843C18.5227 8.93843 21.4151 11.8308 21.4151 15.3987C21.4151 18.9666 18.5227 21.859 14.9548 21.859C11.3869 21.859 8.49452 18.9666 8.49452 15.3987C8.49452 11.8308 11.3869 8.93843 14.9548 8.93843Z" fill="#254652"/>
</svg>
