<svg width="20" height="30" viewBox="0 0 20 30" fill="none" xmlns="http://www.w3.org/2000/svg">
<path opacity="0.7" fill-rule="evenodd" clip-rule="evenodd" d="M10 29.6124C9.84669 29.6124 9.71194 29.533 9.63442 29.4131C5.81031 23.4832 0 17.6068 0 10C0 4.47711 4.47711 0 10 0C15.5229 0 20 4.47711 20 10C20 17.6068 14.1896 23.4832 10.3656 29.4131C10.2881 29.533 10.1533 29.6124 10 29.6124ZM10.0647 6.01563C12.4659 6.01563 14.4125 7.96224 14.4125 10.3635C14.4125 12.7647 12.4659 14.7113 10.0647 14.7113C7.66348 14.7113 5.71688 12.7647 5.71688 10.3635C5.71688 7.96224 7.66348 6.01563 10.0647 6.01563Z" fill="#FEFEFE"/>
</svg>
