<svg width="44" height="44" viewBox="0 0 44 44" fill="none" xmlns="http://www.w3.org/2000/svg">
<path d="M41.5796 2.42039C39.9665 0.806896 38.023 0 35.7506 0H8.25006C5.97767 0 4.03418 0.806896 2.42039 2.42039C0.806896 4.03418 0 5.97757 0 8.25006V35.7503C0 38.0226 0.806896 39.9662 2.42039 41.58C4.03418 43.1938 5.97767 44.0007 8.25006 44.0007H35.7503C38.0227 44.0007 39.9662 43.1938 41.5793 41.58C43.1931 39.9662 44 38.0227 44 35.7503V8.25006C43.9999 5.97757 43.193 4.03388 41.5796 2.42039ZM36.036 33.399C35.635 34.2773 34.7326 35.0416 33.3293 35.6912C31.9256 36.3409 30.6791 36.6657 29.5903 36.6657C29.2846 36.6657 28.9599 36.6421 28.6162 36.5944C28.2725 36.5463 27.9817 36.4988 27.743 36.4511C27.5044 36.4033 27.1888 36.3175 26.7977 36.1932C26.4059 36.0694 26.124 35.9736 25.9527 35.9069C25.7803 35.8402 25.4655 35.7208 25.0074 35.5491C24.549 35.3767 24.2623 35.2716 24.1484 35.2342C21.0164 34.0877 17.9556 32.0207 14.967 29.0321C11.9784 26.0428 9.91101 22.9827 8.76508 19.8512C8.72716 19.7365 8.62211 19.45 8.45003 18.9918C8.27826 18.5338 8.15856 18.2185 8.09173 18.0468C8.02531 17.8749 7.92969 17.5932 7.80548 17.202C7.68136 16.8104 7.59568 16.4955 7.54782 16.2565C7.49986 16.0181 7.4525 15.727 7.40464 15.3832C7.35688 15.0393 7.3331 14.7143 7.3331 14.4089C7.3331 13.3203 7.65788 12.0742 8.30735 10.6705C8.95672 9.26706 9.72048 8.36475 10.5991 7.96361C11.6113 7.5433 12.5757 7.3332 13.4925 7.3332C13.7023 7.3332 13.8553 7.35246 13.9505 7.39059C14.0461 7.42922 14.2038 7.60069 14.4235 7.90631C14.6432 8.21194 14.8818 8.59853 15.1396 9.06649C15.3974 9.53455 15.6505 9.98817 15.8987 10.4272C16.1469 10.8664 16.3857 11.3007 16.615 11.7307C16.8442 12.16 16.9874 12.4325 17.0445 12.5467C17.1018 12.6427 17.226 12.8238 17.4169 13.0914C17.6077 13.3586 17.7513 13.597 17.8466 13.8073C17.9419 14.0174 17.9898 14.218 17.9898 14.4089C17.9898 14.6958 17.7938 15.0442 17.4024 15.4544C17.0108 15.8651 16.5811 16.2425 16.1131 16.5863C15.6452 16.9302 15.2156 17.2979 14.8241 17.6894C14.4329 18.0806 14.237 18.4005 14.237 18.6488C14.237 18.7826 14.2704 18.94 14.3373 19.1214C14.4041 19.3032 14.4662 19.4512 14.5235 19.5656C14.5808 19.68 14.6717 19.8425 14.7956 20.0528C14.9197 20.2631 15.0011 20.3966 15.039 20.454C16.0893 22.3447 17.2974 23.9728 18.6625 25.3385C20.0283 26.7043 21.6562 27.9118 23.5471 28.9623C23.604 29.0008 23.7379 29.0818 23.9488 29.2061C24.1586 29.3297 24.3214 29.4204 24.4357 29.4777C24.5504 29.535 24.698 29.5972 24.8797 29.6635C25.0614 29.7301 25.219 29.7637 25.3532 29.7637C25.6578 29.7637 26.0781 29.4489 26.6134 28.8188C27.148 28.1881 27.6926 27.5628 28.2465 26.942C28.7999 26.3218 29.2483 26.0115 29.5928 26.0115C29.7836 26.0115 29.9838 26.059 30.1947 26.1544C30.4049 26.2498 30.6431 26.3934 30.9103 26.5842C31.1781 26.7759 31.3594 26.8995 31.4549 26.9576L32.9725 27.7874C33.9847 28.3224 34.8298 28.7949 35.5079 29.2056C36.1861 29.6162 36.5538 29.8978 36.6112 30.0503C36.6492 30.1457 36.6678 30.2989 36.6678 30.509C36.6671 31.4249 36.4569 32.3894 36.036 33.399Z" fill="#254652"/>
</svg>
