<?xml version="1.0" encoding="UTF-8"?>
<svg xmlns="http://www.w3.org/2000/svg" xmlns:xlink="http://www.w3.org/1999/xlink" width="44pt" height="44pt" viewBox="0 0 44 44" version="1.1">
<g id="surface1">
<path style=" stroke:none;fill-rule:evenodd;fill:rgb(16.470588%,69.803922%,0%);fill-opacity:1;" d="M 4.710938 0 L 39.175781 0 C 41.777344 0 43.886719 2.109375 43.886719 4.710938 L 43.886719 39.175781 C 43.886719 41.777344 41.777344 43.886719 39.175781 43.886719 L 4.710938 43.886719 C 2.109375 43.886719 0 41.777344 0 39.175781 L 0 4.710938 C 0 2.109375 2.109375 0 4.710938 0 Z M 4.710938 0 "/>
<path style=" stroke:none;fill-rule:evenodd;fill:rgb(100%,100%,100%);fill-opacity:1;" d="M 22.183594 6.824219 C 30.371094 6.824219 36.992188 13.445312 36.992188 21.566406 C 36.992188 29.757812 30.371094 36.378906 22.183594 36.378906 C 19.589844 36.378906 17.0625 35.695312 14.945312 34.535156 L 6.894531 37.058594 L 9.417969 29.144531 C 8.121094 26.960938 7.371094 24.367188 7.371094 21.566406 C 7.371094 13.445312 13.992188 6.824219 22.183594 6.824219 Z M 18.769531 20.476562 C 18.769531 20.476562 19.859375 22.25 21.636719 23.683594 C 23.410156 25.046875 24.367188 25.320312 24.367188 25.320312 C 24.367188 25.320312 25.933594 23.34375 26.140625 23.34375 C 26.34375 23.273438 27.710938 23.886719 28.324219 24.230469 C 28.871094 24.503906 29.6875 24.980469 29.6875 25.183594 C 29.6875 25.320312 29.621094 26.550781 29.210938 27.027344 C 28.800781 27.4375 27.640625 28.527344 26.550781 28.390625 C 21.226562 27.984375 16.3125 23.136719 15.425781 19.589844 C 15.289062 18.972656 15.355469 16.585938 15.835938 15.972656 C 16.378906 15.355469 16.722656 14.945312 17.402344 14.878906 C 18.085938 14.808594 18.496094 14.878906 18.699219 15.355469 C 18.972656 15.835938 19.996094 18.15625 20.066406 18.429688 C 20.132812 18.699219 18.699219 20.066406 18.769531 20.476562 Z M 16.652344 32.625 C 18.292969 33.441406 20.203125 33.921875 22.183594 33.921875 C 29.007812 33.921875 34.46875 28.390625 34.46875 21.566406 C 34.46875 14.808594 29.007812 9.28125 22.183594 9.28125 C 15.355469 9.28125 9.828125 14.808594 9.828125 21.566406 C 9.828125 24.230469 10.714844 26.6875 12.082031 28.664062 L 10.714844 33.375 L 15.425781 31.941406 Z M 16.652344 32.625 "/>
<path style=" stroke:none;fill-rule:evenodd;fill:rgb(13.333333%,56.470588%,0%);fill-opacity:1;" d="M 36.992188 21.566406 C 36.992188 32.964844 24.707031 39.996094 14.945312 34.535156 L 6.894531 37.058594 L 13.71875 43.886719 L 39.109375 43.886719 L 43.886719 39.109375 L 43.886719 22.796875 L 34.535156 13.445312 C 36.035156 15.765625 36.992188 18.5625 36.992188 21.566406 Z M 36.992188 21.566406 "/>
<path style=" stroke:none;fill-rule:evenodd;fill:rgb(13.333333%,56.470588%,0%);fill-opacity:1;" d="M 12.082031 28.664062 Z M 16.652344 32.625 C 24.707031 36.652344 34.46875 30.847656 34.46875 21.566406 C 34.46875 14.808594 29.007812 9.28125 22.183594 9.28125 C 12.148438 9.28125 6.414062 20.613281 12.082031 28.664062 L 10.714844 33.375 L 15.425781 31.941406 Z M 26.550781 28.390625 C 21.226562 27.984375 16.3125 23.136719 15.425781 19.589844 C 15.082031 18.15625 15.492188 15.082031 17.402344 14.878906 C 18.085938 14.808594 18.496094 14.878906 18.699219 15.355469 C 18.972656 15.835938 19.996094 18.15625 20.066406 18.429688 C 20.132812 18.699219 18.699219 20.066406 18.769531 20.476562 C 19.519531 21.773438 22.386719 24.84375 24.367188 25.320312 C 26.277344 22.933594 25.800781 22.933594 28.324219 24.230469 C 28.871094 24.503906 29.6875 24.980469 29.6875 25.183594 C 29.6875 27.230469 27.847656 28.527344 26.550781 28.390625 Z M 26.550781 28.390625 "/>
</g>
</svg>
